{
.appVersion = "1075";
copyright = "Copyright © 2018 by Cadson Demak Co.,Ltd.. All rights reserved.";
customParameters = (
{
name = vendorID;
value = CDK;
},
{
name = description;
value = "Copyright (c) 2018, Cadson Demak (info@cadsondemak.com)";
},
{
name = license;

glyphs = (
{
glyphname = A;
lastChange = "2018-01-22 16:25:13 +0000";
layers = (
{
anchors = (
{
name = bottom;
position = "{355, 0}";
},
{
name = ogonek;
position = "{639, 10}";
},
{
name = top;
position = "{355, 700}";
}
);
layerId = "0B1DFD06-3317-40CA-B510-4969A0718C16";
paths = (
{
closed = 1;
nodes = (
"121 -11 OFFCURVE",
"124 -8 OFFCURVE",
"128 3 CURVE SMOOTH",
"205 227 OFFCURVE",
"338 682 OFFCURVE",
"364 682 CURVE SMOOTH",
"391 682 OFFCURVE",
"511 215 OFFCURVE",
"583 -1 CURVE SMOOTH",
"585 -7 OFFCURVE",
"589 -9 OFFCURVE",
"596 -9 CURVE SMOOTH",
"608 -9 OFFCURVE",
"613 -3 OFFCURVE",
"610 7 CURVE SMOOTH",
"523 297 OFFCURVE",
"516 332 OFFCURVE",
"485 427 CURVE SMOOTH",
"418 633 OFFCURVE",
"403 710 OFFCURVE",
"365 710 CURVE SMOOTH",
"323 710 OFFCURVE",
"299 615 OFFCURVE",
"239 431 CURVE SMOOTH",
"100 5 LINE SMOOTH",
"98 -2 OFFCURVE",
"103 -11 OFFCURVE",
"114 -11 CURVE SMOOTH"
);
},
{
closed = 1;
nodes = (
"585 189 OFFCURVE",
"590 197 OFFCURVE",
"590 204 CURVE SMOOTH",
"590 212 OFFCURVE",
"585 217 OFFCURVE",
"577 217 CURVE SMOOTH",
"194 221 LINE SMOOTH",
"180 221 OFFCURVE",
"172 213 OFFCURVE",
"172 203 CURVE SMOOTH",
"172 197 OFFCURVE",
"176 191 OFFCURVE",
"183 191 CURVE SMOOTH",
"575 189 LINE SMOOTH"
);
}
);
width = 710;
}
);
note = A;
unicode = 0041;
},
{
glyphname = B;
lastChange = "2018-01-22 16:25:20 +0000";
layers = (
{
anchors = (
{
name = bottom;
position = "{293, 0}";
},
{
name = top;
position = "{293, 700}";
}
);
layerId = "0B1DFD06-3317-40CA-B510-4969A0718C16";
paths = (
{
closed = 1;
nodes = (
"98 7 OFFCURVE",
"103 14 OFFCURVE",
"105 26 CURVE",
"150 26 OFFCURVE",
"187 26 OFFCURVE",
"236 23 CURVE SMOOTH",
"386 15 OFFCURVE",
"515 51 OFFCURVE",
"515 184 CURVE SMOOTH",
"515 275 OFFCURVE",
"456 332 OFFCURVE",
"377 354 CURVE",
"455 372 OFFCURVE",
"525 420 OFFCURVE",
"525 519 CURVE SMOOTH",
"525 649 OFFCURVE",
"405 706 OFFCURVE",
"270 706 CURVE SMOOTH",
"203 706 OFFCURVE",
"138 692 OFFCURVE",
"85 670 CURVE SMOOTH",
"70 664 OFFCURVE",
"54 656 OFFCURVE",
"54 640 CURVE SMOOTH",
"54 636 OFFCURVE",
"55 626 OFFCURVE",
"63 626 CURVE SMOOTH",
"73 626 OFFCURVE",
"83 636 OFFCURVE",
"90 636 CURVE",
"94 574 OFFCURVE",
"94 502 OFFCURVE",
"94 435 CURVE SMOOTH",
"94 315 OFFCURVE",
"89 174 OFFCURVE",
"78 56 CURVE",
"48 56 LINE SMOOTH",
"36 56 OFFCURVE",
"31 52 OFFCURVE",
"31 41 CURVE SMOOTH",
"31 34 OFFCURVE",
"33 26 OFFCURVE",
"48 26 CURVE SMOOTH",
"75 26 LINE",
"75 14 OFFCURVE",
"78 7 OFFCURVE",
"88 7 CURVE SMOOTH"
);
},
{
closed = 1;
nodes = (
"169 55 OFFCURVE",
"128 55 OFFCURVE",
"107 55 CURVE",
"120 169 OFFCURVE",
"125 271 OFFCURVE",
"125 417 CURVE SMOOTH",
"125 483 OFFCURVE",
"124 561 OFFCURVE",
"122 653 CURVE",
"156 669 OFFCURVE",
"206 677 OFFCURVE",
"254 677 CURVE SMOOTH",
"370 677 OFFCURVE",
"495 630 OFFCURVE",
"495 517 CURVE SMOOTH",
"495 402 OFFCURVE",
"367 373 OFFCURVE",
"220 370 CURVE SMOOTH",
"203 370 OFFCURVE",
"196 369 OFFCURVE",
"196 356 CURVE SMOOTH",
"196 342 OFFCURVE",
"204 340 OFFCURVE",
"219 340 CURVE SMOOTH",
"323 340 OFFCURVE",
"484 329 OFFCURVE",
"484 194 CURVE SMOOTH",
"484 80 OFFCURVE",
"370 45 OFFCURVE",
"213 53 CURVE SMOOTH"
);
}
);
width = 585;
}
);
note = B;
unicode = 0042;
},
{
glyphname = C;
lastChange = "2018-01-22 16:25:20 +0000";
layers = (
{
anchors = (
{
name = bottom;
position = "{344, 0}";
},
{
name = top;
position = "{344, 700}";
}
);
layerId = "0B1DFD06-3317-40CA-B510-4969A0718C16";
paths = (
{
closed = 1;
nodes = (
"553 -2 OFFCURVE",
"658 106 OFFCURVE",
"658 235 CURVE SMOOTH",
"658 245 OFFCURVE",
"658 257 OFFCURVE",
"644 257 CURVE SMOOTH",
"634 257 OFFCURVE",
"628 250 OFFCURVE",
"628 239 CURVE SMOOTH",
"628 163 OFFCURVE",
"572 29 OFFCURVE",
"385 29 CURVE SMOOTH",
"235 29 OFFCURVE",
"80 110 OFFCURVE",
"80 329 CURVE SMOOTH",
"80 545 OFFCURVE",
"230 681 OFFCURVE",
"381 681 CURVE SMOOTH",
"475 681 OFFCURVE",
"525 628 OFFCURVE",
"596 550 CURVE SMOOTH",
"601 545 OFFCURVE",
"606 542 OFFCURVE",
"609 542 CURVE SMOOTH",
"613 542 OFFCURVE",
"616 546 OFFCURVE",
"618 555 CURVE SMOOTH",
"621 571 OFFCURVE",
"621 592 OFFCURVE",
"621 696 CURVE SMOOTH",
"621 705 OFFCURVE",
"614 707 OFFCURVE",
"604 707 CURVE SMOOTH",
"595 707 OFFCURVE",
"588 701 OFFCURVE",
"588 692 CURVE SMOOTH",
"588 672 OFFCURVE",
"587 638 OFFCURVE",
"587 611 CURVE",
"520 674 OFFCURVE",
"463 712 OFFCURVE",
"380 712 CURVE SMOOTH",
"218 712 OFFCURVE",
"50 568 OFFCURVE",
"50 328 CURVE SMOOTH",
"50 82 OFFCURVE",
"227 -2 OFFCURVE",
"377 -2 CURVE SMOOTH"
);
}
);
width = 688;
}
);
note = C;
unicode = 0043;
},
{
glyphname = D;
lastChange = "2018-01-22 16:25:20 +0000";
layers = (
{
anchors = (
{
name = bottom;
position = "{341, 0}";
},
{
name = center;
position = "{341, 350}";
},
{
name = top;
position = "{341, 700}";
}
);
layerId = "0B1DFD06-3317-40CA-B510-4969A0718C16";
paths = (
{
closed = 1;
nodes = (
"459 8 OFFCURVE",
"621 142 OFFCURVE",
"621 357 CURVE SMOOTH",
"621 606 OFFCURVE",
"403 698 OFFCURVE",
"113 698 CURVE SMOOTH",
"100 698 OFFCURVE",
"88 699 OFFCURVE",
"88 686 CURVE SMOOTH",
"88 674 OFFCURVE",
"95 669 OFFCURVE",
"111 669 CURVE SMOOTH",
"399 669 OFFCURVE",
"592 581 OFFCURVE",
"592 358 CURVE SMOOTH",
"592 158 OFFCURVE",
"417 37 OFFCURVE",
"187 37 CURVE",
"169 686 LINE SMOOTH",
"169 703 OFFCURVE",
"168 712 OFFCURVE",
"154 712 CURVE SMOOTH",
"139 712 OFFCURVE",
"138 701 OFFCURVE",
"138 684 CURVE SMOOTH",
"156 37 LINE",
"101 37 LINE SMOOTH",
"94 37 OFFCURVE",
"89 34 OFFCURVE",
"89 25 CURVE SMOOTH",
"89 13 OFFCURVE",
"93 8 OFFCURVE",
"105 8 CURVE SMOOTH",
"134 8 OFFCURVE",
"155 8 OFFCURVE",
"180 8 CURVE SMOOTH"
);
}
);
width = 681;
}
);
note = D;
unicode = 0044;
},
{
glyphname = E;
lastChange = "2018-01-22 16:25:20 +0000";
layers = (
{
anchors = (
{
name = bottom;
position = "{268, 0}";
},
{
name = ogonek;
position = "{481, 10}";
},
{
name = top;
position = "{268, 700}";
},
{
name = topleft;
position = "{20, 700}";
}
);
layerId = "0B1DFD06-3317-40CA-B510-4969A0718C16";
paths = (
{
closed = 1;
nodes = (
"406 14 OFFCURVE",
"454 16 OFFCURVE",
"474 22 CURVE SMOOTH",
"487 26 OFFCURVE",
"493 32 OFFCURVE",
"493 38 CURVE SMOOTH",
"493 47 OFFCURVE",
"482 54 OFFCURVE",
"468 52 CURVE SMOOTH",
"415 45 OFFCURVE",
"384 41 OFFCURVE",
"336 41 CURVE SMOOTH",
"269 41 OFFCURVE",
"198 49 OFFCURVE",
"114 55 CURVE",
"130 304 OFFCURVE",
"137 364 OFFCURVE",
"137 510 CURVE SMOOTH",
"137 559 OFFCURVE",
"136 610 OFFCURVE",
"133 661 CURVE",
"173 664 OFFCURVE",
"222 664 OFFCURVE",
"268 664 CURVE SMOOTH",
"398 663 OFFCURVE",
"474 657 OFFCURVE",
"482 657 CURVE SMOOTH",
"490 657 OFFCURVE",
"499 661 OFFCURVE",
"499 675 CURVE SMOOTH",
"499 682 OFFCURVE",
"495 687 OFFCURVE",
"489 687 CURVE SMOOTH",
"482 687 OFFCURVE",
"362 696 OFFCURVE",
"271 696 CURVE SMOOTH",
"207 696 OFFCURVE",
"148 691 OFFCURVE",
"99 691 CURVE SMOOTH",
"83 691 OFFCURVE",
"77 686 OFFCURVE",
"77 676 CURVE SMOOTH",
"77 664 OFFCURVE",
"85 661 OFFCURVE",
"99 661 CURVE",
"102 624 OFFCURVE",
"104 570 OFFCURVE",
"104 510 CURVE SMOOTH",
"104 385 OFFCURVE",
"94 169 OFFCURVE",
"80 55 CURVE",
"52 55 OFFCURVE",
"45 54 OFFCURVE",
"45 36 CURVE SMOOTH",
"45 22 OFFCURVE",
"50 23 OFFCURVE",
"106 23 CURVE SMOOTH",
"204 23 OFFCURVE",
"286 14 OFFCURVE",
"368 14 CURVE SMOOTH"
);
},
{
closed = 1;
nodes = (
"400 349 OFFCURVE",
"413 350 OFFCURVE",
"413 363 CURVE SMOOTH",
"413 372 OFFCURVE",
"407 379 OFFCURVE",
"400 379 CURVE SMOOTH",
"386 379 OFFCURVE",
"323 382 OFFCURVE",
"285 382 CURVE SMOOTH",
"218 382 OFFCURVE",
"93 386 OFFCURVE",
"81 386 CURVE SMOOTH",
"59 386 OFFCURVE",
"59 375 OFFCURVE",
"59 366 CURVE SMOOTH",
"59 359 OFFCURVE",
"64 354 OFFCURVE",
"85 354 CURVE SMOOTH",
"94 354 OFFCURVE",
"114 355 OFFCURVE",
"201 355 CURVE SMOOTH",
"220 355 OFFCURVE",
"360 349 OFFCURVE",
"386 349 CURVE SMOOTH"
);
}
);
width = 535;
}
);
note = E;
unicode = 0045;
},
{
glyphname = F;
lastChange = "2018-01-22 16:25:20 +0000";
layers = (
{
anchors = (
{
name = bottom;
position = "{259, 0}";
},
{
name = top;
position = "{259, 700}";
}
);
layerId = "0B1DFD06-3317-40CA-B510-4969A0718C16";
paths = (
{
closed = 1;
nodes = (
"120 6 OFFCURVE",
"129 7 OFFCURVE",
"129 15 CURVE SMOOTH",
"129 42 OFFCURVE",
"141 120 OFFCURVE",
"141 301 CURVE SMOOTH",
"141 471 OFFCURVE",
"122 707 OFFCURVE",
"122 726 CURVE SMOOTH",
"122 742 OFFCURVE",
"117 745 OFFCURVE",
"106 745 CURVE SMOOTH",
"98 745 OFFCURVE",
"90 740 OFFCURVE",
"90 727 CURVE SMOOTH",
"90 707 OFFCURVE",
"110 475 OFFCURVE",
"110 254 CURVE SMOOTH",
"110 123 OFFCURVE",
"99 71 OFFCURVE",
"99 17 CURVE SMOOTH",
"99 8 OFFCURVE",
"105 6 OFFCURVE",
"114 6 CURVE SMOOTH"
);
},
{
closed = 1;
nodes = (
"51 325 OFFCURVE",
"177 343 OFFCURVE",
"264 343 CURVE SMOOTH",
"366 343 OFFCURVE",
"388 339 OFFCURVE",
"409 339 CURVE SMOOTH",
"417 339 OFFCURVE",
"425 340 OFFCURVE",
"425 350 CURVE SMOOTH",
"425 361 OFFCURVE",
"418 367 OFFCURVE",
"408 367 CURVE SMOOTH",
"388 367 OFFCURVE",
"348 370 OFFCURVE",
"300 370 CURVE SMOOTH",
"191 370 OFFCURVE",
"49 354 OFFCURVE",
"45 354 CURVE SMOOTH",
"36 354 OFFCURVE",
"35 344 OFFCURVE",
"35 338 CURVE SMOOTH",
"35 326 OFFCURVE",
"42 325 OFFCURVE",
"45 325 CURVE SMOOTH"
);
},
{
closed = 1;
nodes = (
"483 659 OFFCURVE",
"487 666 OFFCURVE",
"487 674 CURVE SMOOTH",
"487 681 OFFCURVE",
"482 685 OFFCURVE",
"471 687 CURVE SMOOTH",
"418 696 OFFCURVE",
"368 700 OFFCURVE",
"295 700 CURVE SMOOTH",
"239 700 OFFCURVE",
"135 694 OFFCURVE",
"50 689 CURVE SMOOTH",
"36 688 OFFCURVE",
"32 682 OFFCURVE",
"32 675 CURVE SMOOTH",
"32 659 OFFCURVE",
"38 659 OFFCURVE",
"49 659 CURVE SMOOTH",
"94 659 OFFCURVE",
"195 669 OFFCURVE",
"300 669 CURVE SMOOTH",
"374 669 OFFCURVE",
"453 659 OFFCURVE",
"473 659 CURVE"
);
}
);
width = 517;
}
);
note = F;
unicode = 0046;
},
{
glyphname = G;
lastChange = "2018-01-22 16:47:32 +0000";
layers = (
{
anchors = (
{
name = bottom;
position = "{365, 0}";
},
{
name = top;
position = "{365, 700}";
}
);
layerId = "0B1DFD06-3317-40CA-B510-4969A0718C16";
paths = (
{
closed = 1;
nodes = (
"581 3 OFFCURVE",
"630 168 OFFCURVE",
"630 304 CURVE",
"676 304 LINE SMOOTH",
"684 304 OFFCURVE",
"690 308 OFFCURVE",
"690 320 CURVE SMOOTH",
"690 330 OFFCURVE",
"686 334 OFFCURVE",
"666 334 CURVE SMOOTH",
"643 334 OFFCURVE",
"459 339 OFFCURVE",
"431 339 CURVE SMOOTH",
"424 339 OFFCURVE",
"414 335 OFFCURVE",
"414 324 CURVE SMOOTH",
"414 313 OFFCURVE",
"421 308 OFFCURVE",
"435 308 CURVE SMOOTH",
"452 308 OFFCURVE",
"586 305 OFFCURVE",
"599 304 CURVE",
"599 159 OFFCURVE",
"546 34 OFFCURVE",
"375 34 CURVE SMOOTH",
"195 34 OFFCURVE",
"81 176 OFFCURVE",
"81 344 CURVE SMOOTH",
"81 483 OFFCURVE",
"160 656 OFFCURVE",
"386 656 CURVE SMOOTH",
"424 656 OFFCURVE",
"491 651 OFFCURVE",
"545 603 CURVE SMOOTH",
"565 585 OFFCURVE",
"592 555 OFFCURVE",
"613 555 CURVE SMOOTH",
"638 555 OFFCURVE",
"637 611 OFFCURVE",
"637 644 CURVE SMOOTH",
"637 651 OFFCURVE",
"631 655 OFFCURVE",
"621 655 CURVE SMOOTH",
"611 655 OFFCURVE",
"608 649 OFFCURVE",
"608 635 CURVE SMOOTH",
"608 614 OFFCURVE",
"608 601 OFFCURVE",
"605 588 CURVE",
"546 653 OFFCURVE",
"475 688 OFFCURVE",
"379 688 CURVE SMOOTH",
"173 688 OFFCURVE",
"50 528 OFFCURVE",
"50 348 CURVE SMOOTH",
"50 169 OFFCURVE",
"171 3 OFFCURVE",
"375 3 CURVE SMOOTH"
);
}
);
width = 729;
}
);
note = G;
unicode = 0047;
},
{
glyphname = H;
lastChange = "2018-01-22 16:25:20 +0000";
layers = (
{
anchors = (
{
name = bottom;
position = "{333, 0}";
},
{
name = center;
position = "{333, 350}";
},
{
name = top;
position = "{333, 700}";
},
{
name = topleft;
position = "{20, 700}";
}
);
layerId = "0B1DFD06-3317-40CA-B510-4969A0718C16";
paths = (
{
closed = 1;
nodes = (
"119 -5 OFFCURVE",
"125 -1 OFFCURVE",
"125 5 CURVE SMOOTH",
"181 701 LINE SMOOTH",
"182 712 OFFCURVE",
"178 721 OFFCURVE",
"167 721 CURVE SMOOTH",
"158 721 OFFCURVE",
"151 715 OFFCURVE",
"150 703 CURVE SMOOTH",
"94 10 LINE SMOOTH",
"93 1 OFFCURVE",
"97 -5 OFFCURVE",
"108 -5 CURVE SMOOTH"
);
},
{
closed = 1;
nodes = (
"615 297 OFFCURVE",
"621 302 OFFCURVE",
"621 313 CURVE SMOOTH",
"621 324 OFFCURVE",
"615 329 OFFCURVE",
"603 329 CURVE SMOOTH",
"73 337 LINE SMOOTH",
"66 337 OFFCURVE",
"56 332 OFFCURVE",
"56 322 CURVE SMOOTH",
"56 315 OFFCURVE",
"61 307 OFFCURVE",
"71 307 CURVE SMOOTH",
"604 297 LINE"
);
},
{
closed = 1;
nodes = (
"565 0 OFFCURVE",
"568 6 OFFCURVE",
"568 20 CURVE SMOOTH",
"548 705 LINE SMOOTH",
"548 714 OFFCURVE",
"543 721 OFFCURVE",
"532 721 CURVE SMOOTH",
"522 721 OFFCURVE",
"517 715 OFFCURVE",
"517 703 CURVE SMOOTH",
"537 16 LINE SMOOTH",
"537 5 OFFCURVE",
"546 0 OFFCURVE",
"554 0 CURVE"
);
}
);
width = 665;
}
);
note = H;
unicode = 0048;
},
{
glyphname = I;
lastChange = "2018-01-22 16:25:20 +0000";
layers = (
{
anchors = (
{
name = bottom;
position = "{194, 0}";
},
{
name = ogonek;
position = "{348, 10}";
},
{
name = top;
position = "{194, 700}";
},
{
name = topleft;
position = "{20, 700}";
}
);
layerId = "0B1DFD06-3317-40CA-B510-4969A0718C16";
paths = (
{
closed = 1;
nodes = (
"219 104 OFFCURVE",
"233 609 OFFCURVE",
"233 681 CURVE",
"202 681 LINE",
"202 593 OFFCURVE",
"186 105 OFFCURVE",
"181 30 CURVE",
"212 29 LINE"
);
},
{
closed = 1;
nodes = (
"358 5 OFFCURVE",
"364 11 OFFCURVE",
"364 22 CURVE SMOOTH",
"364 31 OFFCURVE",
"359 37 OFFCURVE",
"347 37 CURVE SMOOTH",
"339 37 OFFCURVE",
"54 42 OFFCURVE",
"44 42 CURVE SMOOTH",
"36 42 OFFCURVE",
"31 36 OFFCURVE",
"31 29 CURVE SMOOTH",
"31 20 OFFCURVE",
"33 10 OFFCURVE",
"43 10 CURVE SMOOTH",
"347 5 LINE SMOOTH"
);
},
{
closed = 1;
nodes = (
"83 671 OFFCURVE",
"170 676 OFFCURVE",
"223 676 CURVE SMOOTH",
"247 676 OFFCURVE",
"328 672 OFFCURVE",
"349 672 CURVE SMOOTH",
"355 672 OFFCURVE",
"364 673 OFFCURVE",
"364 683 CURVE SMOOTH",
"364 695 OFFCURVE",
"360 700 OFFCURVE",
"352 701 CURVE SMOOTH",
"334 704 OFFCURVE",
"251 708 OFFCURVE",
"222 708 CURVE SMOOTH",
"189 708 OFFCURVE",
"105 704 OFFCURVE",
"65 700 CURVE SMOOTH",
"44 698 OFFCURVE",
"26 696 OFFCURVE",
"26 683 CURVE SMOOTH",
"26 673 OFFCURVE",
"34 661 OFFCURVE",
"54 666 CURVE"
);
}
);
width = 387;
}
);
note = I;
unicode = 0049;
},
{
glyphname = J;
lastChange = "2018-01-22 16:25:20 +0000";
layers = (
{
anchors = (
{
name = bottom;
position = "{245, 0}";
},
{
name = top;
position = "{245, 700}";
}
);
layerId = "0B1DFD06-3317-40CA-B510-4969A0718C16";
paths = (
{
closed = 1;
nodes = (
"331 2 OFFCURVE",
"417 83 OFFCURVE",
"417 259 CURVE SMOOTH",
"417 326 OFFCURVE",
"414 541 OFFCURVE",
"423 681 CURVE",
"393 682 LINE",
"384 533 OFFCURVE",
"386 373 OFFCURVE",
"386 258 CURVE SMOOTH",
"386 90 OFFCURVE",
"308 33 OFFCURVE",
"216 33 CURVE SMOOTH",
"60 33 OFFCURVE",
"56 198 OFFCURVE",
"55 251 CURVE SMOOTH",
"55 263 OFFCURVE",
"51 271 OFFCURVE",
"39 271 CURVE SMOOTH",
"26 271 OFFCURVE",
"25 263 OFFCURVE",
"25 244 CURVE SMOOTH",
"25 35 OFFCURVE",
"147 2 OFFCURVE",
"218 2 CURVE SMOOTH"
);
},
{
closed = 1;
nodes = (
"335 669 OFFCURVE",
"496 672 OFFCURVE",
"500 672 CURVE SMOOTH",
"507 672 OFFCURVE",
"510 677 OFFCURVE",
"510 685 CURVE SMOOTH",
"510 693 OFFCURVE",
"503 696 OFFCURVE",
"485 698 CURVE SMOOTH",
"466 700 OFFCURVE",
"434 700 OFFCURVE",
"401 700 CURVE SMOOTH",
"374 700 OFFCURVE",
"300 696 OFFCURVE",
"291 693 CURVE SMOOTH",
"289 692 OFFCURVE",
"285 689 OFFCURVE",
"285 682 CURVE SMOOTH",
"285 674 OFFCURVE",
"289 669 OFFCURVE",
"317 669 CURVE SMOOTH"
);
}
);
width = 489;
}
);
note = J;
unicode = 004A;
},
{
glyphname = K;
lastChange = "2018-01-22 16:25:20 +0000";
layers = (
{
anchors = (
{
name = bottom;
position = "{293, 0}";
},
{
name = top;
position = "{293, 700}";
}
);
layerId = "0B1DFD06-3317-40CA-B510-4969A0718C16";
paths = (
{
closed = 1;
nodes = (
"540 -1 OFFCURVE",
"549 4 OFFCURVE",
"552 10 CURVE SMOOTH",
"556 17 OFFCURVE",
"552 29 OFFCURVE",
"547 32 CURVE SMOOTH",
"469 82 OFFCURVE",
"419 116 OFFCURVE",
"319 203 CURVE SMOOTH",
"227 283 OFFCURVE",
"159 350 OFFCURVE",
"147 375 CURVE",
"208 414 OFFCURVE",
"291 461 OFFCURVE",
"349 502 CURVE SMOOTH",
"421 553 OFFCURVE",
"530 626 OFFCURVE",
"569 658 CURVE SMOOTH",
"577 666 OFFCURVE",
"579 675 OFFCURVE",
"573 682 CURVE SMOOTH",
"566 690 OFFCURVE",
"557 692 OFFCURVE",
"550 687 CURVE SMOOTH",
"513 656 OFFCURVE",
"446 600 OFFCURVE",
"317 518 CURVE SMOOTH",
"124 396 LINE",
"121 454 OFFCURVE",
"121 540 OFFCURVE",
"121 611 CURVE SMOOTH",
"121 637 OFFCURVE",
"122 660 OFFCURVE",
"122 680 CURVE SMOOTH",
"122 690 OFFCURVE",
"116 697 OFFCURVE",
"107 697 CURVE SMOOTH",
"98 697 OFFCURVE",
"90 692 OFFCURVE",
"90 683 CURVE SMOOTH",
"90 611 OFFCURVE",
"93 552 OFFCURVE",
"93 470 CURVE SMOOTH",
"93 353 OFFCURVE",
"87 208 OFFCURVE",
"87 27 CURVE SMOOTH",
"87 8 OFFCURVE",
"92 2 OFFCURVE",
"102 2 CURVE SMOOTH",
"111 2 OFFCURVE",
"119 6 OFFCURVE",
"119 25 CURVE SMOOTH",
"124 353 LINE",
"182 285 OFFCURVE",
"233 233 OFFCURVE",
"300 176 CURVE SMOOTH",
"346 136 OFFCURVE",
"491 34 OFFCURVE",
"533 4 CURVE SMOOTH"
);
}
);
width = 585;
}
);
note = K;
unicode = 004B;
},
{
glyphname = L;
lastChange = "2018-01-22 16:25:20 +0000";
layers = (
{
anchors = (
{
name = bottom;
position = "{252, 0}";
},
{
name = center;
position = "{252, 350}";
},
{
name = top;
position = "{252, 700}";
},
{
name = topright;
position = "{483, 700}";
}
);
layerId = "0B1DFD06-3317-40CA-B510-4969A0718C16";
paths = (
{
closed = 1;
nodes = (
"316 0 OFFCURVE",
"358 12 OFFCURVE",
"449 25 CURVE SMOOTH",
"463 27 OFFCURVE",
"469 31 OFFCURVE",
"469 43 CURVE SMOOTH",
"469 56 OFFCURVE",
"456 60 OFFCURVE",
"442 57 CURVE SMOOTH",
"352 38 OFFCURVE",
"287 30 OFFCURVE",
"205 30 CURVE SMOOTH",
"106 30 OFFCURVE",
"93 83 OFFCURVE",
"93 161 CURVE SMOOTH",
"93 325 OFFCURVE",
"104 513 OFFCURVE",
"137 682 CURVE SMOOTH",
"140 696 OFFCURVE",
"135 702 OFFCURVE",
"124 702 CURVE SMOOTH",
"114 702 OFFCURVE",
"107 698 OFFCURVE",
"105 688 CURVE SMOOTH",
"78 539 OFFCURVE",
"61 493 OFFCURVE",
"61 181 CURVE SMOOTH",
"61 2 OFFCURVE",
"109 0 OFFCURVE",
"230 0 CURVE SMOOTH"
);
}
);
width = 503;
}
);
note = L;
unicode = 004C;
},
{
glyphname = M;
lastChange = "2018-01-22 16:25:20 +0000";
layers = (
{
anchors = (
{
name = bottom;
position = "{407, 0}";
},
{
name = top;
position = "{407, 700}";
}
);
layerId = "0B1DFD06-3317-40CA-B510-4969A0718C16";
paths = (
{
closed = 1;
nodes = (
"701 -5 OFFCURVE",
"709 -2 OFFCURVE",
"709 13 CURVE SMOOTH",
"709 412 OFFCURVE",
"693 711 OFFCURVE",
"618 711 CURVE SMOOTH",
"563 711 OFFCURVE",
"429 553 OFFCURVE",
"400 345 CURVE",
"355 560 OFFCURVE",
"259 711 OFFCURVE",
"193 711 CURVE SMOOTH",
"117 711 OFFCURVE",
"94 512 OFFCURVE",
"94 9 CURVE SMOOTH",
"94 3 OFFCURVE",
"106 0 OFFCURVE",
"110 0 CURVE SMOOTH",
"119 0 OFFCURVE",
"126 4 OFFCURVE",
"126 10 CURVE SMOOTH",
"126 300 OFFCURVE",
"132 682 OFFCURVE",
"195 682 CURVE SMOOTH",
"222 682 OFFCURVE",
"279 611 OFFCURVE",
"309 540 CURVE SMOOTH",
"339 469 OFFCURVE",
"362 357 OFFCURVE",
"385 282 CURVE SMOOTH",
"388 272 OFFCURVE",
"393 268 OFFCURVE",
"402 268 CURVE SMOOTH",
"413 268 OFFCURVE",
"417 275 OFFCURVE",
"418 287 CURVE SMOOTH",
"429 376 OFFCURVE",
"454 463 OFFCURVE",
"494 541 CURVE SMOOTH",
"548 646 OFFCURVE",
"594 678 OFFCURVE",
"619 678 CURVE SMOOTH",
"646 678 OFFCURVE",
"674 424 OFFCURVE",
"678 12 CURVE SMOOTH",
"678 3 OFFCURVE",
"683 -5 OFFCURVE",
"694 -5 CURVE SMOOTH"
);
}
);
width = 813;
}
);
note = M;
unicode = 004D;
},
{
glyphname = N;
lastChange = "2018-01-22 16:25:20 +0000";
layers = (
{
anchors = (
{
name = bottom;
position = "{373, 0}";
},
{
name = top;
position = "{373, 700}";
}
);
layerId = "0B1DFD06-3317-40CA-B510-4969A0718C16";
paths = (
{
closed = 1;
nodes = (
"650 14 OFFCURVE",
"651 305 OFFCURVE",
"651 464 CURVE SMOOTH",
"651 691 LINE SMOOTH",
"651 703 OFFCURVE",
"648 711 OFFCURVE",
"636 711 CURVE SMOOTH",
"626 711 OFFCURVE",
"620 705 OFFCURVE",
"620 694 CURVE SMOOTH",
"617 345 OFFCURVE",
"614 49 OFFCURVE",
"592 49 CURVE SMOOTH",
"577 49 OFFCURVE",
"468 199 OFFCURVE",
"358 377 CURVE SMOOTH",
"278 507 OFFCURVE",
"168 704 OFFCURVE",
"120 704 CURVE SMOOTH",
"98 704 OFFCURVE",
"94 661 OFFCURVE",
"94 552 CURVE SMOOTH",
"94 518 OFFCURVE",
"96 198 OFFCURVE",
"96 140 CURVE SMOOTH",
"96 85 OFFCURVE",
"96 56 OFFCURVE",
"96 23 CURVE SMOOTH",
"96 16 OFFCURVE",
"105 12 OFFCURVE",
"112 12 CURVE SMOOTH",
"121 12 OFFCURVE",
"128 18 OFFCURVE",
"128 23 CURVE SMOOTH",
"128 92 OFFCURVE",
"126 307 OFFCURVE",
"126 469 CURVE SMOOTH",
"126 566 OFFCURVE",
"127 643 OFFCURVE",
"129 658 CURVE",
"154 648 OFFCURVE",
"160 633 OFFCURVE",
"337 351 CURVE SMOOTH",
"427 208 OFFCURVE",
"548 14 OFFCURVE",
"594 14 CURVE SMOOTH"
);
}
);
width = 745;
}
);
note = N;
unicode = 004E;
},
{
glyphname = O;
lastChange = "2018-01-22 16:59:29 +0000";
layers = (
{
anchors = (
{
name = bottom;
position = "{390, 0}";
},
{
name = center;
position = "{390, 350}";
},
{
name = ogonek;
position = "{701, 10}";
},
{
name = top;
position = "{390, 700}";
},
{
name = topleft;
position = "{20, 700}";
},
{
name = topright;
position = "{671, 518}";
}
);
layerId = "0B1DFD06-3317-40CA-B510-4969A0718C16";
paths = (
{
closed = 1;
nodes = (
"544 10 OFFCURVE",
"722 104 OFFCURVE",
"722 331 CURVE SMOOTH",
"722 559 OFFCURVE",
"568 705 OFFCURVE",
"377 705 CURVE SMOOTH",
"181 705 OFFCURVE",
"56 552 OFFCURVE",
"56 341 CURVE SMOOTH",
"56 96 OFFCURVE",
"224 10 OFFCURVE",
"380 10 CURVE SMOOTH"
);
},
{
closed = 1;
nodes = (
"266 41 OFFCURVE",
"87 104 OFFCURVE",
"87 343 CURVE SMOOTH",
"87 545 OFFCURVE",
"216 674 OFFCURVE",
"382 674 CURVE SMOOTH",
"557 674 OFFCURVE",
"692 529 OFFCURVE",
"692 335 CURVE SMOOTH",
"692 112 OFFCURVE",
"516 41 OFFCURVE",
"387 41 CURVE SMOOTH"
);
}
);
width = 779;
}
);
note = O;
unicode = 004F;
},
{
glyphname = P;
lastChange = "2018-01-22 16:25:20 +0000";
layers = (
{
anchors = (
{
name = bottom;
position = "{288, 0}";
},
{
name = top;
position = "{288, 700}";
}
);
layerId = "0B1DFD06-3317-40CA-B510-4969A0718C16";
paths = (
{
closed = 1;
nodes = (
"113 -6 OFFCURVE",
"120 1 OFFCURVE",
"120 10 CURVE SMOOTH",
"124 308 LINE",
"178 288 OFFCURVE",
"243 277 OFFCURVE",
"295 277 CURVE SMOOTH",
"433 277 OFFCURVE",
"547 354 OFFCURVE",
"547 484 CURVE SMOOTH",
"547 629 OFFCURVE",
"406 704 OFFCURVE",
"285 704 CURVE SMOOTH",
"183 704 OFFCURVE",
"75 643 OFFCURVE",
"54 628 CURVE SMOOTH",
"47 623 OFFCURVE",
"48 614 OFFCURVE",
"50 611 CURVE SMOOTH",
"53 607 OFFCURVE",
"59 603 OFFCURVE",
"66 607 CURVE SMOOTH",
"123 639 OFFCURVE",
"188 673 OFFCURVE",
"277 673 CURVE SMOOTH",
"402 673 OFFCURVE",
"515 599 OFFCURVE",
"515 488 CURVE SMOOTH",
"515 380 OFFCURVE",
"409 308 OFFCURVE",
"289 308 CURVE SMOOTH",
"233 308 OFFCURVE",
"177 324 OFFCURVE",
"123 343 CURVE",
"120 432 OFFCURVE",
"119 467 OFFCURVE",
"118 497 CURVE SMOOTH",
"115 598 OFFCURVE",
"112 683 OFFCURVE",
"112 689 CURVE SMOOTH",
"112 704 OFFCURVE",
"104 705 OFFCURVE",
"97 705 CURVE SMOOTH",
"85 705 OFFCURVE",
"82 697 OFFCURVE",
"82 689 CURVE SMOOTH",
"82 689 OFFCURVE",
"83 655 OFFCURVE",
"91 354 CURVE SMOOTH",
"97 143 OFFCURVE",
"87 35 OFFCURVE",
"87 15 CURVE SMOOTH",
"87 -1 OFFCURVE",
"93 -6 OFFCURVE",
"105 -6 CURVE SMOOTH"
);
}
);
width = 576;
}
);
note = P;
unicode = 0050;
},
{
glyphname = Q;
lastChange = "2018-01-22 16:25:20 +0000";
layers = (
{
anchors = (
{
name = bottom;
position = "{383, 0}";
},
{
name = top;
position = "{383, 700}";
}
);
layerId = "0B1DFD06-3317-40CA-B510-4969A0718C16";
paths = (
{
closed = 1;
nodes = (
"555 15 OFFCURVE",
"709 153 OFFCURVE",
"709 359 CURVE SMOOTH",
"709 578 OFFCURVE",
"536 709 OFFCURVE",
"378 709 CURVE SMOOTH",
"226 709 OFFCURVE",
"54 588 OFFCURVE",
"54 350 CURVE SMOOTH",
"54 152 OFFCURVE",
"173 15 OFFCURVE",
"364 15 CURVE SMOOTH"
);
},
{
closed = 1;
nodes = (
"679 22 OFFCURVE",
"690 20 OFFCURVE",
"696 30 CURVE SMOOTH",
"702 39 OFFCURVE",
"701 47 OFFCURVE",
"694 54 CURVE SMOOTH",
"634 115 OFFCURVE",
"512 239 OFFCURVE",
"506 242 CURVE SMOOTH",
"499 246 OFFCURVE",
"493 245 OFFCURVE",
"487 241 CURVE SMOOTH",
"479 235 OFFCURVE",
"476 224 OFFCURVE",
"482 218 CURVE SMOOTH",
"639 58 OFFCURVE",
"658 37 OFFCURVE",
"676 24 CURVE SMOOTH"
);
},
{
closed = 1;
nodes = (
"194 46 OFFCURVE",
"86 175 OFFCURVE",
"86 348 CURVE SMOOTH",
"86 559 OFFCURVE",
"247 678 OFFCURVE",
"382 678 CURVE SMOOTH",
"526 678 OFFCURVE",
"677 542 OFFCURVE",
"677 354 CURVE SMOOTH",
"677 177 OFFCURVE",
"535 46 OFFCURVE",
"364 46 CURVE SMOOTH"
);
}
);
width = 766;
}
);
note = Q;
unicode = 0051;
},
{
glyphname = R;
lastChange = "2018-01-22 16:25:20 +0000";
layers = (
{
anchors = (
{
name = bottom;
position = "{311, 0}";
},
{
name = top;
position = "{311, 700}";
}
);
layerId = "0B1DFD06-3317-40CA-B510-4969A0718C16";
paths = (
{
closed = 1;
nodes = (
"111 -4 OFFCURVE",
"120 -1 OFFCURVE",
"120 12 CURVE SMOOTH",
"120 128 OFFCURVE",
"121 192 OFFCURVE",
"121 290 CURVE",
"502 23 LINE SMOOTH",
"506 20 OFFCURVE",
"514 15 OFFCURVE",
"520 15 CURVE SMOOTH",
"527 15 OFFCURVE",
"535 26 OFFCURVE",
"535 33 CURVE SMOOTH",
"535 40 OFFCURVE",
"533 43 OFFCURVE",
"527 47 CURVE SMOOTH",
"133 320 LINE",
"169 303 OFFCURVE",
"212 293 OFFCURVE",
"270 293 CURVE SMOOTH",
"415 293 OFFCURVE",
"549 356 OFFCURVE",
"549 497 CURVE SMOOTH",
"549 631 OFFCURVE",
"427 699 OFFCURVE",
"308 699 CURVE SMOOTH",
"205 699 OFFCURVE",
"95 652 OFFCURVE",
"57 632 CURVE SMOOTH",
"49 627 OFFCURVE",
"45 624 OFFCURVE",
"45 618 CURVE SMOOTH",
"45 610 OFFCURVE",
"51 601 OFFCURVE",
"59 601 CURVE SMOOTH",
"61 601 OFFCURVE",
"64 602 OFFCURVE",
"67 603 CURVE SMOOTH",
"150 644 OFFCURVE",
"218 667 OFFCURVE",
"294 667 CURVE SMOOTH",
"424 667 OFFCURVE",
"518 596 OFFCURVE",
"518 495 CURVE SMOOTH",
"518 379 OFFCURVE",
"392 324 OFFCURVE",
"268 324 CURVE SMOOTH",
"206 324 OFFCURVE",
"156 338 OFFCURVE",
"121 355 CURVE",
"111 485 OFFCURVE",
"110 645 OFFCURVE",
"110 688 CURVE SMOOTH",
"110 697 OFFCURVE",
"105 701 OFFCURVE",
"93 701 CURVE SMOOTH",
"84 701 OFFCURVE",
"79 698 OFFCURVE",
"79 686 CURVE SMOOTH",
"79 646 OFFCURVE",
"89 423 OFFCURVE",
"89 355 CURVE SMOOTH",
"89 266 OFFCURVE",
"90 211 OFFCURVE",
"90 170 CURVE SMOOTH",
"90 110 OFFCURVE",
"89 80 OFFCURVE",
"86 20 CURVE SMOOTH",
"85 1 OFFCURVE",
"94 -4 OFFCURVE",
"106 -4 CURVE SMOOTH"
);
}
);
width = 621;
}
);
note = R;
unicode = 0052;
},
{
glyphname = S;
lastChange = "2018-01-22 16:25:20 +0000";
layers = (
{
anchors = (
{
name = bottom;
position = "{264, 0}";
},
{
name = top;
position = "{264, 700}";
}
);
layerId = "0B1DFD06-3317-40CA-B510-4969A0718C16";
paths = (
{
closed = 1;
nodes = (
"386 2 OFFCURVE",
"468 63 OFFCURVE",
"468 172 CURVE SMOOTH",
"468 303 OFFCURVE",
"349 341 OFFCURVE",
"281 361 CURVE SMOOTH",
"189 388 OFFCURVE",
"94 418 OFFCURVE",
"94 520 CURVE SMOOTH",
"94 611 OFFCURVE",
"172 676 OFFCURVE",
"282 676 CURVE SMOOTH",
"390 676 OFFCURVE",
"434 594 OFFCURVE",
"434 519 CURVE SMOOTH",
"434 508 OFFCURVE",
"441 505 OFFCURVE",
"449 505 CURVE SMOOTH",
"459 505 OFFCURVE",
"462 512 OFFCURVE",
"462 528 CURVE SMOOTH",
"462 630 OFFCURVE",
"384 706 OFFCURVE",
"269 706 CURVE SMOOTH",
"156 706 OFFCURVE",
"64 634 OFFCURVE",
"64 519 CURVE SMOOTH",
"64 388 OFFCURVE",
"185 355 OFFCURVE",
"256 336 CURVE SMOOTH",
"366 306 OFFCURVE",
"436 267 OFFCURVE",
"436 162 CURVE SMOOTH",
"436 121 OFFCURVE",
"403 33 OFFCURVE",
"284 33 CURVE SMOOTH",
"176 33 OFFCURVE",
"97 97 OFFCURVE",
"97 211 CURVE SMOOTH",
"97 220 OFFCURVE",
"95 227 OFFCURVE",
"83 227 CURVE SMOOTH",
"68 227 OFFCURVE",
"66 219 OFFCURVE",
"66 204 CURVE SMOOTH",
"66 98 OFFCURVE",
"144 2 OFFCURVE",
"279 2 CURVE SMOOTH"
);
}
);
width = 528;
}
);
note = S;
unicode = 0053;
},
{
glyphname = T;
lastChange = "2018-01-22 16:25:20 +0000";
layers = (
{
anchors = (
{
name = bottom;
position = "{274, 0}";
},
{
name = center;
position = "{274, 350}";
},
{
name = top;
position = "{274, 700}";
}
);
layerId = "0B1DFD06-3317-40CA-B510-4969A0718C16";
paths = (
{
closed = 1;
nodes = (
"271 0 OFFCURVE",
"272 5 OFFCURVE",
"272 61 CURVE SMOOTH",
"272 139 OFFCURVE",
"279 359 OFFCURVE",
"295 671 CURVE",
"264 671 LINE",
"260 605 OFFCURVE",
"238 95 OFFCURVE",
"238 23 CURVE SMOOTH",
"238 7 OFFCURVE",
"239 0 OFFCURVE",
"256 0 CURVE SMOOTH"
);
},
{
closed = 1;
nodes = (
"159 658 OFFCURVE",
"209 664 OFFCURVE",
"292 664 CURVE SMOOTH",
"358 664 OFFCURVE",
"416 661 OFFCURVE",
"489 655 CURVE SMOOTH",
"500 654 OFFCURVE",
"503 663 OFFCURVE",
"503 670 CURVE SMOOTH",
"503 680 OFFCURVE",
"498 686 OFFCURVE",
"487 687 CURVE SMOOTH",
"427 692 OFFCURVE",
"354 694 OFFCURVE",
"290 694 CURVE SMOOTH",
"199 694 OFFCURVE",
"128 690 OFFCURVE",
"58 682 CURVE SMOOTH",
"49 681 OFFCURVE",
"46 675 OFFCURVE",
"46 667 CURVE SMOOTH",
"46 656 OFFCURVE",
"52 650 OFFCURVE",
"60 651 CURVE SMOOTH"
);
}
);
width = 547;
}
);
note = T;
unicode = 0054;
},
{
glyphname = U;
lastChange = "2018-01-22 16:25:20 +0000";
layers = (
{
anchors = (
{
name = bottom;
position = "{328, 0}";
},
{
name = ogonek;
position = "{590, 10}";
},
{
name = top;
position = "{328, 700}";
},
{
name = topright;
position = "{636, 700}";
}
);
layerId = "0B1DFD06-3317-40CA-B510-4969A0718C16";
paths = (
{
closed = 1;
nodes = (
"423 3 OFFCURVE",
"511 56 OFFCURVE",
"536 127 CURVE",
"539 93 OFFCURVE",
"540 54 OFFCURVE",
"540 21 CURVE SMOOTH",
"540 5 OFFCURVE",
"545 -1 OFFCURVE",
"556 -1 CURVE SMOOTH",
"569 -1 OFFCURVE",
"573 8 OFFCURVE",
"573 20 CURVE SMOOTH",
"566 691 LINE SMOOTH",
"566 702 OFFCURVE",
"560 707 OFFCURVE",
"549 707 CURVE SMOOTH",
"538 707 OFFCURVE",
"535 701 OFFCURVE",
"535 689 CURVE SMOOTH",
"538 314 LINE SMOOTH",
"539 155 OFFCURVE",
"482 35 OFFCURVE",
"322 35 CURVE SMOOTH",
"183 35 OFFCURVE",
"112 125 OFFCURVE",
"112 279 CURVE SMOOTH",
"112 288 OFFCURVE",
"118 497 OFFCURVE",
"118 684 CURVE SMOOTH",
"118 694 OFFCURVE",
"114 700 OFFCURVE",
"102 700 CURVE SMOOTH",
"91 700 OFFCURVE",
"87 696 OFFCURVE",
"87 686 CURVE SMOOTH",
"87 678 OFFCURVE",
"80 283 OFFCURVE",
"80 248 CURVE SMOOTH",
"80 153 OFFCURVE",
"131 3 OFFCURVE",
"314 3 CURVE SMOOTH"
);
}
);
width = 656;
}
);
note = U;
unicode = 0055;
},
{
glyphname = V;
lastChange = "2018-01-22 16:25:20 +0000";
layers = (
{
anchors = (
{
name = bottom;
position = "{332, 0}";
},
{
name = top;
position = "{332, 700}";
}
);
layerId = "0B1DFD06-3317-40CA-B510-4969A0718C16";
paths = (
{
closed = 1;
nodes = (
"360 1 OFFCURVE",
"380 15 OFFCURVE",
"392 40 CURVE SMOOTH",
"407 71 OFFCURVE",
"479 309 OFFCURVE",
"500 383 CURVE SMOOTH",
"511 422 OFFCURVE",
"560 595 OFFCURVE",
"583 684 CURVE SMOOTH",
"586 696 OFFCURVE",
"583 706 OFFCURVE",
"569 706 CURVE SMOOTH",
"560 706 OFFCURVE",
"557 702 OFFCURVE",
"554 693 CURVE SMOOTH",
"468 382 LINE SMOOTH",
"370 58 OFFCURVE",
"365 33 OFFCURVE",
"334 32 CURVE SMOOTH",
"304 32 OFFCURVE",
"294 56 OFFCURVE",
"189 382 CURVE SMOOTH",
"98 693 LINE SMOOTH",
"95 703 OFFCURVE",
"92 706 OFFCURVE",
"81 706 CURVE SMOOTH",
"74 706 OFFCURVE",
"67 699 OFFCURVE",
"68 695 CURVE SMOOTH",
"72 682 OFFCURVE",
"149 406 OFFCURVE",
"156 383 CURVE SMOOTH",
"204 226 OFFCURVE",
"261 67 OFFCURVE",
"275 40 CURVE SMOOTH",
"289 13 OFFCURVE",
"309 1 OFFCURVE",
"333 1 CURVE SMOOTH"
);
}
);
width = 663;
}
);
note = V;
unicode = 0056;
},
{
glyphname = W;
lastChange = "2018-01-22 16:25:20 +0000";
layers = (
{
anchors = (
{
name = bottom;
position = "{448, 0}";
},
{
name = top;
position = "{448, 700}";
}
);
layerId = "0B1DFD06-3317-40CA-B510-4969A0718C16";
paths = (
{
closed = 1;
nodes = (
"299 4 OFFCURVE",
"307 15 OFFCURVE",
"314 31 CURVE SMOOTH",
"334 74 OFFCURVE",
"341 88 OFFCURVE",
"453 331 CURVE",
"604 31 LINE SMOOTH",
"611 17 OFFCURVE",
"625 6 OFFCURVE",
"640 6 CURVE SMOOTH",
"654 6 OFFCURVE",
"665 15 OFFCURVE",
"668 30 CURVE SMOOTH",
"697 177 OFFCURVE",
"717 278 OFFCURVE",
"764 468 CURVE SMOOTH",
"782 541 OFFCURVE",
"791 576 OFFCURVE",
"819 679 CURVE SMOOTH",
"822 691 OFFCURVE",
"818 701 OFFCURVE",
"808 701 CURVE SMOOTH",
"800 701 OFFCURVE",
"792 698 OFFCURVE",
"790 689 CURVE SMOOTH",
"770 614 OFFCURVE",
"765 595 OFFCURVE",
"714 388 CURVE SMOOTH",
"695 310 OFFCURVE",
"665 144 OFFCURVE",
"635 41 CURVE",
"554 203 OFFCURVE",
"516 276 OFFCURVE",
"487 337 CURVE SMOOTH",
"468 377 OFFCURVE",
"463 390 OFFCURVE",
"453 390 CURVE SMOOTH",
"441 390 OFFCURVE",
"432 368 OFFCURVE",
"418 336 CURVE SMOOTH",
"370 229 OFFCURVE",
"363 214 OFFCURVE",
"281 38 CURVE",
"270 85 OFFCURVE",
"244 194 OFFCURVE",
"201 359 CURVE SMOOTH",
"183 428 OFFCURVE",
"124 630 OFFCURVE",
"108 684 CURVE SMOOTH",
"104 698 OFFCURVE",
"98 701 OFFCURVE",
"89 701 CURVE SMOOTH",
"73 701 OFFCURVE",
"74 691 OFFCURVE",
"78 679 CURVE SMOOTH",
"92 635 OFFCURVE",
"120 543 OFFCURVE",
"136 485 CURVE SMOOTH",
"171 357 OFFCURVE",
"226 132 OFFCURVE",
"252 25 CURVE SMOOTH",
"255 13 OFFCURVE",
"263 4 OFFCURVE",
"280 4 CURVE SMOOTH"
);
}
);
width = 895;
}
);
note = W;
unicode = 0057;
},
{
glyphname = X;
lastChange = "2018-01-22 16:25:20 +0000";
layers = (
{
anchors = (
{
name = bottom;
position = "{333, 0}";
},
{
name = top;
position = "{333, 700}";
}
);
layerId = "0B1DFD06-3317-40CA-B510-4969A0718C16";
paths = (
{
closed = 1;
nodes = (
"569 2 OFFCURVE",
"578 -3 OFFCURVE",
"586 2 CURVE SMOOTH",
"594 7 OFFCURVE",
"598 16 OFFCURVE",
"592 24 CURVE SMOOTH",
"410 272 OFFCURVE",
"123 661 OFFCURVE",
"108 682 CURVE SMOOTH",
"99 694 OFFCURVE",
"93 697 OFFCURVE",
"88 697 CURVE SMOOTH",
"79 697 OFFCURVE",
"72 691 OFFCURVE",
"72 682 CURVE SMOOTH",
"72 679 OFFCURVE",
"73 675 OFFCURVE",
"76 671 CURVE SMOOTH",
"148 572 OFFCURVE",
"549 21 OFFCURVE",
"562 8 CURVE SMOOTH"
);
},
{
closed = 1;
nodes = (
"92 3 OFFCURVE",
"98 12 OFFCURVE",
"108 25 CURVE SMOOTH",
"585 662 LINE SMOOTH",
"592 671 OFFCURVE",
"595 678 OFFCURVE",
"595 681 CURVE SMOOTH",
"595 690 OFFCURVE",
"587 695 OFFCURVE",
"576 695 CURVE SMOOTH",
"570 695 OFFCURVE",
"563 689 OFFCURVE",
"553 675 CURVE SMOOTH",
"74 36 LINE SMOOTH",
"71 32 OFFCURVE",
"64 26 OFFCURVE",
"64 18 CURVE SMOOTH",
"64 11 OFFCURVE",
"70 3 OFFCURVE",
"78 3 CURVE SMOOTH"
);
}
);
width = 666;
}
);
note = X;
unicode = 0058;
},
{
glyphname = Y;
lastChange = "2018-01-22 16:25:20 +0000";
layers = (
{
anchors = (
{
name = bottom;
position = "{328, 0}";
},
{
name = top;
position = "{328, 700}";
},
{
name = topleft;
position = "{20, 700}";
}
);
layerId = "0B1DFD06-3317-40CA-B510-4969A0718C16";
paths = (
{
closed = 1;
nodes = (
"313 11 OFFCURVE",
"317 5 OFFCURVE",
"329 5 CURVE SMOOTH",
"341 5 OFFCURVE",
"345 11 OFFCURVE",
"345 26 CURVE SMOOTH",
"341 329 LINE",
"368 332 OFFCURVE",
"420 386 OFFCURVE",
"462 456 CURVE SMOOTH",
"483 491 OFFCURVE",
"520 563 OFFCURVE",
"570 675 CURVE SMOOTH",
"577 691 OFFCURVE",
"565 696 OFFCURVE",
"557 696 CURVE SMOOTH",
"542 696 OFFCURVE",
"541 686 OFFCURVE",
"538 679 CURVE SMOOTH",
"515 625 OFFCURVE",
"487 560 OFFCURVE",
"443 486 CURVE SMOOTH",
"395 405 OFFCURVE",
"355 358 OFFCURVE",
"327 358 CURVE SMOOTH",
"292 358 OFFCURVE",
"248 428 OFFCURVE",
"211 485 CURVE SMOOTH",
"171 547 OFFCURVE",
"148 600 OFFCURVE",
"117 675 CURVE SMOOTH",
"112 687 OFFCURVE",
"109 698 OFFCURVE",
"96 698 CURVE SMOOTH",
"85 698 OFFCURVE",
"81 689 OFFCURVE",
"84 679 CURVE SMOOTH",
"91 656 OFFCURVE",
"131 556 OFFCURVE",
"178 479 CURVE SMOOTH",
"219 412 OFFCURVE",
"282 333 OFFCURVE",
"310 329 CURVE",
"313 23 LINE SMOOTH"
);
}
);
width = 655;
}
);
note = Y;
unicode = 0059;
},
{
glyphname = Z;
lastChange = "2018-01-22 16:25:20 +0000";
layers = (
{
anchors = (
{
name = bottom;
position = "{327, 0}";
},
{
name = top;
position = "{327, 700}";
}
);
layerId = "0B1DFD06-3317-40CA-B510-4969A0718C16";
paths = (
{
closed = 1;
nodes = (
"585 14 OFFCURVE",
"587 23 OFFCURVE",
"587 26 CURVE SMOOTH",
"587 33 OFFCURVE",
"585 46 OFFCURVE",
"575 49 CURVE SMOOTH",
"542 59 OFFCURVE",
"411 61 OFFCURVE",
"328 61 CURVE SMOOTH",
"226 61 OFFCURVE",
"130 52 OFFCURVE",
"85 52 CURVE",
"98 73 OFFCURVE",
"117 95 OFFCURVE",
"289 279 CURVE SMOOTH",
"348 342 OFFCURVE",
"599 612 OFFCURVE",
"620 655 CURVE SMOOTH",
"625 665 OFFCURVE",
"624 677 OFFCURVE",
"614 685 CURVE SMOOTH",
"607 691 OFFCURVE",
"594 695 OFFCURVE",
"585 694 CURVE SMOOTH",
"459 683 OFFCURVE",
"406 679 OFFCURVE",
"326 679 CURVE SMOOTH",
"253 679 OFFCURVE",
"203 688 OFFCURVE",
"118 698 CURVE SMOOTH",
"99 700 OFFCURVE",
"87 695 OFFCURVE",
"87 683 CURVE SMOOTH",
"87 676 OFFCURVE",
"90 669 OFFCURVE",
"98 668 CURVE SMOOTH",
"116 665 OFFCURVE",
"244 648 OFFCURVE",
"369 648 CURVE SMOOTH",
"451 648 OFFCURVE",
"503 654 OFFCURVE",
"583 660 CURVE",
"533 591 OFFCURVE",
"466 517 OFFCURVE",
"336 376 CURVE SMOOTH",
"218 248 OFFCURVE",
"95 135 OFFCURVE",
"55 65 CURVE SMOOTH",
"51 58 OFFCURVE",
"46 48 OFFCURVE",
"46 40 CURVE SMOOTH",
"46 22 OFFCURVE",
"68 21 OFFCURVE",
"100 21 CURVE SMOOTH",
"194 21 OFFCURVE",
"280 30 OFFCURVE",
"378 30 CURVE SMOOTH",
"424 30 OFFCURVE",
"485 28 OFFCURVE",
"570 15 CURVE"
);
}
);
width = 653;
}
);
note = Z;
unicode = 005A;
},
{
glyphname = a;
lastChange = "2018-01-22 16:25:20 +0000";
layers = (
{
anchors = (
{
name = bottom;
position = "{318, 0}";
},
{
name = ogonek;
position = "{572, 10}";
},
{
name = top;
position = "{318, 470}";
}
);
layerId = "0B1DFD06-3317-40CA-B510-4969A0718C16";
paths = (
{
closed = 1;
nodes = (
"364 -7 OFFCURVE",
"425 21 OFFCURVE",
"458 73 CURVE",
"472 19 OFFCURVE",
"493 6 OFFCURVE",
"547 3 CURVE SMOOTH",
"551 3 OFFCURVE",
"557 8 OFFCURVE",
"557 23 CURVE SMOOTH",
"557 31 OFFCURVE",
"556 36 OFFCURVE",
"541 38 CURVE SMOOTH",
"496 44 OFFCURVE",
"489 40 OFFCURVE",
"489 155 CURVE SMOOTH",
"489 196 OFFCURVE",
"490 315 OFFCURVE",
"495 390 CURVE SMOOTH",
"498 427 OFFCURVE",
"500 441 OFFCURVE",
"506 470 CURVE SMOOTH",
"508 478 OFFCURVE",
"498 485 OFFCURVE",
"486 485 CURVE SMOOTH",
"475 485 OFFCURVE",
"474 479 OFFCURVE",
"472 467 CURVE SMOOTH",
"462 399 LINE",
"420 460 OFFCURVE",
"360 491 OFFCURVE",
"289 491 CURVE SMOOTH",
"133 491 OFFCURVE",
"70 352 OFFCURVE",
"70 234 CURVE SMOOTH",
"70 152 OFFCURVE",
"101 -7 OFFCURVE",
"295 -7 CURVE SMOOTH"
);
},
{
closed = 1;
nodes = (
"129 24 OFFCURVE",
"101 170 OFFCURVE",
"101 235 CURVE SMOOTH",
"101 313 OFFCURVE",
"142 460 OFFCURVE",
"293 460 CURVE SMOOTH",
"339 460 OFFCURVE",
"457 430 OFFCURVE",
"457 319 CURVE SMOOTH",
"457 268 OFFCURVE",
"457 217 OFFCURVE",
"456 168 CURVE SMOOTH",
"454 75 OFFCURVE",
"377 24 OFFCURVE",
"285 24 CURVE SMOOTH"
);
}
);
width = 636;
}
);
note = a;
unicode = 0061;
},
{
glyphname = b;
lastChange = "2018-01-22 16:25:20 +0000";
layers = (
{
anchors = (
{
name = bottom;
position = "{319, 0}";
},
{
name = top;
position = "{319, 470}";
}
);
layerId = "0B1DFD06-3317-40CA-B510-4969A0718C16";
paths = (
{
closed = 1;
nodes = (
"396 -7 OFFCURVE",
"561 37 OFFCURVE",
"561 250 CURVE SMOOTH",
"561 408 OFFCURVE",
"470 500 OFFCURVE",
"305 500 CURVE SMOOTH",
"220 500 OFFCURVE",
"157 476 OFFCURVE",
"110 425 CURVE",
"110 432 OFFCURVE",
"109 572 OFFCURVE",
"105 634 CURVE SMOOTH",
"102 686 OFFCURVE",
"92 856 OFFCURVE",
"91 874 CURVE SMOOTH",
"90 885 OFFCURVE",
"87 892 OFFCURVE",
"76 892 CURVE SMOOTH",
"66 892 OFFCURVE",
"59 886 OFFCURVE",
"60 876 CURVE SMOOTH",
"69 708 OFFCURVE",
"74 636 OFFCURVE",
"78 390 CURVE SMOOTH",
"81 235 OFFCURVE",
"84 131 OFFCURVE",
"72 84 CURVE SMOOTH",
"63 49 OFFCURVE",
"41 40 OFFCURVE",
"37 36 CURVE SMOOTH",
"28 28 OFFCURVE",
"30 21 OFFCURVE",
"35 15 CURVE SMOOTH",
"42 7 OFFCURVE",
"49 8 OFFCURVE",
"55 10 CURVE SMOOTH",
"74 16 OFFCURVE",
"102 50 OFFCURVE",
"107 95 CURVE",
"161 30 OFFCURVE",
"251 -9 OFFCURVE",
"314 -7 CURVE"
);
},
{
closed = 1;
nodes = (
"225 24 OFFCURVE",
"112 90 OFFCURVE",
"109 190 CURVE",
"108 218 OFFCURVE",
"108 335 OFFCURVE",
"110 374 CURVE",
"149 437 OFFCURVE",
"227 469 OFFCURVE",
"310 469 CURVE SMOOTH",
"438 469 OFFCURVE",
"530 392 OFFCURVE",
"530 247 CURVE SMOOTH",
"530 77 OFFCURVE",
"402 24 OFFCURVE",
"318 24 CURVE SMOOTH"
);
}
);
width = 638;
}
);
note = b;
unicode = 0062;
},
{
glyphname = c;
lastChange = "2018-01-22 16:25:20 +0000";
layers = (
{
anchors = (
{
name = bottom;
position = "{291, 0}";
},
{
name = top;
position = "{291, 470}";
}
);
layerId = "0B1DFD06-3317-40CA-B510-4969A0718C16";
paths = (
{
closed = 1;
nodes = (
"474 2 OFFCURVE",
"535 125 OFFCURVE",
"535 183 CURVE SMOOTH",
"535 202 OFFCURVE",
"528 205 OFFCURVE",
"520 205 CURVE SMOOTH",
"510 205 OFFCURVE",
"507 199 OFFCURVE",
"507 188 CURVE SMOOTH",
"507 136 OFFCURVE",
"452 33 OFFCURVE",
"306 33 CURVE SMOOTH",
"161 33 OFFCURVE",
"94 136 OFFCURVE",
"94 243 CURVE SMOOTH",
"94 357 OFFCURVE",
"170 481 OFFCURVE",
"314 481 CURVE SMOOTH",
"378 481 OFFCURVE",
"453 456 OFFCURVE",
"492 372 CURVE SMOOTH",
"497 360 OFFCURVE",
"501 355 OFFCURVE",
"510 355 CURVE SMOOTH",
"519 355 OFFCURVE",
"522 360 OFFCURVE",
"521 371 CURVE SMOOTH",
"516 420 OFFCURVE",
"443 512 OFFCURVE",
"308 512 CURVE SMOOTH",
"138 512 OFFCURVE",
"63 366 OFFCURVE",
"63 241 CURVE SMOOTH",
"63 122 OFFCURVE",
"132 2 OFFCURVE",
"302 2 CURVE SMOOTH"
);
}
);
width = 582;
}
);
note = c;
unicode = 0063;
},
{
glyphname = d;
lastChange = "2018-01-22 16:25:20 +0000";
layers = (
{
anchors = (
{
name = bottom;
position = "{318, 0}";
},
{
name = center;
position = "{318, 235}";
},
{
name = top;
position = "{318, 470}";
},
{
name = topright;
position = "{615, 470}";
}
);
layerId = "0B1DFD06-3317-40CA-B510-4969A0718C16";
paths = (
{
closed = 1;
nodes = (
"378 -7 OFFCURVE",
"468 30 OFFCURVE",
"522 95 CURVE",
"527 50 OFFCURVE",
"555 16 OFFCURVE",
"574 10 CURVE SMOOTH",
"580 8 OFFCURVE",
"589 8 OFFCURVE",
"595 16 CURVE SMOOTH",
"598 20 OFFCURVE",
"601 27 OFFCURVE",
"592 36 CURVE SMOOTH",
"588 40 OFFCURVE",
"566 49 OFFCURVE",
"557 84 CURVE SMOOTH",
"545 131 OFFCURVE",
"548 235 OFFCURVE",
"551 390 CURVE SMOOTH",
"557 698 OFFCURVE",
"560 790 OFFCURVE",
"569 876 CURVE SMOOTH",
"570 886 OFFCURVE",
"563 892 OFFCURVE",
"553 892 CURVE SMOOTH",
"542 892 OFFCURVE",
"539 885 OFFCURVE",
"538 874 CURVE SMOOTH",
"536 856 OFFCURVE",
"526 686 OFFCURVE",
"524 634 CURVE SMOOTH",
"522 572 OFFCURVE",
"520 432 OFFCURVE",
"520 425 CURVE",
"473 476 OFFCURVE",
"409 500 OFFCURVE",
"324 500 CURVE SMOOTH",
"159 500 OFFCURVE",
"68 408 OFFCURVE",
"68 250 CURVE SMOOTH",
"68 37 OFFCURVE",
"232 -7 OFFCURVE",
"315 -7 CURVE"
);
},
{
closed = 1;
nodes = (
"227 24 OFFCURVE",
"99 77 OFFCURVE",
"99 247 CURVE SMOOTH",
"99 392 OFFCURVE",
"191 469 OFFCURVE",
"319 469 CURVE SMOOTH",
"402 469 OFFCURVE",
"481 437 OFFCURVE",
"520 374 CURVE",
"522 335 OFFCURVE",
"521 218 OFFCURVE",
"520 190 CURVE",
"517 90 OFFCURVE",
"404 24 OFFCURVE",
"311 24 CURVE SMOOTH"
);
}
);
width = 635;
}
);
note = d;
unicode = 0064;
},
{
glyphname = e;
lastChange = "2018-01-22 16:25:20 +0000";
layers = (
{
anchors = (
{
name = bottom;
position = "{317, 0}";
},
{
name = ogonek;
position = "{571, 10}";
},
{
name = top;
position = "{317, 470}";
}
);
layerId = "0B1DFD06-3317-40CA-B510-4969A0718C16";
paths = (
{
closed = 1;
nodes = (
"408 0 OFFCURVE",
"484 39 OFFCURVE",
"531 116 CURVE SMOOTH",
"538 127 OFFCURVE",
"539 135 OFFCURVE",
"530 141 CURVE SMOOTH",
"521 147 OFFCURVE",
"512 146 OFFCURVE",
"509 141 CURVE SMOOTH",
"488 106 OFFCURVE",
"442 31 OFFCURVE",
"322 31 CURVE SMOOTH",
"200 31 OFFCURVE",
"106 110 OFFCURVE",
"102 256 CURVE",
"292 260 OFFCURVE",
"348 266 OFFCURVE",
"523 266 CURVE SMOOTH",
"554 266 OFFCURVE",
"551 288 OFFCURVE",
"551 314 CURVE SMOOTH",
"551 411 OFFCURVE",
"459 512 OFFCURVE",
"320 512 CURVE SMOOTH",
"161 512 OFFCURVE",
"70 385 OFFCURVE",
"70 253 CURVE SMOOTH",
"70 129 OFFCURVE",
"151 0 OFFCURVE",
"317 0 CURVE SMOOTH"
);
},
{
closed = 1;
nodes = (
"108 383 OFFCURVE",
"202 481 OFFCURVE",
"322 481 CURVE SMOOTH",
"443 481 OFFCURVE",
"525 406 OFFCURVE",
"523 292 CURVE",
"515 290 OFFCURVE",
"180 290 OFFCURVE",
"104 283 CURVE"
);
}
);
width = 634;
}
);
note = e;
unicode = 0065;
},
{
glyphname = f;
lastChange = "2018-01-22 16:25:20 +0000";
layers = (
{
anchors = (
{
name = bottom;
position = "{181, 0}";
},
{
name = top;
position = "{181, 470}";
}
);
layerId = "0B1DFD06-3317-40CA-B510-4969A0718C16";
paths = (
{
closed = 1;
nodes = (
"136 0 OFFCURVE",
"140 4 OFFCURVE",
"140 19 CURVE SMOOTH",
"140 275 OFFCURVE",
"131 469 OFFCURVE",
"133 541 CURVE SMOOTH",
"136 685 OFFCURVE",
"188 709 OFFCURVE",
"244 709 CURVE SMOOTH",
"325 709 OFFCURVE",
"330 658 OFFCURVE",
"330 593 CURVE SMOOTH",
"330 584 OFFCURVE",
"331 571 OFFCURVE",
"346 571 CURVE SMOOTH",
"360 571 OFFCURVE",
"362 581 OFFCURVE",
"362 600 CURVE SMOOTH",
"362 719 OFFCURVE",
"301 740 OFFCURVE",
"246 740 CURVE SMOOTH",
"129 740 OFFCURVE",
"100 646 OFFCURVE",
"102 509 CURVE SMOOTH",
"111 17 LINE SMOOTH",
"111 8 OFFCURVE",
"113 0 OFFCURVE",
"126 0 CURVE SMOOTH"
);
},
{
closed = 1;
nodes = (
"115 366 OFFCURVE",
"171 361 OFFCURVE",
"235 362 CURVE SMOOTH",
"247 362 OFFCURVE",
"252 367 OFFCURVE",
"252 376 CURVE SMOOTH",
"252 387 OFFCURVE",
"245 388 OFFCURVE",
"230 389 CURVE SMOOTH",
"198 391 OFFCURVE",
"78 390 OFFCURVE",
"47 388 CURVE SMOOTH",
"15 386 OFFCURVE",
"5 380 OFFCURVE",
"5 369 CURVE SMOOTH",
"5 360 OFFCURVE",
"12 357 OFFCURVE",
"23 357 CURVE"
);
}
);
width = 362;
}
);
note = f;
unicode = 0066;
},
{
glyphname = g;
lastChange = "2018-01-22 16:25:20 +0000";
layers = (
{
anchors = (
{
name = bottom;
position = "{285, 0}";
},
{
name = top;
position = "{285, 470}";
}
);
layerId = "0B1DFD06-3317-40CA-B510-4969A0718C16";
paths = (
{
closed = 1;
nodes = (
"444 -249 OFFCURVE",
"520 -141 OFFCURVE",
"520 -2 CURVE SMOOTH",
"520 102 OFFCURVE",
"474 357 OFFCURVE",
"464 471 CURVE",
"467 481 OFFCURVE",
"482 533 OFFCURVE",
"483 543 CURVE SMOOTH",
"484 553 OFFCURVE",
"480 557 OFFCURVE",
"471 560 CURVE SMOOTH",
"465 562 OFFCURVE",
"456 561 OFFCURVE",
"452 546 CURVE SMOOTH",
"434 484 LINE",
"398 524 OFFCURVE",
"334 538 OFFCURVE",
"282 538 CURVE SMOOTH",
"129 538 OFFCURVE",
"50 415 OFFCURVE",
"50 290 CURVE SMOOTH",
"50 178 OFFCURVE",
"113 40 OFFCURVE",
"264 40 CURVE SMOOTH",
"305 40 OFFCURVE",
"424 60 OFFCURVE",
"478 133 CURVE",
"486 98 OFFCURVE",
"491 43 OFFCURVE",
"491 15 CURVE SMOOTH",
"491 -136 OFFCURVE",
"424 -218 OFFCURVE",
"289 -218 CURVE SMOOTH",
"157 -218 OFFCURVE",
"142 -134 OFFCURVE",
"128 -90 CURVE SMOOTH",
"125 -80 OFFCURVE",
"116 -79 OFFCURVE",
"109 -80 CURVE SMOOTH",
"103 -81 OFFCURVE",
"94 -84 OFFCURVE",
"99 -105 CURVE SMOOTH",
"120 -191 OFFCURVE",
"175 -249 OFFCURVE",
"294 -249 CURVE SMOOTH"
);
},
{
closed = 1;
nodes = (
"159 71 OFFCURVE",
"81 173 OFFCURVE",
"81 286 CURVE SMOOTH",
"81 403 OFFCURVE",
"164 507 OFFCURVE",
"281 507 CURVE SMOOTH",
"328 507 OFFCURVE",
"404 490 OFFCURVE",
"429 435 CURVE SMOOTH",
"452 384 OFFCURVE",
"465 219 OFFCURVE",
"467 190 CURVE SMOOTH",
"471 136 OFFCURVE",
"366 71 OFFCURVE",
"275 71 CURVE SMOOTH"
);
}
);
width = 570;
}
);
note = g;
unicode = 0067;
},
{
glyphname = h;
lastChange = "2018-01-22 16:25:20 +0000";
layers = (
{
anchors = (
{
name = bottom;
position = "{276, 0}";
},
{
name = center;
position = "{276, 235}";
},
{
name = top;
position = "{276, 470}";
}
);
layerId = "0B1DFD06-3317-40CA-B510-4969A0718C16";
paths = (
{
closed = 1;
nodes = (
"507 -2 OFFCURVE",
"513 3 OFFCURVE",
"513 12 CURVE SMOOTH",
"513 335 OFFCURVE",
"510 510 OFFCURVE",
"331 510 CURVE SMOOTH",
"207 510 OFFCURVE",
"145 426 OFFCURVE",
"137 373 CURVE",
"158 787 LINE SMOOTH",
"159 802 OFFCURVE",
"158 810 OFFCURVE",
"145 810 CURVE SMOOTH",
"135 810 OFFCURVE",
"130 805 OFFCURVE",
"129 788 CURVE SMOOTH",
"122 629 OFFCURVE",
"106 594 OFFCURVE",
"106 10 CURVE SMOOTH",
"106 5 OFFCURVE",
"110 -1 OFFCURVE",
"121 -1 CURVE SMOOTH",
"130 -1 OFFCURVE",
"138 2 OFFCURVE",
"138 9 CURVE SMOOTH",
"138 159 OFFCURVE",
"131 250 OFFCURVE",
"143 321 CURVE SMOOTH",
"157 406 OFFCURVE",
"238 479 OFFCURVE",
"332 479 CURVE SMOOTH",
"476 479 OFFCURVE",
"482 307 OFFCURVE",
"482 20 CURVE SMOOTH",
"482 4 OFFCURVE",
"487 -2 OFFCURVE",
"498 -2 CURVE SMOOTH"
);
}
);
width = 552;
}
);
note = h;
unicode = 0068;
},
{
glyphname = i;
lastChange = "2018-01-22 16:25:20 +0000";
layers = (
{
anchors = (
{
name = bottom;
position = "{142, 0}";
}
);
layerId = "0B1DFD06-3317-40CA-B510-4969A0718C16";
paths = (
{
closed = 1;
nodes = (
"161 6 OFFCURVE",
"165 13 OFFCURVE",
"165 28 CURVE SMOOTH",
"179 482 LINE SMOOTH",
"179 497 OFFCURVE",
"173 504 OFFCURVE",
"162 504 CURVE SMOOTH",
"152 504 OFFCURVE",
"146 497 OFFCURVE",
"146 482 CURVE SMOOTH",
"136 28 LINE SMOOTH",
"136 14 OFFCURVE",
"142 6 OFFCURVE",
"152 6 CURVE SMOOTH"
);
},
{
closed = 1;
nodes = (
"192 595 OFFCURVE",
"213 611 OFFCURVE",
"213 640 CURVE SMOOTH",
"213 665 OFFCURVE",
"195 684 OFFCURVE",
"170 684 CURVE SMOOTH",
"143 684 OFFCURVE",
"124 663 OFFCURVE",
"124 638 CURVE SMOOTH",
"124 613 OFFCURVE",
"144 595 OFFCURVE",
"168 595 CURVE SMOOTH"
);
}
);
width = 284;
}
);
note = i;
unicode = 0069;
},
{
glyphname = j;
lastChange = "2018-01-08 08:35:25 +0000";
layers = (
{
layerId = "0B1DFD06-3317-40CA-B510-4969A0718C16";
paths = (
{
closed = 1;
nodes = (
"116 -236 OFFCURVE",
"185 -153 OFFCURVE",
"188 23 CURVE SMOOTH",
"196 477 LINE SMOOTH",
"196 491 OFFCURVE",
"190 498 OFFCURVE",
"180 498 CURVE SMOOTH",
"169 498 OFFCURVE",
"165 491 OFFCURVE",
"165 477 CURVE SMOOTH",
"157 23 LINE SMOOTH",
"155 -117 OFFCURVE",
"110 -206 OFFCURVE",
"28 -206 CURVE SMOOTH",
"-18 -206 OFFCURVE",
"-59 -178 OFFCURVE",
"-62 -99 CURVE SMOOTH",
"-62 -87 OFFCURVE",
"-66 -79 OFFCURVE",
"-79 -79 CURVE SMOOTH",
"-91 -79 OFFCURVE",
"-94 -85 OFFCURVE",
"-94 -103 CURVE SMOOTH",
"-94 -184 OFFCURVE",
"-36 -236 OFFCURVE",
"31 -236 CURVE SMOOTH"
);
},
{
closed = 1;
nodes = (
"204 594 OFFCURVE",
"226 610 OFFCURVE",
"226 638 CURVE SMOOTH",
"226 664 OFFCURVE",
"208 683 OFFCURVE",
"183 683 CURVE SMOOTH",
"156 683 OFFCURVE",
"137 662 OFFCURVE",
"137 637 CURVE SMOOTH",
"137 612 OFFCURVE",
"157 594 OFFCURVE",
"181 594 CURVE SMOOTH"
);
}
);
width = 284;
}
);
note = j;
unicode = 006A;
},
{
glyphname = k;
lastChange = "2018-01-22 16:25:20 +0000";
layers = (
{
anchors = (
{
name = bottom;
position = "{263, 0}";
},
{
name = top;
position = "{263, 470}";
}
);
layerId = "0B1DFD06-3317-40CA-B510-4969A0718C16";
paths = (
{
closed = 1;
nodes = (
"140 -3 OFFCURVE",
"147 -1 OFFCURVE",
"147 9 CURVE SMOOTH",
"148 259 LINE",
"252 180 OFFCURVE",
"375 79 OFFCURVE",
"463 11 CURVE SMOOTH",
"470 6 OFFCURVE",
"475 3 OFFCURVE",
"479 3 CURVE SMOOTH",
"484 3 OFFCURVE",
"491 7 OFFCURVE",
"493 10 CURVE SMOOTH",
"496 14 OFFCURVE",
"497 19 OFFCURVE",
"497 23 CURVE SMOOTH",
"497 27 OFFCURVE",
"496 31 OFFCURVE",
"493 33 CURVE SMOOTH",
"161 295 LINE",
"487 503 LINE SMOOTH",
"492 506 OFFCURVE",
"494 511 OFFCURVE",
"494 515 CURVE SMOOTH",
"494 518 OFFCURVE",
"493 521 OFFCURVE",
"492 523 CURVE SMOOTH",
"490 527 OFFCURVE",
"486 531 OFFCURVE",
"481 531 CURVE SMOOTH",
"479 531 OFFCURVE",
"477 530 OFFCURVE",
"475 529 CURVE SMOOTH",
"445 512 OFFCURVE",
"407 490 OFFCURVE",
"148 328 CURVE",
"147 754 LINE SMOOTH",
"147 776 OFFCURVE",
"140 780 OFFCURVE",
"133 780 CURVE SMOOTH",
"122 780 OFFCURVE",
"117 771 OFFCURVE",
"117 759 CURVE SMOOTH",
"116 8 LINE SMOOTH",
"116 -1 OFFCURVE",
"126 -3 OFFCURVE",
"133 -3 CURVE SMOOTH"
);
}
);
width = 525;
}
);
note = k;
unicode = 006B;
},
{
glyphname = l;
lastChange = "2018-01-22 16:25:20 +0000";
layers = (
{
anchors = (
{
name = bottom;
position = "{120, 0}";
},
{
name = center;
position = "{120, 235}";
},
{
name = top;
position = "{120, 470}";
},
{
name = topright;
position = "{219, 470}";
}
);
layerId = "0B1DFD06-3317-40CA-B510-4969A0718C16";
paths = (
{
closed = 1;
nodes = (
"116 9 OFFCURVE",
"123 16 OFFCURVE",
"123 30 CURVE SMOOTH",
"118 837 LINE SMOOTH",
"118 851 OFFCURVE",
"114 858 OFFCURVE",
"104 858 CURVE SMOOTH",
"93 858 OFFCURVE",
"87 851 OFFCURVE",
"87 837 CURVE SMOOTH",
"93 30 LINE SMOOTH",
"93 16 OFFCURVE",
"98 9 OFFCURVE",
"107 9 CURVE SMOOTH"
);
}
);
width = 239;
}
);
note = l;
unicode = 006C;
},
{
glyphname = m;
lastChange = "2018-01-22 16:25:20 +0000";
layers = (
{
anchors = (
{
name = bottom;
position = "{400, 0}";
},
{
name = top;
position = "{400, 470}";
}
);
layerId = "0B1DFD06-3317-40CA-B510-4969A0718C16";
paths = (
{
closed = 1;
nodes = (
"703 0 OFFCURVE",
"706 6 OFFCURVE",
"706 15 CURVE SMOOTH",
"706 31 OFFCURVE",
"707 143 OFFCURVE",
"707 262 CURVE SMOOTH",
"707 438 OFFCURVE",
"674 517 OFFCURVE",
"553 517 CURVE SMOOTH",
"462 517 OFFCURVE",
"425 452 OFFCURVE",
"416 339 CURVE",
"401 441 OFFCURVE",
"364 513 OFFCURVE",
"266 513 CURVE SMOOTH",
"209 513 OFFCURVE",
"152 489 OFFCURVE",
"128 349 CURVE",
"128 423 LINE SMOOTH",
"128 455 OFFCURVE",
"118 468 OFFCURVE",
"97 493 CURVE SMOOTH",
"92 499 OFFCURVE",
"90 502 OFFCURVE",
"85 502 CURVE SMOOTH",
"82 502 OFFCURVE",
"77 501 OFFCURVE",
"73 498 CURVE SMOOTH",
"68 494 OFFCURVE",
"65 489 OFFCURVE",
"65 484 CURVE SMOOTH",
"65 481 OFFCURVE",
"66 478 OFFCURVE",
"68 475 CURVE SMOOTH",
"73 469 OFFCURVE",
"96 452 OFFCURVE",
"96 420 CURVE SMOOTH",
"101 20 LINE SMOOTH",
"101 9 OFFCURVE",
"103 3 OFFCURVE",
"118 3 CURVE SMOOTH",
"126 3 OFFCURVE",
"132 5 OFFCURVE",
"132 19 CURVE SMOOTH",
"132 37 OFFCURVE",
"132 72 OFFCURVE",
"132 119 CURVE SMOOTH",
"132 189 OFFCURVE",
"135 244 OFFCURVE",
"143 297 CURVE SMOOTH",
"163 429 OFFCURVE",
"201 483 OFFCURVE",
"264 483 CURVE SMOOTH",
"352 483 OFFCURVE",
"396 380 OFFCURVE",
"399 267 CURVE SMOOTH",
"400 225 OFFCURVE",
"400 49 OFFCURVE",
"400 21 CURVE SMOOTH",
"400 7 OFFCURVE",
"401 2 OFFCURVE",
"415 2 CURVE SMOOTH",
"428 2 OFFCURVE",
"432 6 OFFCURVE",
"432 15 CURVE SMOOTH",
"434 267 LINE SMOOTH",
"435 387 OFFCURVE",
"464 487 OFFCURVE",
"556 487 CURVE SMOOTH",
"655 487 OFFCURVE",
"676 421 OFFCURVE",
"676 262 CURVE SMOOTH",
"676 213 OFFCURVE",
"674 34 OFFCURVE",
"674 17 CURVE SMOOTH",
"674 5 OFFCURVE",
"678 0 OFFCURVE",
"690 0 CURVE SMOOTH"
);
}
);
width = 799;
}
);
note = m;
unicode = 006D;
},
{
glyphname = n;
lastChange = "2018-01-22 16:25:20 +0000";
layers = (
{
anchors = (
{
name = bottom;
position = "{270, 0}";
},
{
name = top;
position = "{270, 470}";
}
);
layerId = "0B1DFD06-3317-40CA-B510-4969A0718C16";
paths = (
{
closed = 1;
nodes = (
"460 3 OFFCURVE",
"462 11 OFFCURVE",
"462 20 CURVE SMOOTH",
"462 271 LINE SMOOTH",
"462 441 OFFCURVE",
"409 507 OFFCURVE",
"293 507 CURVE SMOOTH",
"214 507 OFFCURVE",
"147 477 OFFCURVE",
"125 339 CURVE",
"125 422 LINE SMOOTH",
"125 431 OFFCURVE",
"111 459 OFFCURVE",
"103 473 CURVE SMOOTH",
"90 497 OFFCURVE",
"84 502 OFFCURVE",
"73 499 CURVE SMOOTH",
"57 495 OFFCURVE",
"62 480 OFFCURVE",
"65 474 CURVE SMOOTH",
"91 417 OFFCURVE",
"91 422 OFFCURVE",
"91 412 CURVE SMOOTH",
"103 23 LINE SMOOTH",
"103 9 OFFCURVE",
"107 2 OFFCURVE",
"118 2 CURVE SMOOTH",
"128 2 OFFCURVE",
"134 9 OFFCURVE",
"134 21 CURVE SMOOTH",
"134 151 OFFCURVE",
"127 192 OFFCURVE",
"142 284 CURVE SMOOTH",
"164 425 OFFCURVE",
"201 476 OFFCURVE",
"291 476 CURVE SMOOTH",
"422 476 OFFCURVE",
"431 366 OFFCURVE",
"431 272 CURVE SMOOTH",
"431 20 LINE SMOOTH",
"431 12 OFFCURVE",
"434 3 OFFCURVE",
"447 3 CURVE SMOOTH"
);
}
);
width = 540;
}
);
note = n;
unicode = 006E;
},
{
glyphname = o;
lastChange = "2018-01-22 17:00:05 +0000";
layers = (
{
anchors = (
{
name = bottom;
position = "{292, 0}";
},
{
name = center;
position = "{292, 235}";
},
{
name = ogonek;
position = "{525, 10}";
},
{
name = top;
position = "{292, 470}";
},
{
name = topright;
position = "{508, 369}";
}
);
layerId = "0B1DFD06-3317-40CA-B510-4969A0718C16";
paths = (
{
closed = 1;
nodes = (
"431 0 OFFCURVE",
"545 66 OFFCURVE",
"545 247 CURVE SMOOTH",
"545 425 OFFCURVE",
"424 515 OFFCURVE",
"294 515 CURVE SMOOTH",
"127 515 OFFCURVE",
"40 411 OFFCURVE",
"40 237 CURVE SMOOTH",
"40 56 OFFCURVE",
"180 0 OFFCURVE",
"287 0 CURVE SMOOTH"
);
},
{
closed = 1;
nodes = (
"195 31 OFFCURVE",
"71 87 OFFCURVE",
"71 237 CURVE SMOOTH",
"71 400 OFFCURVE",
"157 484 OFFCURVE",
"294 484 CURVE SMOOTH",
"400 484 OFFCURVE",
"514 406 OFFCURVE",
"514 234 CURVE SMOOTH",
"514 94 OFFCURVE",
"406 31 OFFCURVE",
"287 31 CURVE SMOOTH"
);
}
);
width = 583;
}
);
note = o;
unicode = 006F;
},
{
glyphname = p;
lastChange = "2018-01-22 16:25:20 +0000";
layers = (
{
anchors = (
{
name = bottom;
position = "{300, 0}";
},
{
name = top;
position = "{300, 470}";
}
);
layerId = "0B1DFD06-3317-40CA-B510-4969A0718C16";
paths = (
{
closed = 1;
nodes = (
"79 -224 OFFCURVE",
"83 -218 OFFCURVE",
"84 -207 CURVE SMOOTH",
"89 -99 OFFCURVE",
"94 9 OFFCURVE",
"95 73 CURVE",
"152 11 OFFCURVE",
"233 2 OFFCURVE",
"285 2 CURVE SMOOTH",
"445 2 OFFCURVE",
"545 89 OFFCURVE",
"545 257 CURVE SMOOTH",
"545 480 OFFCURVE",
"367 513 OFFCURVE",
"294 513 CURVE SMOOTH",
"230 513 OFFCURVE",
"168 488 OFFCURVE",
"93 416 CURVE",
"88 458 OFFCURVE",
"57 492 OFFCURVE",
"40 492 CURVE SMOOTH",
"32 492 OFFCURVE",
"27 488 OFFCURVE",
"25 486 CURVE SMOOTH",
"20 482 OFFCURVE",
"17 476 OFFCURVE",
"25 468 CURVE SMOOTH",
"63 427 OFFCURVE",
"64 431 OFFCURVE",
"64 173 CURVE SMOOTH",
"64 98 OFFCURVE",
"62 42 OFFCURVE",
"61 7 CURVE SMOOTH",
"57 -117 OFFCURVE",
"54 -180 OFFCURVE",
"54 -206 CURVE SMOOTH",
"54 -221 OFFCURVE",
"61 -224 OFFCURVE",
"66 -224 CURVE SMOOTH"
);
},
{
closed = 1;
nodes = (
"241 33 OFFCURVE",
"136 44 OFFCURVE",
"95 117 CURVE",
"93 139 OFFCURVE",
"95 199 OFFCURVE",
"95 244 CURVE SMOOTH",
"95 288 OFFCURVE",
"96 320 OFFCURVE",
"97 333 CURVE",
"97 402 OFFCURVE",
"199 482 OFFCURVE",
"301 482 CURVE SMOOTH",
"383 482 OFFCURVE",
"514 431 OFFCURVE",
"514 258 CURVE SMOOTH",
"514 117 OFFCURVE",
"428 33 OFFCURVE",
"291 33 CURVE SMOOTH"
);
}
);
width = 599;
}
);
note = p;
unicode = 0070;
},
{
glyphname = q;
lastChange = "2018-01-22 16:25:20 +0000";
layers = (
{
anchors = (
{
name = bottom;
position = "{320, 0}";
},
{
name = top;
position = "{320, 470}";
}
);
layerId = "0B1DFD06-3317-40CA-B510-4969A0718C16";
paths = (
{
closed = 1;
nodes = (
"501 -237 OFFCURVE",
"509 -233 OFFCURVE",
"509 -223 CURVE SMOOTH",
"510 -120 OFFCURVE",
"511 -70 OFFCURVE",
"512 -45 CURVE SMOOTH",
"521 241 OFFCURVE",
"524 338 OFFCURVE",
"524 366 CURVE",
"531 393 OFFCURVE",
"575 449 OFFCURVE",
"575 464 CURVE SMOOTH",
"575 472 OFFCURVE",
"563 479 OFFCURVE",
"554 479 CURVE SMOOTH",
"541 479 OFFCURVE",
"533 464 OFFCURVE",
"500 402 CURVE",
"453 469 OFFCURVE",
"362 512 OFFCURVE",
"283 512 CURVE SMOOTH",
"198 512 OFFCURVE",
"40 462 OFFCURVE",
"40 257 CURVE SMOOTH",
"40 80 OFFCURVE",
"157 1 OFFCURVE",
"285 1 CURVE SMOOTH",
"370 1 OFFCURVE",
"445 36 OFFCURVE",
"484 81 CURVE",
"483 -42 OFFCURVE",
"477 -183 OFFCURVE",
"477 -213 CURVE SMOOTH",
"477 -230 OFFCURVE",
"479 -237 OFFCURVE",
"492 -237 CURVE SMOOTH"
);
},
{
closed = 1;
nodes = (
"179 33 OFFCURVE",
"71 101 OFFCURVE",
"71 256 CURVE SMOOTH",
"71 419 OFFCURVE",
"190 480 OFFCURVE",
"280 480 CURVE SMOOTH",
"371 480 OFFCURVE",
"494 417 OFFCURVE",
"494 309 CURVE",
"493 269 OFFCURVE",
"492 215 OFFCURVE",
"484 128 CURVE",
"441 69 OFFCURVE",
"363 33 OFFCURVE",
"286 33 CURVE SMOOTH"
);
}
);
width = 639;
}
);
note = q;
unicode = 0071;
},
{
glyphname = r;
lastChange = "2018-01-22 16:25:20 +0000";
layers = (
{
anchors = (
{
name = bottom;
position = "{245, 0}";
},
{
name = top;
position = "{245, 470}";
}
);
layerId = "0B1DFD06-3317-40CA-B510-4969A0718C16";
paths = (
{
closed = 1;
nodes = (
"120 -7 OFFCURVE",
"125 0 OFFCURVE",
"125 14 CURVE SMOOTH",
"125 255 OFFCURVE",
"131 479 OFFCURVE",
"281 479 CURVE SMOOTH",
"366 479 OFFCURVE",
"383 421 OFFCURVE",
"383 374 CURVE SMOOTH",
"383 317 OFFCURVE",
"340 302 OFFCURVE",
"315 302 CURVE SMOOTH",
"304 302 OFFCURVE",
"297 297 OFFCURVE",
"297 288 CURVE SMOOTH",
"297 274 OFFCURVE",
"306 273 OFFCURVE",
"318 273 CURVE SMOOTH",
"366 273 OFFCURVE",
"414 319 OFFCURVE",
"414 374 CURVE SMOOTH",
"414 439 OFFCURVE",
"389 510 OFFCURVE",
"281 510 CURVE SMOOTH",
"220 510 OFFCURVE",
"121 460 OFFCURVE",
"121 317 CURVE",
"117 415 OFFCURVE",
"112 471 OFFCURVE",
"110 507 CURVE SMOOTH",
"109 517 OFFCURVE",
"103 524 OFFCURVE",
"93 524 CURVE SMOOTH",
"84 524 OFFCURVE",
"75 519 OFFCURVE",
"75 507 CURVE SMOOTH",
"75 506 OFFCURVE",
"75 506 OFFCURVE",
"75 505 CURVE SMOOTH",
"86 364 OFFCURVE",
"92 273 OFFCURVE",
"92 226 CURVE SMOOTH",
"92 177 OFFCURVE",
"94 35 OFFCURVE",
"94 14 CURVE SMOOTH",
"94 0 OFFCURVE",
"98 -7 OFFCURVE",
"109 -7 CURVE SMOOTH"
);
}
);
width = 489;
}
);
note = r;
unicode = 0072;
},
{
glyphname = s;
lastChange = "2018-01-22 16:25:20 +0000";
layers = (
{
anchors = (
{
name = bottom;
position = "{237, 0}";
},
{
name = top;
position = "{237, 470}";
}
);
layerId = "0B1DFD06-3317-40CA-B510-4969A0718C16";
paths = (
{
closed = 1;
nodes = (
"342 -2 OFFCURVE",
"397 64 OFFCURVE",
"397 123 CURVE SMOOTH",
"397 290 OFFCURVE",
"95 246 OFFCURVE",
"95 379 CURVE SMOOTH",
"95 410 OFFCURVE",
"118 486 OFFCURVE",
"216 486 CURVE SMOOTH",
"292 486 OFFCURVE",
"359 456 OFFCURVE",
"359 366 CURVE SMOOTH",
"359 355 OFFCURVE",
"366 351 OFFCURVE",
"378 351 CURVE SMOOTH",
"391 351 OFFCURVE",
"390 358 OFFCURVE",
"390 371 CURVE SMOOTH",
"390 456 OFFCURVE",
"325 517 OFFCURVE",
"216 517 CURVE SMOOTH",
"90 517 OFFCURVE",
"65 417 OFFCURVE",
"65 379 CURVE SMOOTH",
"65 211 OFFCURVE",
"366 263 OFFCURVE",
"366 123 CURVE SMOOTH",
"366 79 OFFCURVE",
"327 29 OFFCURVE",
"236 29 CURVE SMOOTH",
"175 29 OFFCURVE",
"121 67 OFFCURVE",
"90 126 CURVE SMOOTH",
"84 137 OFFCURVE",
"76 155 OFFCURVE",
"60 148 CURVE SMOOTH",
"43 140 OFFCURVE",
"50 128 OFFCURVE",
"56 117 CURVE SMOOTH",
"90 53 OFFCURVE",
"149 -2 OFFCURVE",
"236 -2 CURVE SMOOTH"
);
}
);
width = 474;
}
);
note = s;
unicode = 0073;
},
{
glyphname = t;
lastChange = "2018-01-22 16:25:20 +0000";
layers = (
{
anchors = (
{
name = bottom;
position = "{219, 0}";
},
{
name = center;
position = "{219, 235}";
},
{
name = top;
position = "{219, 470}";
},
{
name = topright;
position = "{417, 470}";
}
);
layerId = "0B1DFD06-3317-40CA-B510-4969A0718C16";
paths = (
{
closed = 1;
nodes = (
"334 13 OFFCURVE",
"373 67 OFFCURVE",
"373 124 CURVE SMOOTH",
"373 145 OFFCURVE",
"368 151 OFFCURVE",
"357 151 CURVE SMOOTH",
"342 151 OFFCURVE",
"340 141 OFFCURVE",
"340 134 CURVE SMOOTH",
"335 67 OFFCURVE",
"308 41 OFFCURVE",
"273 41 CURVE SMOOTH",
"198 41 OFFCURVE",
"175 157 OFFCURVE",
"175 300 CURVE SMOOTH",
"175 436 OFFCURVE",
"196 606 OFFCURVE",
"204 709 CURVE SMOOTH",
"205 722 OFFCURVE",
"197 726 OFFCURVE",
"189 726 CURVE SMOOTH",
"180 726 OFFCURVE",
"174 722 OFFCURVE",
"173 709 CURVE SMOOTH",
"172 696 OFFCURVE",
"144 452 OFFCURVE",
"144 290 CURVE SMOOTH",
"144 131 OFFCURVE",
"171 13 OFFCURVE",
"268 13 CURVE SMOOTH"
);
},
{
closed = 1;
nodes = (
"294 408 OFFCURVE",
"302 412 OFFCURVE",
"302 424 CURVE SMOOTH",
"302 438 OFFCURVE",
"292 440 OFFCURVE",
"282 440 CURVE SMOOTH",
"255 441 OFFCURVE",
"81 450 OFFCURVE",
"76 450 CURVE SMOOTH",
"59 450 OFFCURVE",
"47 450 OFFCURVE",
"47 435 CURVE SMOOTH",
"47 426 OFFCURVE",
"52 421 OFFCURVE",
"68 420 CURVE SMOOTH",
"115 417 OFFCURVE",
"88 419 OFFCURVE",
"273 409 CURVE SMOOTH"
);
}
);
width = 437;
}
);
note = t;
unicode = 0074;
},
{
glyphname = u;
lastChange = "2018-01-22 16:25:20 +0000";
layers = (
{
anchors = (
{
name = bottom;
position = "{265, 0}";
},
{
name = ogonek;
position = "{477, 10}";
},
{
name = top;
position = "{265, 470}";
},
{
name = topright;
position = "{510, 470}";
}
);
layerId = "0B1DFD06-3317-40CA-B510-4969A0718C16";
paths = (
{
closed = 1;
nodes = (
"301 2 OFFCURVE",
"376 21 OFFCURVE",
"406 162 CURVE",
"407 91 LINE SMOOTH",
"408 41 OFFCURVE",
"435 9 OFFCURVE",
"439 9 CURVE SMOOTH",
"454 9 OFFCURVE",
"462 20 OFFCURVE",
"462 28 CURVE SMOOTH",
"462 41 OFFCURVE",
"439 52 OFFCURVE",
"439 96 CURVE",
"428 485 LINE SMOOTH",
"428 500 OFFCURVE",
"423 507 OFFCURVE",
"412 507 CURVE SMOOTH",
"401 507 OFFCURVE",
"397 500 OFFCURVE",
"397 486 CURVE SMOOTH",
"397 473 OFFCURVE",
"400 406 OFFCURVE",
"400 355 CURVE SMOOTH",
"400 198 OFFCURVE",
"371 33 OFFCURVE",
"229 33 CURVE SMOOTH",
"116 33 OFFCURVE",
"101 139 OFFCURVE",
"101 235 CURVE SMOOTH",
"101 489 LINE SMOOTH",
"101 496 OFFCURVE",
"95 501 OFFCURVE",
"84 501 CURVE SMOOTH",
"73 501 OFFCURVE",
"70 496 OFFCURVE",
"70 489 CURVE SMOOTH",
"70 237 LINE SMOOTH",
"70 73 OFFCURVE",
"118 2 OFFCURVE",
"239 2 CURVE SMOOTH"
);
}
);
width = 530;
}
);
note = u;
unicode = 0075;
},
{
glyphname = v;
lastChange = "2018-01-22 16:25:20 +0000";
layers = (
{
anchors = (
{
name = bottom;
position = "{253, 0}";
},
{
name = top;
position = "{253, 470}";
}
);
layerId = "0B1DFD06-3317-40CA-B510-4969A0718C16";
paths = (
{
closed = 1;
nodes = (
"298 10 OFFCURVE",
"355 119 OFFCURVE",
"399 235 CURVE SMOOTH",
"437 335 OFFCURVE",
"465 438 OFFCURVE",
"465 481 CURVE SMOOTH",
"465 495 OFFCURVE",
"462 505 OFFCURVE",
"450 505 CURVE SMOOTH",
"440 505 OFFCURVE",
"434 499 OFFCURVE",
"433 486 CURVE SMOOTH",
"428 433 OFFCURVE",
"423 381 OFFCURVE",
"369 245 CURVE SMOOTH",
"321 124 OFFCURVE",
"276 41 OFFCURVE",
"257 41 CURVE SMOOTH",
"236 41 OFFCURVE",
"189 138 OFFCURVE",
"149 246 CURVE SMOOTH",
"103 372 OFFCURVE",
"97 424 OFFCURVE",
"91 482 CURVE SMOOTH",
"90 494 OFFCURVE",
"85 500 OFFCURVE",
"75 500 CURVE SMOOTH",
"65 500 OFFCURVE",
"59 495 OFFCURVE",
"59 477 CURVE SMOOTH",
"59 438 OFFCURVE",
"85 330 OFFCURVE",
"121 230 CURVE SMOOTH",
"161 119 OFFCURVE",
"216 10 OFFCURVE",
"257 10 CURVE SMOOTH"
);
}
);
width = 505;
}
);
note = v;
unicode = 0076;
},
{
glyphname = w;
lastChange = "2018-01-22 16:25:20 +0000";
layers = (
{
anchors = (
{
name = bottom;
position = "{390, 0}";
},
{
name = top;
position = "{390, 470}";
}
);
layerId = "0B1DFD06-3317-40CA-B510-4969A0718C16";
paths = (
{
closed = 1;
nodes = (
"295 3 OFFCURVE",
"358 146 OFFCURVE",
"395 327 CURVE",
"438 147 OFFCURVE",
"525 3 OFFCURVE",
"564 3 CURVE SMOOTH",
"593 3 OFFCURVE",
"632 82 OFFCURVE",
"660 177 CURVE SMOOTH",
"687 269 OFFCURVE",
"709 395 OFFCURVE",
"709 480 CURVE SMOOTH",
"709 511 OFFCURVE",
"703 514 OFFCURVE",
"691 514 CURVE SMOOTH",
"681 514 OFFCURVE",
"677 509 OFFCURVE",
"676 495 CURVE SMOOTH",
"671 396 OFFCURVE",
"667 323 OFFCURVE",
"629 193 CURVE SMOOTH",
"602 100 OFFCURVE",
"576 38 OFFCURVE",
"561 38 CURVE SMOOTH",
"531 38 OFFCURVE",
"418 283 OFFCURVE",
"411 397 CURVE SMOOTH",
"411 404 OFFCURVE",
"408 416 OFFCURVE",
"392 416 CURVE SMOOTH",
"381 416 OFFCURVE",
"377 410 OFFCURVE",
"376 402 CURVE SMOOTH",
"341 123 OFFCURVE",
"267 39 OFFCURVE",
"244 39 CURVE SMOOTH",
"228 39 OFFCURVE",
"203 84 OFFCURVE",
"169 189 CURVE SMOOTH",
"125 325 OFFCURVE",
"123 400 OFFCURVE",
"116 497 CURVE SMOOTH",
"115 511 OFFCURVE",
"107 514 OFFCURVE",
"98 514 CURVE SMOOTH",
"92 514 OFFCURVE",
"83 512 OFFCURVE",
"83 503 CURVE SMOOTH",
"83 391 OFFCURVE",
"109 266 OFFCURVE",
"141 169 CURVE SMOOTH",
"173 73 OFFCURVE",
"214 3 OFFCURVE",
"247 3 CURVE SMOOTH"
);
}
);
width = 780;
}
);
note = w;
unicode = 0077;
},
{
glyphname = x;
lastChange = "2018-01-22 16:25:20 +0000";
layers = (
{
anchors = (
{
name = bottom;
position = "{249, 0}";
},
{
name = top;
position = "{249, 470}";
}
);
layerId = "0B1DFD06-3317-40CA-B510-4969A0718C16";
paths = (
{
closed = 1;
nodes = (
"71 -2 OFFCURVE",
"79 0 OFFCURVE",
"82 4 CURVE SMOOTH",
"109 40 OFFCURVE",
"210 181 OFFCURVE",
"251.905 240.024 CURVE",
"275 210 OFFCURVE",
"270 217 OFFCURVE",
"432 8 CURVE SMOOTH",
"438 0 OFFCURVE",
"447 0 OFFCURVE",
"451 2 CURVE SMOOTH",
"455 4 OFFCURVE",
"457 14 OFFCURVE",
"457 16 CURVE SMOOTH",
"457 30 OFFCURVE",
"390 115 OFFCURVE",
"270 268 CURVE",
"347 384 OFFCURVE",
"420 483 OFFCURVE",
"420 494 CURVE SMOOTH",
"420 496 OFFCURVE",
"417 501 OFFCURVE",
"413 503 CURVE SMOOTH",
"408 506 OFFCURVE",
"401 509 OFFCURVE",
"397 504 CURVE SMOOTH",
"359 457 OFFCURVE",
"324 399 OFFCURVE",
"249 297 CURVE",
"138 434 OFFCURVE",
"90 501 OFFCURVE",
"85 506 CURVE SMOOTH",
"81 509 OFFCURVE",
"75 506 OFFCURVE",
"71 503 CURVE SMOOTH",
"67 500 OFFCURVE",
"64 497 OFFCURVE",
"64 494 CURVE SMOOTH",
"64 482 OFFCURVE",
"130 399 OFFCURVE",
"232 267 CURVE",
"119 105 OFFCURVE",
"59 38 OFFCURVE",
"59 15 CURVE SMOOTH",
"59 9 OFFCURVE",
"63 1 OFFCURVE",
"66 0 CURVE SMOOTH"
);
}
);
width = 498;
}
);
note = x;
unicode = 0078;
},
{
glyphname = y;
lastChange = "2018-01-22 16:25:20 +0000";
layers = (
{
anchors = (
{
name = bottom;
position = "{254, 0}";
},
{
name = top;
position = "{254, 470}";
}
);
layerId = "0B1DFD06-3317-40CA-B510-4969A0718C16";
paths = (
{
closed = 1;
nodes = (
"203 -255 OFFCURVE",
"207 -250 OFFCURVE",
"214 -235 CURVE SMOOTH",
"271 -109 OFFCURVE",
"300 -37 OFFCURVE",
"339 85 CURVE SMOOTH",
"382 219 OFFCURVE",
"421 366 OFFCURVE",
"451 493 CURVE SMOOTH",
"453 502 OFFCURVE",
"445 509 OFFCURVE",
"432 509 CURVE SMOOTH",
"422 509 OFFCURVE",
"417 504 OFFCURVE",
"414 491 CURVE SMOOTH",
"372 322 OFFCURVE",
"327 144 OFFCURVE",
"294 62 CURVE",
"266 97 OFFCURVE",
"151 220 OFFCURVE",
"72 491 CURVE SMOOTH",
"69 501 OFFCURVE",
"67 506 OFFCURVE",
"56 506 CURVE SMOOTH",
"46 506 OFFCURVE",
"40 502 OFFCURVE",
"40 485 CURVE SMOOTH",
"40 407 OFFCURVE",
"220 74 OFFCURVE",
"283 27 CURVE",
"256 -55 OFFCURVE",
"240 -91 OFFCURVE",
"182 -232 CURVE SMOOTH",
"178 -242 OFFCURVE",
"176 -255 OFFCURVE",
"193 -255 CURVE SMOOTH"
);
}
);
width = 508;
}
);
note = y;
unicode = 0079;
},
{
glyphname = z;
lastChange = "2018-01-22 16:25:20 +0000";
layers = (
{
anchors = (
{
name = bottom;
position = "{275, 0}";
},
{
name = top;
position = "{275, 470}";
}
);
layerId = "0B1DFD06-3317-40CA-B510-4969A0718C16";
paths = (
{
closed = 1;
nodes = (
"463 0 OFFCURVE",
"470 5 OFFCURVE",
"470 13 CURVE SMOOTH",
"470 18 OFFCURVE",
"467 25 OFFCURVE",
"462 26 CURVE SMOOTH",
"406 37 OFFCURVE",
"355 38 OFFCURVE",
"274 38 CURVE SMOOTH",
"264 38 OFFCURVE",
"105 35 OFFCURVE",
"92 35 CURVE",
"184 138 OFFCURVE",
"352 304 OFFCURVE",
"491 460 CURVE SMOOTH",
"500 470 OFFCURVE",
"501 479 OFFCURVE",
"500 486 CURVE SMOOTH",
"498 496 OFFCURVE",
"495 500 OFFCURVE",
"459 500 CURVE SMOOTH",
"398 500 OFFCURVE",
"331 489 OFFCURVE",
"259 489 CURVE SMOOTH",
"190 489 OFFCURVE",
"124 499 OFFCURVE",
"101 503 CURVE SMOOTH",
"90 505 OFFCURVE",
"85 499 OFFCURVE",
"84 492 CURVE SMOOTH",
"83 486 OFFCURVE",
"85 477 OFFCURVE",
"93 475 CURVE SMOOTH",
"107 471 OFFCURVE",
"194 459 OFFCURVE",
"296 459 CURVE SMOOTH",
"385 459 OFFCURVE",
"419 468 OFFCURVE",
"462 468 CURVE",
"353 353 OFFCURVE",
"201 205 OFFCURVE",
"61 43 CURVE SMOOTH",
"57 38 OFFCURVE",
"48 28 OFFCURVE",
"48 20 CURVE SMOOTH",
"48 6 OFFCURVE",
"72 3 OFFCURVE",
"80 3 CURVE SMOOTH",
"175 3 OFFCURVE",
"226 9 OFFCURVE",
"295 9 CURVE SMOOTH",
"336 9 OFFCURVE",
"387 7 OFFCURVE",
"458 0 CURVE"
);
}
);
width = 550;
}
);
note = z;
unicode = 007A;
},
{
glyphname = AE;
lastChange = "2018-01-22 17:21:51 +0000";
layers = (
{
anchors = (
{
name = bottom;
position = "{483, 0}";
},
{
name = top;
position = "{483, 700}";
}
);
layerId = "0B1DFD06-3317-40CA-B510-4969A0718C16";
paths = (
{
closed = 1;
nodes = (
"824 -6 OFFCURVE",
"872 -4 OFFCURVE",
"892 2 CURVE SMOOTH",
"905 6 OFFCURVE",
"911 12 OFFCURVE",
"911 18 CURVE SMOOTH",
"911 27 OFFCURVE",
"900 34 OFFCURVE",
"886 32 CURVE SMOOTH",
"833 24 OFFCURVE",
"802 21 OFFCURVE",
"754 21 CURVE SMOOTH",
"687 21 OFFCURVE",
"616 29 OFFCURVE",
"532 35 CURVE",
"548 284 OFFCURVE",
"555 364 OFFCURVE",
"555 510 CURVE SMOOTH",
"555 559 OFFCURVE",
"554 610 OFFCURVE",
"551 661 CURVE",
"591 664 OFFCURVE",
"640 664 OFFCURVE",
"686 664 CURVE SMOOTH",
"816 663 OFFCURVE",
"892 657 OFFCURVE",
"900 657 CURVE SMOOTH",
"908 657 OFFCURVE",
"917 661 OFFCURVE",
"917 675 CURVE SMOOTH",
"917 682 OFFCURVE",
"913 687 OFFCURVE",
"907 687 CURVE SMOOTH",
"900 687 OFFCURVE",
"780 696 OFFCURVE",
"689 696 CURVE SMOOTH",
"625 696 OFFCURVE",
"566 691 OFFCURVE",
"517 691 CURVE SMOOTH",
"501 691 OFFCURVE",
"495 686 OFFCURVE",
"495 676 CURVE SMOOTH",
"495 664 OFFCURVE",
"503 661 OFFCURVE",
"517 661 CURVE",
"520 624 OFFCURVE",
"522 570 OFFCURVE",
"522 510 CURVE SMOOTH",
"522 385 OFFCURVE",
"512 149 OFFCURVE",
"498 35 CURVE",
"470 35 OFFCURVE",
"463 34 OFFCURVE",
"463 16 CURVE SMOOTH",
"463 2 OFFCURVE",
"468 3 OFFCURVE",
"524 3 CURVE SMOOTH",
"622 3 OFFCURVE",
"704 -6 OFFCURVE",
"786 -6 CURVE SMOOTH"
);
},
{
closed = 1;
nodes = (
"534 189 OFFCURVE",
"539 197 OFFCURVE",
"539 204 CURVE SMOOTH",
"539 212 OFFCURVE",
"534 217 OFFCURVE",
"526 217 CURVE SMOOTH",
"206 221 LINE SMOOTH",
"192 221 OFFCURVE",
"184 213 OFFCURVE",
"184 203 CURVE SMOOTH",
"184 197 OFFCURVE",
"188 191 OFFCURVE",
"195 191 CURVE SMOOTH",
"524 189 LINE SMOOTH"
);
},
{
closed = 1;
nodes = (
"125 1 OFFCURVE",
"126 3 OFFCURVE",
"132 15 CURVE SMOOTH",
"178 104 OFFCURVE",
"439 665 OFFCURVE",
"517 661 CURVE",
"507 690 LINE",
"404 690 OFFCURVE",
"155 130 OFFCURVE",
"101 18 CURVE SMOOTH",
"97 10 OFFCURVE",
"107 1 OFFCURVE",
"118 1 CURVE SMOOTH"
);
},
{
closed = 1;
nodes = (
"818 349 OFFCURVE",
"831 350 OFFCURVE",
"831 363 CURVE SMOOTH",
"831 372 OFFCURVE",
"825 379 OFFCURVE",
"818 379 CURVE SMOOTH",
"804 379 OFFCURVE",
"741 382 OFFCURVE",
"703 382 CURVE SMOOTH",
"636 382 OFFCURVE",
"541 386 OFFCURVE",
"529 386 CURVE",
"528 354 LINE",
"537 354 OFFCURVE",
"532 355 OFFCURVE",
"619 355 CURVE SMOOTH",
"638 355 OFFCURVE",
"778 349 OFFCURVE",
"804 349 CURVE SMOOTH"
);
}
);
width = 953;
}
);
leftMetricsKey = A;
note = AE;
rightMetricsKey = E;
unicode = 00C6;
},
{
glyphname = Eth;
lastChange = "2018-01-17 09:49:10 +0000";
layers = (
{
layerId = "0B1DFD06-3317-40CA-B510-4969A0718C16";
paths = (
{
closed = 1;
nodes = (
"603 8 OFFCURVE",
"765 142 OFFCURVE",
"765 357 CURVE SMOOTH",
"765 608 OFFCURVE",
"544 698 OFFCURVE",
"252 698 CURVE SMOOTH",
"241 698 OFFCURVE",
"232 697 OFFCURVE",
"232 686 CURVE SMOOTH",
"232 674 OFFCURVE",
"239 669 OFFCURVE",
"255 669 CURVE SMOOTH",
"543 669 OFFCURVE",
"736 582 OFFCURVE",
"736 358 CURVE SMOOTH",
"736 158 OFFCURVE",
"561 37 OFFCURVE",
"331 37 CURVE",
"313 686 LINE SMOOTH",
"313 703 OFFCURVE",
"312 712 OFFCURVE",
"298 712 CURVE SMOOTH",
"283 712 OFFCURVE",
"282 701 OFFCURVE",
"282 684 CURVE SMOOTH",
"300 37 LINE",
"245 37 LINE SMOOTH",
"238 37 OFFCURVE",
"233 34 OFFCURVE",
"233 25 CURVE SMOOTH",
"233 13 OFFCURVE",
"237 8 OFFCURVE",
"249 8 CURVE SMOOTH",
"278 8 OFFCURVE",
"299 8 OFFCURVE",
"324 8 CURVE SMOOTH"
);
},
{
closed = 1;
nodes = (
"488 347 LINE SMOOTH",
"501 347 OFFCURVE",
"507 350 OFFCURVE",
"507 358 CURVE SMOOTH",
"507 367 OFFCURVE",
"501 373 OFFCURVE",
"488 373 CURVE SMOOTH",
"171 379 LINE SMOOTH",
"153 379 OFFCURVE",
"147 374 OFFCURVE",
"147 365 CURVE SMOOTH",
"147 356 OFFCURVE",
"153 352 OFFCURVE",
"171 352 CURVE SMOOTH"
);
}
);
width = 909;
}
);
note = Eth;
unicode = 00D0;
},
{
glyphname = Dcroat;
lastChange = "2018-01-17 09:52:44 +0000";
layers = (
{
layerId = "0B1DFD06-3317-40CA-B510-4969A0718C16";
paths = (
{
closed = 1;
nodes = (
"567 8 OFFCURVE",
"729 142 OFFCURVE",
"729 357 CURVE SMOOTH",
"729 608 OFFCURVE",
"508 698 OFFCURVE",
"216 698 CURVE SMOOTH",
"205 698 OFFCURVE",
"196 697 OFFCURVE",
"196 686 CURVE SMOOTH",
"196 674 OFFCURVE",
"203 669 OFFCURVE",
"219 669 CURVE SMOOTH",
"507 669 OFFCURVE",
"700 582 OFFCURVE",
"700 358 CURVE SMOOTH",
"700 158 OFFCURVE",
"525 37 OFFCURVE",
"295 37 CURVE",
"277 686 LINE SMOOTH",
"277 703 OFFCURVE",
"276 712 OFFCURVE",
"262 712 CURVE SMOOTH",
"247 712 OFFCURVE",
"246 701 OFFCURVE",
"246 684 CURVE SMOOTH",
"264 37 LINE",
"209 37 LINE SMOOTH",
"202 37 OFFCURVE",
"197 34 OFFCURVE",
"197 25 CURVE SMOOTH",
"197 13 OFFCURVE",
"201 8 OFFCURVE",
"213 8 CURVE SMOOTH",
"242 8 OFFCURVE",
"263 8 OFFCURVE",
"288 8 CURVE SMOOTH"
);
},
{
closed = 1;
nodes = (
"452 347 LINE SMOOTH",
"465 347 OFFCURVE",
"471 350 OFFCURVE",
"471 358 CURVE SMOOTH",
"471 367 OFFCURVE",
"465 373 OFFCURVE",
"452 373 CURVE SMOOTH",
"135 379 LINE SMOOTH",
"117 379 OFFCURVE",
"111 374 OFFCURVE",
"111 365 CURVE SMOOTH",
"111 356 OFFCURVE",
"117 352 OFFCURVE",
"135 352 CURVE SMOOTH"
);
}
);
width = 832;
}
);
note = Dcroat;
unicode = 0110;
},
{
glyphname = Eacute;
lastChange = "2018-01-22 16:25:26 +0000";
layers = (
{
background = {
paths = (
{
closed = 1;
nodes = (
"554 0 LINE",
"571 179 LINE",
"544 179 LINE",
"538 124 OFFCURVE",
"520 40 OFFCURVE",
"456 40 CURVE SMOOTH",
"201 40 LINE",
"201 659 LINE",
"441 659 LINE SMOOTH",
"516 659 OFFCURVE",
"525 567 OFFCURVE",
"528 527 CURVE",
"555 527 LINE",
"555 700 LINE",
"16 700 LINE",
"16 673 LINE",
"44 673 LINE SMOOTH",
"83 673 OFFCURVE",
"103 662 OFFCURVE",
"103 637 CURVE SMOOTH",
"103 62 LINE SMOOTH",
"103 37 OFFCURVE",
"83 26 OFFCURVE",
"44 26 CURVE SMOOTH",
"16 26 LINE",
"16 0 LINE"
);
},
{
closed = 1;
nodes = (
"455 251 LINE",
"455 485 LINE",
"431 485 LINE",
"427 436 OFFCURVE",
"424 388 OFFCURVE",
"379 388 CURVE SMOOTH",
"162 388 LINE",
"162 348 LINE",
"379 348 LINE SMOOTH",
"424 348 OFFCURVE",
"427 300 OFFCURVE",
"431 251 CURVE"
);
},
{
closed = 1;
nodes = (
"398 865 LINE SMOOTH",
"420 877 OFFCURVE",
"432 890 OFFCURVE",
"432 907 CURVE SMOOTH",
"432 922 OFFCURVE",
"420 937 OFFCURVE",
"398 937 CURVE SMOOTH",
"377 937 OFFCURVE",
"362 921 OFFCURVE",
"354 914 CURVE SMOOTH",
"239 807 LINE",
"256 782 LINE"
);
}
);
};
components = (
{
name = E;
},
{
name = acutecomb;
transform = "{1, 0, 0, 1, 70, 230}";
}
);
layerId = "0B1DFD06-3317-40CA-B510-4969A0718C16";
width = 535;
}
);
note = Eacute;
unicode = 00C9;
},
{
glyphname = Ebreve;
lastChange = "2018-01-22 16:25:26 +0000";
layers = (
{
background = {
paths = (
{
closed = 1;
nodes = (
"554 0 LINE",
"571 179 LINE",
"544 179 LINE",
"538 124 OFFCURVE",
"520 40 OFFCURVE",
"456 40 CURVE SMOOTH",
"201 40 LINE",
"201 659 LINE",
"441 659 LINE SMOOTH",
"516 659 OFFCURVE",
"525 567 OFFCURVE",
"528 527 CURVE",
"555 527 LINE",
"555 700 LINE",
"16 700 LINE",
"16 673 LINE",
"44 673 LINE SMOOTH",
"83 673 OFFCURVE",
"103 662 OFFCURVE",
"103 637 CURVE SMOOTH",
"103 62 LINE SMOOTH",
"103 37 OFFCURVE",
"83 26 OFFCURVE",
"44 26 CURVE SMOOTH",
"16 26 LINE",
"16 0 LINE"
);
},
{
closed = 1;
nodes = (
"455 251 LINE",
"455 485 LINE",
"431 485 LINE",
"427 436 OFFCURVE",
"424 388 OFFCURVE",
"379 388 CURVE SMOOTH",
"162 388 LINE",
"162 348 LINE",
"379 348 LINE SMOOTH",
"424 348 OFFCURVE",
"427 300 OFFCURVE",
"431 251 CURVE"
);
},
{
closed = 1;
nodes = (
"432 776 OFFCURVE",
"474 832 OFFCURVE",
"478 907 CURVE",
"445 907 LINE",
"439 848 OFFCURVE",
"397 822 OFFCURVE",
"333 822 CURVE SMOOTH",
"269 822 OFFCURVE",
"226 848 OFFCURVE",
"219 907 CURVE",
"186 907 LINE",
"190 829 OFFCURVE",
"232 776 OFFCURVE",
"333 776 CURVE SMOOTH"
);
}
);
};
components = (
{
name = E;
},
{
name = brevecomb;
transform = "{1, 0, 0, 1, 268, 230}";
}
);
layerId = "0B1DFD06-3317-40CA-B510-4969A0718C16";
width = 535;
}
);
note = Ebreve;
unicode = 0114;
},
{
glyphname = Ecaron;
lastChange = "2017-12-19 05:21:12 +0000";
layers = (
{
background = {
paths = (
{
closed = 1;
nodes = (
"554 0 LINE",
"571 179 LINE",
"544 179 LINE",
"538 124 OFFCURVE",
"520 40 OFFCURVE",
"456 40 CURVE SMOOTH",
"201 40 LINE",
"201 659 LINE",
"441 659 LINE SMOOTH",
"516 659 OFFCURVE",
"525 567 OFFCURVE",
"528 527 CURVE",
"555 527 LINE",
"555 700 LINE",
"16 700 LINE",
"16 673 LINE",
"44 673 LINE SMOOTH",
"83 673 OFFCURVE",
"103 662 OFFCURVE",
"103 637 CURVE SMOOTH",
"103 62 LINE SMOOTH",
"103 37 OFFCURVE",
"83 26 OFFCURVE",
"44 26 CURVE SMOOTH",
"16 26 LINE",
"16 0 LINE"
);
},
{
closed = 1;
nodes = (
"455 251 LINE",
"455 485 LINE",
"431 485 LINE",
"427 436 OFFCURVE",
"424 388 OFFCURVE",
"379 388 CURVE SMOOTH",
"162 388 LINE",
"162 348 LINE",
"379 348 LINE SMOOTH",
"424 348 OFFCURVE",
"427 300 OFFCURVE",
"431 251 CURVE"
);
},
{
closed = 1;
nodes = (
"357 782 LINE",
"481 911 LINE",
"462 932 LINE",
"354 847 LINE",
"346 840 OFFCURVE",
"337 836 OFFCURVE",
"331 836 CURVE SMOOTH",
"325 836 OFFCURVE",
"317 840 OFFCURVE",
"307 847 CURVE",
"199 932 LINE",
"180 911 LINE",
"304 782 LINE"
);
}
);
};
components = (
{
name = E;
},
{
name = caron;
transform = "{1, 0, 0, 1, 68, 230}";
}
);
layerId = "0B1DFD06-3317-40CA-B510-4969A0718C16";
width = 607;
}
);
note = Ecaron;
unicode = 011A;
},
{
glyphname = Ecircumflex;
lastChange = "2017-12-19 05:21:12 +0000";
layers = (
{
background = {
paths = (
{
closed = 1;
nodes = (
"554 0 LINE",
"571 179 LINE",
"544 179 LINE",
"538 124 OFFCURVE",
"520 40 OFFCURVE",
"456 40 CURVE SMOOTH",
"201 40 LINE",
"201 659 LINE",
"441 659 LINE SMOOTH",
"516 659 OFFCURVE",
"525 567 OFFCURVE",
"528 527 CURVE",
"555 527 LINE",
"555 700 LINE",
"16 700 LINE",
"16 673 LINE",
"44 673 LINE SMOOTH",
"83 673 OFFCURVE",
"103 662 OFFCURVE",
"103 637 CURVE SMOOTH",
"103 62 LINE SMOOTH",
"103 37 OFFCURVE",
"83 26 OFFCURVE",
"44 26 CURVE SMOOTH",
"16 26 LINE",
"16 0 LINE"
);
},
{
closed = 1;
nodes = (
"455 251 LINE",
"455 485 LINE",
"431 485 LINE",
"427 436 OFFCURVE",
"424 388 OFFCURVE",
"379 388 CURVE SMOOTH",
"162 388 LINE",
"162 348 LINE",
"379 348 LINE SMOOTH",
"424 348 OFFCURVE",
"427 300 OFFCURVE",
"431 251 CURVE"
);
},
{
closed = 1;
nodes = (
"304 868 LINE SMOOTH",
"312 874 OFFCURVE",
"322 879 OFFCURVE",
"328 879 CURVE SMOOTH",
"334 879 OFFCURVE",
"342 874 OFFCURVE",
"351 868 CURVE",
"459 782 LINE",
"478 803 LINE",
"354 932 LINE",
"301 932 LINE",
"177 803 LINE",
"196 782 LINE"
);
}
);
};
components = (
{
name = E;
},
{
name = circumflex;
transform = "{1, 0, 0, 1, 68, 230}";
}
);
layerId = "0B1DFD06-3317-40CA-B510-4969A0718C16";
width = 607;
}
);
note = Ecircumflex;
unicode = 00CA;
},
{
glyphname = Ecircumflexacute;
lastChange = "2018-01-22 16:25:26 +0000";
layers = (
{
background = {
paths = (
{
closed = 1;
nodes = (
"554 0 LINE",
"571 179 LINE",
"544 179 LINE",
"538 124 OFFCURVE",
"520 40 OFFCURVE",
"456 40 CURVE SMOOTH",
"201 40 LINE",
"201 659 LINE",
"441 659 LINE SMOOTH",
"516 659 OFFCURVE",
"525 567 OFFCURVE",
"528 527 CURVE",
"555 527 LINE",
"555 700 LINE",
"16 700 LINE",
"16 673 LINE",
"44 673 LINE SMOOTH",
"83 673 OFFCURVE",
"103 662 OFFCURVE",
"103 637 CURVE SMOOTH",
"103 62 LINE SMOOTH",
"103 37 OFFCURVE",
"83 26 OFFCURVE",
"44 26 CURVE SMOOTH",
"16 26 LINE",
"16 0 LINE"
);
},
{
closed = 1;
nodes = (
"455 251 LINE",
"455 485 LINE",
"431 485 LINE",
"427 436 OFFCURVE",
"424 388 OFFCURVE",
"379 388 CURVE SMOOTH",
"162 388 LINE",
"162 348 LINE",
"379 348 LINE SMOOTH",
"424 348 OFFCURVE",
"427 300 OFFCURVE",
"431 251 CURVE"
);
},
{
closed = 1;
nodes = (
"290 862 LINE SMOOTH",
"300 870 OFFCURVE",
"310 878 OFFCURVE",
"318 878 CURVE SMOOTH",
"324 878 OFFCURVE",
"332 873 OFFCURVE",
"341 867 CURVE",
"447 781 LINE",
"466 803 LINE",
"344 932 LINE",
"293 932 LINE",
"171 803 LINE",
"189 781 LINE"
);
},
{
closed = 1;
nodes = (
"555 960 LINE SMOOTH",
"578 972 OFFCURVE",
"591 988 OFFCURVE",
"591 1003 CURVE SMOOTH",
"591 1017 OFFCURVE",
"580 1034 OFFCURVE",
"557 1034 CURVE SMOOTH",
"538 1034 OFFCURVE",
"521 1018 OFFCURVE",
"511 1008 CURVE SMOOTH",
"415 915 LINE",
"433 893 LINE"
);
}
);
};
components = (
{
name = E;
},
{
name = circumflexacute;
transform = "{1, 0, 0, 1, 518, 230}";
}
);
layerId = "0B1DFD06-3317-40CA-B510-4969A0718C16";
width = 535;
}
);
note = Ecircumflexacute;
unicode = 1EBE;
},
{
glyphname = Ecircumflexdotbelow;
lastChange = "2018-01-03 16:25:06 +0000";
layers = (
{
background = {
paths = (
{
closed = 1;
nodes = (
"554 0 LINE",
"571 179 LINE",
"544 179 LINE",
"538 124 OFFCURVE",
"520 40 OFFCURVE",
"456 40 CURVE SMOOTH",
"201 40 LINE",
"201 659 LINE",
"441 659 LINE SMOOTH",
"516 659 OFFCURVE",
"525 567 OFFCURVE",
"528 527 CURVE",
"555 527 LINE",
"555 700 LINE",
"16 700 LINE",
"16 673 LINE",
"44 673 LINE SMOOTH",
"83 673 OFFCURVE",
"103 662 OFFCURVE",
"103 637 CURVE SMOOTH",
"103 62 LINE SMOOTH",
"103 37 OFFCURVE",
"83 26 OFFCURVE",
"44 26 CURVE SMOOTH",
"16 26 LINE",
"16 0 LINE"
);
},
{
closed = 1;
nodes = (
"350 -159 OFFCURVE",
"368 -140 OFFCURVE",
"368 -112 CURVE SMOOTH",
"368 -84 OFFCURVE",
"350 -64 OFFCURVE",
"322 -64 CURVE SMOOTH",
"294 -64 OFFCURVE",
"275 -84 OFFCURVE",
"275 -112 CURVE SMOOTH",
"275 -140 OFFCURVE",
"294 -159 OFFCURVE",
"322 -159 CURVE SMOOTH"
);
},
{
closed = 1;
nodes = (
"455 251 LINE",
"455 485 LINE",
"431 485 LINE",
"427 436 OFFCURVE",
"424 388 OFFCURVE",
"379 388 CURVE SMOOTH",
"162 388 LINE",
"162 348 LINE",
"379 348 LINE SMOOTH",
"424 348 OFFCURVE",
"427 300 OFFCURVE",
"431 251 CURVE"
);
},
{
closed = 1;
nodes = (
"294 868 LINE SMOOTH",
"302 874 OFFCURVE",
"312 879 OFFCURVE",
"318 879 CURVE SMOOTH",
"324 879 OFFCURVE",
"332 874 OFFCURVE",
"341 868 CURVE",
"449 782 LINE",
"468 803 LINE",
"344 932 LINE",
"291 932 LINE",
"167 803 LINE",
"186 782 LINE"
);
}
);
};
components = (
{
name = E;
},
{
name = dotbelowcomb;
transform = "{1, 0, 0, 1, 125, 0}";
},
{
name = circumflex;
transform = "{1, 0, 0, 1, 68, 230}";
}
);
layerId = "0B1DFD06-3317-40CA-B510-4969A0718C16";
width = 607;
}
);
note = Ecircumflexdotbelow;
unicode = 1EC6;
},
{
glyphname = Ecircumflexgrave;
lastChange = "2018-01-22 16:25:26 +0000";
layers = (
{
background = {
paths = (
{
closed = 1;
nodes = (
"554 0 LINE",
"571 179 LINE",
"544 179 LINE",
"538 124 OFFCURVE",
"520 40 OFFCURVE",
"456 40 CURVE SMOOTH",
"201 40 LINE",
"201 659 LINE",
"441 659 LINE SMOOTH",
"516 659 OFFCURVE",
"525 567 OFFCURVE",
"528 527 CURVE",
"555 527 LINE",
"555 700 LINE",
"16 700 LINE",
"16 673 LINE",
"44 673 LINE SMOOTH",
"83 673 OFFCURVE",
"103 662 OFFCURVE",
"103 637 CURVE SMOOTH",
"103 62 LINE SMOOTH",
"103 37 OFFCURVE",
"83 26 OFFCURVE",
"44 26 CURVE SMOOTH",
"16 26 LINE",
"16 0 LINE"
);
},
{
closed = 1;
nodes = (
"455 251 LINE",
"455 485 LINE",
"431 485 LINE",
"427 436 OFFCURVE",
"424 388 OFFCURVE",
"379 388 CURVE SMOOTH",
"162 388 LINE",
"162 348 LINE",
"379 348 LINE SMOOTH",
"424 348 OFFCURVE",
"427 300 OFFCURVE",
"431 251 CURVE"
);
},
{
closed = 1;
nodes = (
"227 915 LINE",
"132 1008 LINE SMOOTH",
"122 1018 OFFCURVE",
"105 1034 OFFCURVE",
"85 1034 CURVE SMOOTH",
"63 1034 OFFCURVE",
"52 1017 OFFCURVE",
"52 1003 CURVE SMOOTH",
"52 988 OFFCURVE",
"65 972 OFFCURVE",
"88 960 CURVE SMOOTH",
"210 893 LINE"
);
},
{
closed = 1;
nodes = (
"290 862 LINE SMOOTH",
"300 870 OFFCURVE",
"310 878 OFFCURVE",
"318 878 CURVE SMOOTH",
"324 878 OFFCURVE",
"332 873 OFFCURVE",
"341 867 CURVE",
"447 781 LINE",
"466 803 LINE",
"344 932 LINE",
"293 932 LINE",
"171 803 LINE",
"189 781 LINE"
);
}
);
};
components = (
{
name = E;
},
{
name = circumflexgrave;
transform = "{1, 0, 0, 1, 518, 230}";
}
);
layerId = "0B1DFD06-3317-40CA-B510-4969A0718C16";
width = 535;
}
);
note = Ecircumflexgrave;
unicode = 1EC0;
},
{
glyphname = Ecircumflexhookabove;
lastChange = "2018-01-22 16:25:26 +0000";
layers = (
{
background = {
paths = (
{
closed = 1;
nodes = (
"554 0 LINE",
"571 179 LINE",
"544 179 LINE",
"538 124 OFFCURVE",
"520 40 OFFCURVE",
"456 40 CURVE SMOOTH",
"201 40 LINE",
"201 659 LINE",
"441 659 LINE SMOOTH",
"516 659 OFFCURVE",
"525 567 OFFCURVE",
"528 527 CURVE",
"555 527 LINE",
"555 700 LINE",
"16 700 LINE",
"16 673 LINE",
"44 673 LINE SMOOTH",
"83 673 OFFCURVE",
"103 662 OFFCURVE",
"103 637 CURVE SMOOTH",
"103 62 LINE SMOOTH",
"103 37 OFFCURVE",
"83 26 OFFCURVE",
"44 26 CURVE SMOOTH",
"16 26 LINE",
"16 0 LINE"
);
},
{
closed = 1;
nodes = (
"455 251 LINE",
"455 485 LINE",
"431 485 LINE",
"427 436 OFFCURVE",
"424 388 OFFCURVE",
"379 388 CURVE SMOOTH",
"162 388 LINE",
"162 348 LINE",
"379 348 LINE SMOOTH",
"424 348 OFFCURVE",
"427 300 OFFCURVE",
"431 251 CURVE"
);
},
{
closed = 1;
nodes = (
"286 858 LINE",
"297 868 OFFCURVE",
"309 878 OFFCURVE",
"318 878 CURVE SMOOTH",
"324 878 OFFCURVE",
"332 873 OFFCURVE",
"341 867 CURVE",
"447 781 LINE",
"466 803 LINE",
"344 932 LINE",
"293 932 LINE",
"171 803 LINE",
"189 781 LINE"
);
},
{
closed = 1;
nodes = (
"493 898 LINE",
"474 905 OFFCURVE",
"464 912 OFFCURVE",
"464 926 CURVE SMOOTH",
"464 954 OFFCURVE",
"544 965 OFFCURVE",
"544 1010 CURVE SMOOTH",
"544 1047 OFFCURVE",
"502 1063 OFFCURVE",
"460 1063 CURVE SMOOTH",
"429 1063 OFFCURVE",
"384 1053 OFFCURVE",
"384 1022 CURVE SMOOTH",
"384 1010 OFFCURVE",
"395 1001 OFFCURVE",
"405 1001 CURVE SMOOTH",
"434 1001 OFFCURVE",
"421 1040 OFFCURVE",
"464 1040 CURVE SMOOTH",
"483 1040 OFFCURVE",
"494 1028 OFFCURVE",
"494 1013 CURVE SMOOTH",
"494 973 OFFCURVE",
"421 965 OFFCURVE",
"421 925 CURVE SMOOTH",
"421 901 OFFCURVE",
"437 880 OFFCURVE",
"484 880 CURVE"
);
}
);
};
components = (
{
name = E;
},
{
name = circumflexhookabove;
transform = "{1, 0, 0, 1, 518, 230}";
}
);
layerId = "0B1DFD06-3317-40CA-B510-4969A0718C16";
width = 535;
}
);
note = Ecircumflexhookabove;
unicode = 1EC2;
},
{
glyphname = Ecircumflextilde;
lastChange = "2018-01-22 16:25:26 +0000";
layers = (
{
background = {
paths = (
{
closed = 1;
nodes = (
"554 0 LINE",
"571 179 LINE",
"544 179 LINE",
"538 124 OFFCURVE",
"520 40 OFFCURVE",
"456 40 CURVE SMOOTH",
"201 40 LINE",
"201 659 LINE",
"441 659 LINE SMOOTH",
"516 659 OFFCURVE",
"525 567 OFFCURVE",
"528 527 CURVE",
"555 527 LINE",
"555 700 LINE",
"16 700 LINE",
"16 673 LINE",
"44 673 LINE SMOOTH",
"83 673 OFFCURVE",
"103 662 OFFCURVE",
"103 637 CURVE SMOOTH",
"103 62 LINE SMOOTH",
"103 37 OFFCURVE",
"83 26 OFFCURVE",
"44 26 CURVE SMOOTH",
"16 26 LINE",
"16 0 LINE"
);
},
{
closed = 1;
nodes = (
"455 251 LINE",
"455 485 LINE",
"431 485 LINE",
"427 436 OFFCURVE",
"424 388 OFFCURVE",
"379 388 CURVE SMOOTH",
"162 388 LINE",
"162 348 LINE",
"379 348 LINE SMOOTH",
"424 348 OFFCURVE",
"427 300 OFFCURVE",
"431 251 CURVE"
);
},
{
closed = 1;
nodes = (
"290 862 LINE SMOOTH",
"300 870 OFFCURVE",
"310 878 OFFCURVE",
"318 878 CURVE SMOOTH",
"324 878 OFFCURVE",
"332 873 OFFCURVE",
"341 867 CURVE",
"447 781 LINE",
"466 803 LINE",
"344 932 LINE",
"293 932 LINE",
"171 803 LINE",
"189 781 LINE"
);
},
{
closed = 1;
nodes = (
"193 997 OFFCURVE",
"211 1018 OFFCURVE",
"242 1018 CURVE SMOOTH",
"291 1018 OFFCURVE",
"338 964 OFFCURVE",
"387 964 CURVE SMOOTH",
"440 964 OFFCURVE",
"469 1012 OFFCURVE",
"481 1063 CURVE",
"460 1075 LINE",
"447 1035 OFFCURVE",
"431 1012 OFFCURVE",
"398 1012 CURVE SMOOTH",
"351 1012 OFFCURVE",
"302 1065 OFFCURVE",
"253 1065 CURVE SMOOTH",
"202 1065 OFFCURVE",
"170 1021 OFFCURVE",
"160 970 CURVE",
"180 958 LINE"
);
}
);
};
components = (
{
name = E;
},
{
name = circumflextilde;
transform = "{1, 0, 0, 1, 518, 230}";
}
);
layerId = "0B1DFD06-3317-40CA-B510-4969A0718C16";
width = 535;
}
);
note = Ecircumflextilde;
unicode = 1EC4;
},
{
glyphname = Edieresis;
lastChange = "2017-12-19 05:21:12 +0000";
layers = (
{
background = {
paths = (
{
closed = 1;
nodes = (
"554 0 LINE",
"571 179 LINE",
"544 179 LINE",
"538 124 OFFCURVE",
"520 40 OFFCURVE",
"456 40 CURVE SMOOTH",
"201 40 LINE",
"201 659 LINE",
"441 659 LINE SMOOTH",
"516 659 OFFCURVE",
"525 567 OFFCURVE",
"528 527 CURVE",
"555 527 LINE",
"555 700 LINE",
"16 700 LINE",
"16 673 LINE",
"44 673 LINE SMOOTH",
"83 673 OFFCURVE",
"103 662 OFFCURVE",
"103 637 CURVE SMOOTH",
"103 62 LINE SMOOTH",
"103 37 OFFCURVE",
"83 26 OFFCURVE",
"44 26 CURVE SMOOTH",
"16 26 LINE",
"16 0 LINE"
);
},
{
closed = 1;
nodes = (
"455 251 LINE",
"455 485 LINE",
"431 485 LINE",
"427 436 OFFCURVE",
"424 388 OFFCURVE",
"379 388 CURVE SMOOTH",
"162 388 LINE",
"162 348 LINE",
"379 348 LINE SMOOTH",
"424 348 OFFCURVE",
"427 300 OFFCURVE",
"431 251 CURVE"
);
},
{
closed = 1;
nodes = (
"254 781 OFFCURVE",
"272 800 OFFCURVE",
"272 827 CURVE SMOOTH",
"272 855 OFFCURVE",
"254 875 OFFCURVE",
"225 875 CURVE SMOOTH",
"197 875 OFFCURVE",
"179 855 OFFCURVE",
"179 827 CURVE SMOOTH",
"179 800 OFFCURVE",
"197 781 OFFCURVE",
"225 781 CURVE SMOOTH"
);
},
{
closed = 1;
nodes = (
"470 781 OFFCURVE",
"488 800 OFFCURVE",
"488 827 CURVE SMOOTH",
"488 855 OFFCURVE",
"470 875 OFFCURVE",
"441 875 CURVE SMOOTH",
"412 875 OFFCURVE",
"394 855 OFFCURVE",
"394 827 CURVE SMOOTH",
"394 800 OFFCURVE",
"412 781 OFFCURVE",
"441 781 CURVE SMOOTH"
);
}
);
};
components = (
{
name = E;
},
{
name = dieresis;
transform = "{1, 0, 0, 1, 68, 230}";
}
);
layerId = "0B1DFD06-3317-40CA-B510-4969A0718C16";
width = 607;
}
);
note = Edieresis;
unicode = 00CB;
},
{
glyphname = Edotaccent;
lastChange = "2017-12-19 05:21:12 +0000";
layers = (
{
background = {
paths = (
{
closed = 1;
nodes = (
"554 0 LINE",
"571 179 LINE",
"544 179 LINE",
"538 124 OFFCURVE",
"520 40 OFFCURVE",
"456 40 CURVE SMOOTH",
"201 40 LINE",
"201 659 LINE",
"441 659 LINE SMOOTH",
"516 659 OFFCURVE",
"525 567 OFFCURVE",
"528 527 CURVE",
"555 527 LINE",
"555 700 LINE",
"16 700 LINE",
"16 673 LINE",
"44 673 LINE SMOOTH",
"83 673 OFFCURVE",
"103 662 OFFCURVE",
"103 637 CURVE SMOOTH",
"103 62 LINE SMOOTH",
"103 37 OFFCURVE",
"83 26 OFFCURVE",
"44 26 CURVE SMOOTH",
"16 26 LINE",
"16 0 LINE"
);
},
{
closed = 1;
nodes = (
"455 251 LINE",
"455 485 LINE",
"431 485 LINE",
"427 436 OFFCURVE",
"424 388 OFFCURVE",
"379 388 CURVE SMOOTH",
"162 388 LINE",
"162 348 LINE",
"379 348 LINE SMOOTH",
"424 348 OFFCURVE",
"427 300 OFFCURVE",
"431 251 CURVE"
);
},
{
closed = 1;
nodes = (
"362 765 OFFCURVE",
"380 784 OFFCURVE",
"380 811 CURVE SMOOTH",
"380 839 OFFCURVE",
"362 858 OFFCURVE",
"334 858 CURVE SMOOTH",
"305 858 OFFCURVE",
"287 839 OFFCURVE",
"287 811 CURVE SMOOTH",
"287 784 OFFCURVE",
"305 765 OFFCURVE",
"334 765 CURVE SMOOTH"
);
}
);
};
components = (
{
name = E;
},
{
name = dotaccent;
transform = "{1, 0, 0, 1, 68, 230}";
}
);
layerId = "0B1DFD06-3317-40CA-B510-4969A0718C16";
width = 607;
}
);
note = Edotaccent;
unicode = 0116;
},
{
glyphname = Edotbelow;
lastChange = "2018-01-03 16:25:06 +0000";
layers = (
{
background = {
paths = (
{
closed = 1;
nodes = (
"554 0 LINE",
"571 179 LINE",
"544 179 LINE",
"538 124 OFFCURVE",
"520 40 OFFCURVE",
"456 40 CURVE SMOOTH",
"201 40 LINE",
"201 659 LINE",
"441 659 LINE SMOOTH",
"516 659 OFFCURVE",
"525 567 OFFCURVE",
"528 527 CURVE",
"555 527 LINE",
"555 700 LINE",
"16 700 LINE",
"16 673 LINE",
"44 673 LINE SMOOTH",
"83 673 OFFCURVE",
"103 662 OFFCURVE",
"103 637 CURVE SMOOTH",
"103 62 LINE SMOOTH",
"103 37 OFFCURVE",
"83 26 OFFCURVE",
"44 26 CURVE SMOOTH",
"16 26 LINE",
"16 0 LINE"
);
},
{
closed = 1;
nodes = (
"343 -159 OFFCURVE",
"361 -140 OFFCURVE",
"361 -112 CURVE SMOOTH",
"361 -84 OFFCURVE",
"343 -64 OFFCURVE",
"315 -64 CURVE SMOOTH",
"287 -64 OFFCURVE",
"268 -84 OFFCURVE",
"268 -112 CURVE SMOOTH",
"268 -140 OFFCURVE",
"287 -159 OFFCURVE",
"315 -159 CURVE SMOOTH"
);
},
{
closed = 1;
nodes = (
"455 251 LINE",
"455 485 LINE",
"431 485 LINE",
"427 436 OFFCURVE",
"424 388 OFFCURVE",
"379 388 CURVE SMOOTH",
"162 388 LINE",
"162 348 LINE",
"379 348 LINE SMOOTH",
"424 348 OFFCURVE",
"427 300 OFFCURVE",
"431 251 CURVE"
);
}
);
};
components = (
{
name = E;
},
{
name = dotbelowcomb;
transform = "{1, 0, 0, 1, 125, 0}";
}
);
layerId = "0B1DFD06-3317-40CA-B510-4969A0718C16";
width = 535;
}
);
note = Edotbelow;
unicode = 1EB8;
},
{
glyphname = Egrave;
lastChange = "2017-12-19 05:21:12 +0000";
layers = (
{
background = {
paths = (
{
closed = 1;
nodes = (
"554 0 LINE",
"571 179 LINE",
"544 179 LINE",
"538 124 OFFCURVE",
"520 40 OFFCURVE",
"456 40 CURVE SMOOTH",
"201 40 LINE",
"201 659 LINE",
"441 659 LINE SMOOTH",
"516 659 OFFCURVE",
"525 567 OFFCURVE",
"528 527 CURVE",
"555 527 LINE",
"555 700 LINE",
"16 700 LINE",
"16 673 LINE",
"44 673 LINE SMOOTH",
"83 673 OFFCURVE",
"103 662 OFFCURVE",
"103 637 CURVE SMOOTH",
"103 62 LINE SMOOTH",
"103 37 OFFCURVE",
"83 26 OFFCURVE",
"44 26 CURVE SMOOTH",
"16 26 LINE",
"16 0 LINE"
);
},
{
closed = 1;
nodes = (
"455 251 LINE",
"455 485 LINE",
"431 485 LINE",
"427 436 OFFCURVE",
"424 388 OFFCURVE",
"379 388 CURVE SMOOTH",
"162 388 LINE",
"162 348 LINE",
"379 348 LINE SMOOTH",
"424 348 OFFCURVE",
"427 300 OFFCURVE",
"431 251 CURVE"
);
},
{
closed = 1;
nodes = (
"425 807 LINE",
"310 913 LINE",
"301 922 OFFCURVE",
"285 937 OFFCURVE",
"265 937 CURVE SMOOTH",
"245 937 OFFCURVE",
"233 924 OFFCURVE",
"233 908 CURVE SMOOTH",
"233 890 OFFCURVE",
"245 876 OFFCURVE",
"264 865 CURVE SMOOTH",
"407 782 LINE"
);
}
);
};
components = (
{
name = E;
},
{
name = grave;
transform = "{1, 0, 0, 1, 68, 230}";
}
);
layerId = "0B1DFD06-3317-40CA-B510-4969A0718C16";
width = 607;
}
);
note = Egrave;
unicode = 00C8;
},
{
glyphname = Ehookabove;
lastChange = "2018-01-22 16:25:26 +0000";
layers = (
{
background = {
paths = (
{
closed = 1;
nodes = (
"554 0 LINE",
"571 179 LINE",
"544 179 LINE",
"538 124 OFFCURVE",
"520 40 OFFCURVE",
"456 40 CURVE SMOOTH",
"201 40 LINE",
"201 659 LINE",
"441 659 LINE SMOOTH",
"516 659 OFFCURVE",
"525 567 OFFCURVE",
"528 527 CURVE",
"555 527 LINE",
"555 700 LINE",
"16 700 LINE",
"16 673 LINE",
"44 673 LINE SMOOTH",
"83 673 OFFCURVE",
"103 662 OFFCURVE",
"103 637 CURVE SMOOTH",
"103 62 LINE SMOOTH",
"103 37 OFFCURVE",
"83 26 OFFCURVE",
"44 26 CURVE SMOOTH",
"16 26 LINE",
"16 0 LINE"
);
},
{
closed = 1;
nodes = (
"455 251 LINE",
"455 485 LINE",
"431 485 LINE",
"427 436 OFFCURVE",
"424 388 OFFCURVE",
"379 388 CURVE SMOOTH",
"162 388 LINE",
"162 348 LINE",
"379 348 LINE SMOOTH",
"424 348 OFFCURVE",
"427 300 OFFCURVE",
"431 251 CURVE"
);
},
{
closed = 1;
nodes = (
"367 798 LINE",
"348 805 OFFCURVE",
"336 811 OFFCURVE",
"336 828 CURVE SMOOTH",
"336 861 OFFCURVE",
"425 876 OFFCURVE",
"425 927 CURVE SMOOTH",
"425 969 OFFCURVE",
"389 991 OFFCURVE",
"336 991 CURVE SMOOTH",
"289 991 OFFCURVE",
"248 974 OFFCURVE",
"248 940 CURVE SMOOTH",
"248 923 OFFCURVE",
"256 915 OFFCURVE",
"271 915 CURVE SMOOTH",
"294 915 OFFCURVE",
"296 934 OFFCURVE",
"299 942 CURVE SMOOTH",
"304 956 OFFCURVE",
"321 962 OFFCURVE",
"337 962 CURVE SMOOTH",
"358 962 OFFCURVE",
"371 947 OFFCURVE",
"371 930 CURVE SMOOTH",
"371 885 OFFCURVE",
"289 874 OFFCURVE",
"289 828 CURVE SMOOTH",
"289 801 OFFCURVE",
"307 778 OFFCURVE",
"358 778 CURVE"
);
}
);
};
components = (
{
name = E;
},
{
name = hookabovecomb;
transform = "{1, 0, 0, 1, -33, 230}";
}
);
layerId = "0B1DFD06-3317-40CA-B510-4969A0718C16";
width = 535;
}
);
note = Ehookabove;
unicode = 1EBA;
},
{
glyphname = Emacron;
lastChange = "2017-12-19 05:21:12 +0000";
layers = (
{
background = {
paths = (
{
closed = 1;
nodes = (
"554 0 LINE",
"571 179 LINE",
"544 179 LINE",
"538 124 OFFCURVE",
"520 40 OFFCURVE",
"456 40 CURVE SMOOTH",
"201 40 LINE",
"201 659 LINE",
"441 659 LINE SMOOTH",
"516 659 OFFCURVE",
"525 567 OFFCURVE",
"528 527 CURVE",
"555 527 LINE",
"555 700 LINE",
"16 700 LINE",
"16 673 LINE",
"44 673 LINE SMOOTH",
"83 673 OFFCURVE",
"103 662 OFFCURVE",
"103 637 CURVE SMOOTH",
"103 62 LINE SMOOTH",
"103 37 OFFCURVE",
"83 26 OFFCURVE",
"44 26 CURVE SMOOTH",
"16 26 LINE",
"16 0 LINE"
);
},
{
closed = 1;
nodes = (
"455 251 LINE",
"455 485 LINE",
"431 485 LINE",
"427 436 OFFCURVE",
"424 388 OFFCURVE",
"379 388 CURVE SMOOTH",
"162 388 LINE",
"162 348 LINE",
"379 348 LINE SMOOTH",
"424 348 OFFCURVE",
"427 300 OFFCURVE",
"431 251 CURVE"
);
},
{
closed = 1;
nodes = (
"495 782 LINE",
"495 824 LINE",
"162 824 LINE",
"162 782 LINE"
);
}
);
};
components = (
{
name = E;
},
{
name = macron;
transform = "{1, 0, 0, 1, 68, 230}";
}
);
layerId = "0B1DFD06-3317-40CA-B510-4969A0718C16";
width = 607;
}
);
note = Emacron;
unicode = 0112;
},
{
glyphname = Eogonek;
lastChange = "2017-12-19 05:21:12 +0000";
layers = (
{
background = {
paths = (
{
closed = 1;
nodes = (
"554 0 LINE",
"571 179 LINE",
"544 179 LINE",
"538 124 OFFCURVE",
"520 40 OFFCURVE",
"456 40 CURVE SMOOTH",
"201 40 LINE",
"201 659 LINE",
"441 659 LINE SMOOTH",
"516 659 OFFCURVE",
"525 567 OFFCURVE",
"528 527 CURVE",
"555 527 LINE",
"555 700 LINE",
"16 700 LINE",
"16 673 LINE",
"44 673 LINE SMOOTH",
"83 673 OFFCURVE",
"103 662 OFFCURVE",
"103 637 CURVE SMOOTH",
"103 62 LINE SMOOTH",
"103 37 OFFCURVE",
"83 26 OFFCURVE",
"44 26 CURVE SMOOTH",
"16 26 LINE",
"16 0 LINE"
);
},
{
closed = 1;
nodes = (
"496 -196 OFFCURVE",
"524 -189 OFFCURVE",
"549 -172 CURVE",
"543 -152 LINE",
"527 -158 OFFCURVE",
"510 -162 OFFCURVE",
"497 -162 CURVE SMOOTH",
"464 -162 OFFCURVE",
"437 -146 OFFCURVE",
"437 -106 CURVE SMOOTH",
"437 -66 OFFCURVE",
"464 -26 OFFCURVE",
"510 4 CURVE",
"469 4 LINE",
"416 -22 OFFCURVE",
"376 -64 OFFCURVE",
"376 -114 CURVE SMOOTH",
"376 -147 OFFCURVE",
"395 -196 OFFCURVE",
"470 -196 CURVE SMOOTH"
);
},
{
closed = 1;
nodes = (
"455 251 LINE",
"455 485 LINE",
"431 485 LINE",
"427 436 OFFCURVE",
"424 388 OFFCURVE",
"379 388 CURVE SMOOTH",
"162 388 LINE",
"162 348 LINE",
"379 348 LINE SMOOTH",
"424 348 OFFCURVE",
"427 300 OFFCURVE",
"431 251 CURVE"
);
}
);
};
components = (
{
name = E;
},
{
name = ogonek;
transform = "{1, 0, 0, 1, 256, 0}";
}
);
layerId = "0B1DFD06-3317-40CA-B510-4969A0718C16";
width = 607;
}
);
note = Eogonek;
unicode = 0118;
},
{
glyphname = Etilde;
lastChange = "2017-12-19 05:21:12 +0000";
layers = (
{
background = {
paths = (
{
closed = 1;
nodes = (
"554 0 LINE",
"571 179 LINE",
"544 179 LINE",
"538 124 OFFCURVE",
"520 40 OFFCURVE",
"456 40 CURVE SMOOTH",
"201 40 LINE",
"201 659 LINE",
"441 659 LINE SMOOTH",
"516 659 OFFCURVE",
"525 567 OFFCURVE",
"528 527 CURVE",
"555 527 LINE",
"555 700 LINE",
"16 700 LINE",
"16 673 LINE",
"44 673 LINE SMOOTH",
"83 673 OFFCURVE",
"103 662 OFFCURVE",
"103 637 CURVE SMOOTH",
"103 62 LINE SMOOTH",
"103 37 OFFCURVE",
"83 26 OFFCURVE",
"44 26 CURVE SMOOTH",
"16 26 LINE",
"16 0 LINE"
);
},
{
closed = 1;
nodes = (
"455 251 LINE",
"455 485 LINE",
"431 485 LINE",
"427 436 OFFCURVE",
"424 388 OFFCURVE",
"379 388 CURVE SMOOTH",
"162 388 LINE",
"162 348 LINE",
"379 348 LINE SMOOTH",
"424 348 OFFCURVE",
"427 300 OFFCURVE",
"431 251 CURVE"
);
},
{
closed = 1;
nodes = (
"190 817 OFFCURVE",
"208 838 OFFCURVE",
"241 838 CURVE SMOOTH",
"292 838 OFFCURVE",
"341 784 OFFCURVE",
"392 784 CURVE SMOOTH",
"450 784 OFFCURVE",
"480 832 OFFCURVE",
"492 884 CURVE",
"471 895 LINE",
"455 855 OFFCURVE",
"439 833 OFFCURVE",
"405 833 CURVE SMOOTH",
"356 833 OFFCURVE",
"304 886 OFFCURVE",
"253 886 CURVE SMOOTH",
"199 886 OFFCURVE",
"166 842 OFFCURVE",
"154 790 CURVE",
"176 779 LINE"
);
}
);
};
components = (
{
name = E;
},
{
name = tilde;
transform = "{1, 0, 0, 1, 68, 230}";
}
);
layerId = "0B1DFD06-3317-40CA-B510-4969A0718C16";
width = 607;
}
);
note = Etilde;
unicode = 1EBC;
},
{
glyphname = Hbar;
lastChange = "2017-12-19 05:21:12 +0000";
layers = (
{
components = (
{
name = H;
}
);
layerId = "0B1DFD06-3317-40CA-B510-4969A0718C16";
paths = (
{
closed = 1;
nodes = (
"719 504 LINE",
"719 544 LINE",
"43 544 LINE",
"43 504 LINE"
);
}
);
width = 773;
}
);
note = Hbar;
unicode = 0126;
},
{
glyphname = Lslash;
lastChange = "2018-01-03 15:14:19 +0000";
layers = (
{
layerId = "0B1DFD06-3317-40CA-B510-4969A0718C16";
paths = (
{
closed = 1;
nodes = (
"224 34 OFFCURVE",
"335 36 OFFCURVE",
"423 33 CURVE SMOOTH",
"474 32 OFFCURVE",
"525 29 OFFCURVE",
"576 25 CURVE",
"587 26 OFFCURVE",
"593 31 OFFCURVE",
"594 43 CURVE SMOOTH",
"595 54 OFFCURVE",
"589 60 OFFCURVE",
"576 60 CURVE",
"526 63 OFFCURVE",
"477 65 OFFCURVE",
"427 66 CURVE SMOOTH",
"383 67 OFFCURVE",
"338 67 OFFCURVE",
"290 65 CURVE SMOOTH",
"241 64 OFFCURVE",
"199 60 OFFCURVE",
"162 52 CURVE",
"156 416 LINE",
"343 543 LINE",
"355 550 OFFCURVE",
"360 558 OFFCURVE",
"354 567 CURVE SMOOTH",
"349 576 OFFCURVE",
"342 579 OFFCURVE",
"331 573 CURVE",
"155 452 LINE",
"152 489 OFFCURVE",
"151 528 OFFCURVE",
"151 570 CURVE SMOOTH",
"151 641 OFFCURVE",
"150 736 OFFCURVE",
"162 836 CURVE",
"162 864 OFFCURVE",
"122 865 OFFCURVE",
"122 832 CURVE",
"117 723 OFFCURVE",
"115 626 OFFCURVE",
"115 552 CURVE SMOOTH",
"115 508 OFFCURVE",
"116 468 OFFCURVE",
"116 432 CURVE",
"2 350 LINE",
"-9 342 OFFCURVE",
"-11 333 OFFCURVE",
"-7 326 CURVE SMOOTH",
"-3 318 OFFCURVE",
"4 316 OFFCURVE",
"14 322 CURVE",
"116 395 LINE",
"116 33 LINE SMOOTH",
"116 30 OFFCURVE",
"117 27 OFFCURVE",
"118 25 CURVE",
"121 20 OFFCURVE",
"127 17 OFFCURVE",
"136 17 CURVE"
);
}
);
width = 615;
}
);
note = Lslash;
unicode = 0141;
},
{
glyphname = Nacute;
lastChange = "2018-01-22 17:23:06 +0000";
layers = (
{
background = {
paths = (
{
closed = 1;
nodes = (
"247 0 LINE",
"247 26 LINE",
"217 26 LINE SMOOTH",
"179 26 OFFCURVE",
"159 37 OFFCURVE",
"159 62 CURVE SMOOTH",
"159 642 LINE",
"587 0 LINE",
"645 0 LINE",
"645 637 LINE SMOOTH",
"645 662 OFFCURVE",
"665 673 OFFCURVE",
"703 673 CURVE SMOOTH",
"733 673 LINE",
"733 700 LINE",
"508 700 LINE",
"508 673 LINE",
"537 673 LINE SMOOTH",
"576 673 OFFCURVE",
"595 662 OFFCURVE",
"595 637 CURVE SMOOTH",
"595 126 LINE",
"217 700 LINE",
"22 700 LINE",
"22 673 LINE",
"51 673 LINE SMOOTH",
"90 673 OFFCURVE",
"109 662 OFFCURVE",
"109 637 CURVE SMOOTH",
"109 62 LINE SMOOTH",
"109 37 OFFCURVE",
"90 26 OFFCURVE",
"51 26 CURVE SMOOTH",
"22 26 LINE",
"22 0 LINE"
);
},
{
closed = 1;
nodes = (
"458 865 LINE SMOOTH",
"480 877 OFFCURVE",
"492 890 OFFCURVE",
"492 907 CURVE SMOOTH",
"492 922 OFFCURVE",
"480 937 OFFCURVE",
"458 937 CURVE SMOOTH",
"437 937 OFFCURVE",
"422 921 OFFCURVE",
"414 914 CURVE SMOOTH",
"299 807 LINE",
"316 782 LINE"
);
}
);
};
components = (
{
name = N;
},
{
name = acute;
transform = "{1, 0, 0, 1, 188, 230}";
}
);
layerId = "0B1DFD06-3317-40CA-B510-4969A0718C16";
width = 745;
}
);
note = Nacute;
unicode = 0143;
},
{
glyphname = Ncaron;
lastChange = "2017-12-19 05:21:12 +0000";
layers = (
{
background = {
paths = (
{
closed = 1;
nodes = (
"247 0 LINE",
"247 26 LINE",
"217 26 LINE SMOOTH",
"179 26 OFFCURVE",
"159 37 OFFCURVE",
"159 62 CURVE SMOOTH",
"159 642 LINE",
"587 0 LINE",
"645 0 LINE",
"645 637 LINE SMOOTH",
"645 662 OFFCURVE",
"665 673 OFFCURVE",
"703 673 CURVE SMOOTH",
"733 673 LINE",
"733 700 LINE",
"508 700 LINE",
"508 673 LINE",
"537 673 LINE SMOOTH",
"576 673 OFFCURVE",
"595 662 OFFCURVE",
"595 637 CURVE SMOOTH",
"595 126 LINE",
"217 700 LINE",
"22 700 LINE",
"22 673 LINE",
"51 673 LINE SMOOTH",
"90 673 OFFCURVE",
"109 662 OFFCURVE",
"109 637 CURVE SMOOTH",
"109 62 LINE SMOOTH",
"109 37 OFFCURVE",
"90 26 OFFCURVE",
"51 26 CURVE SMOOTH",
"22 26 LINE",
"22 0 LINE"
);
},
{
closed = 1;
nodes = (
"403 782 LINE",
"527 911 LINE",
"508 932 LINE",
"400 847 LINE",
"392 840 OFFCURVE",
"383 836 OFFCURVE",
"377 836 CURVE SMOOTH",
"371 836 OFFCURVE",
"363 840 OFFCURVE",
"353 847 CURVE",
"245 932 LINE",
"226 911 LINE",
"350 782 LINE"
);
}
);
};
components = (
{
name = N;
},
{
name = caron;
transform = "{1, 0, 0, 1, 132, 230}";
}
);
layerId = "0B1DFD06-3317-40CA-B510-4969A0718C16";
width = 755;
}
);
note = Ncaron;
unicode = 0147;
},
{
glyphname = Ncommaaccent;
lastChange = "2018-01-03 16:24:53 +0000";
layers = (
{
background = {
paths = (
{
closed = 1;
nodes = (
"247 0 LINE",
"247 26 LINE",
"217 26 LINE SMOOTH",
"179 26 OFFCURVE",
"159 37 OFFCURVE",
"159 62 CURVE SMOOTH",
"159 642 LINE",
"587 0 LINE",
"645 0 LINE",
"645 637 LINE SMOOTH",
"645 662 OFFCURVE",
"665 673 OFFCURVE",
"703 673 CURVE SMOOTH",
"733 673 LINE",
"733 700 LINE",
"508 700 LINE",
"508 673 LINE",
"537 673 LINE SMOOTH",
"576 673 OFFCURVE",
"595 662 OFFCURVE",
"595 637 CURVE SMOOTH",
"595 126 LINE",
"217 700 LINE",
"22 700 LINE",
"22 673 LINE",
"51 673 LINE SMOOTH",
"90 673 OFFCURVE",
"109 662 OFFCURVE",
"109 637 CURVE SMOOTH",
"109 62 LINE SMOOTH",
"109 37 OFFCURVE",
"90 26 OFFCURVE",
"51 26 CURVE SMOOTH",
"22 26 LINE",
"22 0 LINE"
);
},
{
closed = 1;
nodes = (
"369 -258 OFFCURVE",
"413 -198 OFFCURVE",
"413 -135 CURVE SMOOTH",
"413 -87 OFFCURVE",
"389 -67 OFFCURVE",
"360 -67 CURVE SMOOTH",
"331 -67 OFFCURVE",
"314 -87 OFFCURVE",
"314 -111 CURVE SMOOTH",
"314 -145 OFFCURVE",
"349 -152 OFFCURVE",
"349 -187 CURVE SMOOTH",
"349 -223 OFFCURVE",
"323 -256 OFFCURVE",
"296 -282 CURVE",
"313 -299 LINE"
);
}
);
};
components = (
{
name = N;
},
{
name = commaaccentcomb;
transform = "{1, 0, 0, 1, 123, 0}";
}
);
layerId = "0B1DFD06-3317-40CA-B510-4969A0718C16";
width = 745;
}
);
note = Ncommaaccent;
unicode = 0145;
},
{
glyphname = Ndotaccent;
lastChange = "2017-12-19 05:21:12 +0000";
layers = (
{
background = {
paths = (
{
closed = 1;
nodes = (
"247 0 LINE",
"247 26 LINE",
"217 26 LINE SMOOTH",
"179 26 OFFCURVE",
"159 37 OFFCURVE",
"159 62 CURVE SMOOTH",
"159 642 LINE",
"587 0 LINE",
"645 0 LINE",
"645 637 LINE SMOOTH",
"645 662 OFFCURVE",
"665 673 OFFCURVE",
"703 673 CURVE SMOOTH",
"733 673 LINE",
"733 700 LINE",
"508 700 LINE",
"508 673 LINE",
"537 673 LINE SMOOTH",
"576 673 OFFCURVE",
"595 662 OFFCURVE",
"595 637 CURVE SMOOTH",
"595 126 LINE",
"217 700 LINE",
"22 700 LINE",
"22 673 LINE",
"51 673 LINE SMOOTH",
"90 673 OFFCURVE",
"109 662 OFFCURVE",
"109 637 CURVE SMOOTH",
"109 62 LINE SMOOTH",
"109 37 OFFCURVE",
"90 26 OFFCURVE",
"51 26 CURVE SMOOTH",
"22 26 LINE",
"22 0 LINE"
);
},
{
closed = 1;
nodes = (
"405 765 OFFCURVE",
"423 784 OFFCURVE",
"423 811 CURVE SMOOTH",
"423 839 OFFCURVE",
"405 858 OFFCURVE",
"377 858 CURVE SMOOTH",
"348 858 OFFCURVE",
"330 839 OFFCURVE",
"330 811 CURVE SMOOTH",
"330 784 OFFCURVE",
"348 765 OFFCURVE",
"377 765 CURVE SMOOTH"
);
}
);
};
components = (
{
name = N;
},
{
name = dotaccent;
transform = "{1, 0, 0, 1, 132, 230}";
}
);
layerId = "0B1DFD06-3317-40CA-B510-4969A0718C16";
width = 755;
}
);
note = Ndotaccent;
unicode = 1E44;
},
{
glyphname = Ndotbelow;
lastChange = "2018-01-17 10:06:30 +0000";
layers = (
{
background = {
paths = (
{
closed = 1;
nodes = (
"247 0 LINE",
"247 26 LINE",
"217 26 LINE SMOOTH",
"179 26 OFFCURVE",
"159 37 OFFCURVE",
"159 62 CURVE SMOOTH",
"159 642 LINE",
"587 0 LINE",
"645 0 LINE",
"645 637 LINE SMOOTH",
"645 662 OFFCURVE",
"665 673 OFFCURVE",
"703 673 CURVE SMOOTH",
"733 673 LINE",
"733 700 LINE",
"508 700 LINE",
"508 673 LINE",
"537 673 LINE SMOOTH",
"576 673 OFFCURVE",
"595 662 OFFCURVE",
"595 637 CURVE SMOOTH",
"595 126 LINE",
"217 700 LINE",
"22 700 LINE",
"22 673 LINE",
"51 673 LINE SMOOTH",
"90 673 OFFCURVE",
"109 662 OFFCURVE",
"109 637 CURVE SMOOTH",
"109 62 LINE SMOOTH",
"109 37 OFFCURVE",
"90 26 OFFCURVE",
"51 26 CURVE SMOOTH",
"22 26 LINE",
"22 0 LINE"
);
},
{
closed = 1;
nodes = (
"415 -159 OFFCURVE",
"433 -140 OFFCURVE",
"433 -112 CURVE SMOOTH",
"433 -84 OFFCURVE",
"415 -64 OFFCURVE",
"387 -64 CURVE SMOOTH",
"359 -64 OFFCURVE",
"340 -84 OFFCURVE",
"340 -112 CURVE SMOOTH",
"340 -140 OFFCURVE",
"359 -159 OFFCURVE",
"387 -159 CURVE SMOOTH"
);
}
);
};
components = (
{
name = N;
},
{
name = dotbelowcomb;
transform = "{1, 0, 0, 1, 230, 0}";
}
);
layerId = "0B1DFD06-3317-40CA-B510-4969A0718C16";
width = 745;
}
);
note = uni1E46;
unicode = 1E46;
},
{
glyphname = Eng;
lastChange = "2018-01-17 10:12:50 +0000";
layers = (
{
background = {
paths = (
{
closed = 1;
nodes = (
"592 -259 OFFCURVE",
"645 -182 OFFCURVE",
"645 -36 CURVE SMOOTH",
"645 637 LINE SMOOTH",
"645 662 OFFCURVE",
"665 673 OFFCURVE",
"703 673 CURVE SMOOTH",
"733 673 LINE",
"733 700 LINE",
"508 700 LINE",
"508 673 LINE",
"537 673 LINE SMOOTH",
"576 673 OFFCURVE",
"595 662 OFFCURVE",
"595 637 CURVE SMOOTH",
"595 125 LINE",
"219 700 LINE",
"22 700 LINE",
"22 673 LINE",
"51 673 LINE SMOOTH",
"90 673 OFFCURVE",
"109 662 OFFCURVE",
"109 637 CURVE SMOOTH",
"109 62 LINE SMOOTH",
"109 37 OFFCURVE",
"93 26 OFFCURVE",
"51 26 CURVE SMOOTH",
"22 26 LINE",
"22 0 LINE",
"247 0 LINE",
"247 26 LINE",
"217 26 LINE SMOOTH",
"179 26 OFFCURVE",
"159 37 OFFCURVE",
"159 62 CURVE SMOOTH",
"159 647 LINE",
"586 0 LINE",
"586 -76 LINE SMOOTH",
"586 -173 OFFCURVE",
"510 -238 OFFCURVE",
"423 -243 CURVE",
"427 -268 LINE"
);
}
);
};
components = (
{
name = N;
}
);
layerId = "0B1DFD06-3317-40CA-B510-4969A0718C16";
paths = (
{
closed = 1;
nodes = (
"570 -236 OFFCURVE",
"639 -162 OFFCURVE",
"642 -3 CURVE SMOOTH",
"650 405 LINE SMOOTH",
"650 417 OFFCURVE",
"644 424 OFFCURVE",
"634 424 CURVE SMOOTH",
"623 424 OFFCURVE",
"619 417 OFFCURVE",
"619 405 CURVE SMOOTH",
"611 -3 LINE SMOOTH",
"609 -129 OFFCURVE",
"564 -209 OFFCURVE",
"482 -209 CURVE SMOOTH",
"436 -209 OFFCURVE",
"392 -184 OFFCURVE",
"392 -113 CURVE SMOOTH",
"392 -102 OFFCURVE",
"388 -95 OFFCURVE",
"375 -95 CURVE SMOOTH",
"363 -95 OFFCURVE",
"360 -100 OFFCURVE",
"360 -117 CURVE SMOOTH",
"360 -189 OFFCURVE",
"418 -236 OFFCURVE",
"485 -236 CURVE SMOOTH"
);
}
);
width = 755;
}
);
note = Eng;
unicode = 014A;
},
{
glyphname = Nlinebelow;
lastChange = "2018-01-22 17:24:12 +0000";
layers = (
{
background = {
paths = (
{
closed = 1;
nodes = (
"247 0 LINE",
"247 26 LINE",
"217 26 LINE SMOOTH",
"179 26 OFFCURVE",
"159 37 OFFCURVE",
"159 62 CURVE SMOOTH",
"159 642 LINE",
"587 0 LINE",
"645 0 LINE",
"645 637 LINE SMOOTH",
"645 662 OFFCURVE",
"665 673 OFFCURVE",
"703 673 CURVE SMOOTH",
"733 673 LINE",
"733 700 LINE",
"508 700 LINE",
"508 673 LINE",
"537 673 LINE SMOOTH",
"576 673 OFFCURVE",
"595 662 OFFCURVE",
"595 637 CURVE SMOOTH",
"595 126 LINE",
"217 700 LINE",
"22 700 LINE",
"22 673 LINE",
"51 673 LINE SMOOTH",
"90 673 OFFCURVE",
"109 662 OFFCURVE",
"109 637 CURVE SMOOTH",
"109 62 LINE SMOOTH",
"109 37 OFFCURVE",
"90 26 OFFCURVE",
"51 26 CURVE SMOOTH",
"22 26 LINE",
"22 0 LINE"
);
},
{
closed = 1;
nodes = (
"542 -110 LINE",
"542 -72 LINE",
"210 -72 LINE",
"210 -110 LINE"
);
}
);
};
components = (
{
name = N;
},
{
name = macronbelowcomb;
transform = "{1, 0, 0, 1, 373, 0}";
}
);
layerId = "0B1DFD06-3317-40CA-B510-4969A0718C16";
width = 745;
}
);
note = Nlinebelow;
unicode = 1E48;
},
{
glyphname = Ntilde;
lastChange = "2017-12-19 05:21:12 +0000";
layers = (
{
background = {
paths = (
{
closed = 1;
nodes = (
"247 0 LINE",
"247 26 LINE",
"217 26 LINE SMOOTH",
"179 26 OFFCURVE",
"159 37 OFFCURVE",
"159 62 CURVE SMOOTH",
"159 642 LINE",
"587 0 LINE",
"645 0 LINE",
"645 637 LINE SMOOTH",
"645 662 OFFCURVE",
"665 673 OFFCURVE",
"703 673 CURVE SMOOTH",
"733 673 LINE",
"733 700 LINE",
"508 700 LINE",
"508 673 LINE",
"537 673 LINE SMOOTH",
"576 673 OFFCURVE",
"595 662 OFFCURVE",
"595 637 CURVE SMOOTH",
"595 126 LINE",
"217 700 LINE",
"22 700 LINE",
"22 673 LINE",
"51 673 LINE SMOOTH",
"90 673 OFFCURVE",
"109 662 OFFCURVE",
"109 637 CURVE SMOOTH",
"109 62 LINE SMOOTH",
"109 37 OFFCURVE",
"90 26 OFFCURVE",
"51 26 CURVE SMOOTH",
"22 26 LINE",
"22 0 LINE"
);
},
{
closed = 1;
nodes = (
"254 818 OFFCURVE",
"272 839 OFFCURVE",
"305 839 CURVE SMOOTH",
"356 839 OFFCURVE",
"405 785 OFFCURVE",
"456 785 CURVE SMOOTH",
"514 785 OFFCURVE",
"544 833 OFFCURVE",
"556 885 CURVE",
"535 896 LINE",
"519 856 OFFCURVE",
"503 834 OFFCURVE",
"469 834 CURVE SMOOTH",
"420 834 OFFCURVE",
"368 887 OFFCURVE",
"317 887 CURVE SMOOTH",
"263 887 OFFCURVE",
"230 843 OFFCURVE",
"218 791 CURVE",
"240 780 LINE"
);
}
);
};
components = (
{
name = N;
},
{
name = tilde;
transform = "{1, 0, 0, 1, 132, 230}";
}
);
layerId = "0B1DFD06-3317-40CA-B510-4969A0718C16";
width = 755;
}
);
note = Ntilde;
unicode = 00D1;
},
{
glyphname = Oacute;
lastChange = "2018-01-22 17:23:06 +0000";
layers = (
{
background = {
paths = (
{
closed = 1;
nodes = (
"601 -10 OFFCURVE",
"719 124 OFFCURVE",
"719 350 CURVE SMOOTH",
"719 574 OFFCURVE",
"601 710 OFFCURVE",
"378 710 CURVE SMOOTH",
"154 710 OFFCURVE",
"36 574 OFFCURVE",
"36 350 CURVE SMOOTH",
"36 124 OFFCURVE",
"154 -10 OFFCURVE",
"378 -10 CURVE SMOOTH"
);
},
{
closed = 1;
nodes = (
"215 32 OFFCURVE",
"135 158 OFFCURVE",
"135 350 CURVE SMOOTH",
"135 541 OFFCURVE",
"215 668 OFFCURVE",
"377 668 CURVE SMOOTH",
"541 668 OFFCURVE",
"620 541 OFFCURVE",
"620 350 CURVE SMOOTH",
"620 158 OFFCURVE",
"541 32 OFFCURVE",
"377 32 CURVE SMOOTH"
);
},
{
closed = 1;
nodes = (
"440 865 LINE SMOOTH",
"462 877 OFFCURVE",
"474 890 OFFCURVE",
"474 907 CURVE SMOOTH",
"474 922 OFFCURVE",
"462 937 OFFCURVE",
"440 937 CURVE SMOOTH",
"419 937 OFFCURVE",
"404 921 OFFCURVE",
"396 914 CURVE SMOOTH",
"281 807 LINE",
"298 782 LINE"
);
}
);
};
components = (
{
name = O;
},
{
name = acute;
transform = "{1, 0, 0, 1, 205, 230}";
}
);
layerId = "0B1DFD06-3317-40CA-B510-4969A0718C16";
width = 779;
}
);
leftKerningGroup = O;
note = Oacute;
rightKerningGroup = O;
unicode = 00D3;
},
{
glyphname = Obreve;
lastChange = "2017-12-19 05:21:12 +0000";
layers = (
{
background = {
paths = (
{
closed = 1;
nodes = (
"601 -10 OFFCURVE",
"719 124 OFFCURVE",
"719 350 CURVE SMOOTH",
"719 574 OFFCURVE",
"601 710 OFFCURVE",
"378 710 CURVE SMOOTH",
"154 710 OFFCURVE",
"36 574 OFFCURVE",
"36 350 CURVE SMOOTH",
"36 124 OFFCURVE",
"154 -10 OFFCURVE",
"378 -10 CURVE SMOOTH"
);
},
{
closed = 1;
nodes = (
"215 32 OFFCURVE",
"135 158 OFFCURVE",
"135 350 CURVE SMOOTH",
"135 541 OFFCURVE",
"215 668 OFFCURVE",
"377 668 CURVE SMOOTH",
"541 668 OFFCURVE",
"620 541 OFFCURVE",
"620 350 CURVE SMOOTH",
"620 158 OFFCURVE",
"541 32 OFFCURVE",
"377 32 CURVE SMOOTH"
);
},
{
closed = 1;
nodes = (
"477 774 OFFCURVE",
"519 830 OFFCURVE",
"523 905 CURVE",
"490 905 LINE",
"484 846 OFFCURVE",
"442 820 OFFCURVE",
"378 820 CURVE SMOOTH",
"314 820 OFFCURVE",
"271 846 OFFCURVE",
"264 905 CURVE",
"231 905 LINE",
"235 827 OFFCURVE",
"277 774 OFFCURVE",
"378 774 CURVE SMOOTH"
);
}
);
};
components = (
{
name = O;
},
{
name = breve;
transform = "{1, 0, 0, 1, 132, 230}";
}
);
layerId = "0B1DFD06-3317-40CA-B510-4969A0718C16";
width = 755;
}
);
leftKerningGroup = O;
note = Obreve;
rightKerningGroup = O;
unicode = 014E;
},
{
glyphname = Ocaron;
lastChange = "2017-12-19 05:21:12 +0000";
layers = (
{
background = {
paths = (
{
closed = 1;
nodes = (
"601 -10 OFFCURVE",
"719 124 OFFCURVE",
"719 350 CURVE SMOOTH",
"719 574 OFFCURVE",
"601 710 OFFCURVE",
"378 710 CURVE SMOOTH",
"154 710 OFFCURVE",
"36 574 OFFCURVE",
"36 350 CURVE SMOOTH",
"36 124 OFFCURVE",
"154 -10 OFFCURVE",
"378 -10 CURVE SMOOTH"
);
},
{
closed = 1;
nodes = (
"215 32 OFFCURVE",
"135 158 OFFCURVE",
"135 350 CURVE SMOOTH",
"135 541 OFFCURVE",
"215 668 OFFCURVE",
"377 668 CURVE SMOOTH",
"541 668 OFFCURVE",
"620 541 OFFCURVE",
"620 350 CURVE SMOOTH",
"620 158 OFFCURVE",
"541 32 OFFCURVE",
"377 32 CURVE SMOOTH"
);
},
{
closed = 1;
nodes = (
"404 782 LINE",
"528 911 LINE",
"509 932 LINE",
"401 847 LINE",
"393 840 OFFCURVE",
"384 836 OFFCURVE",
"378 836 CURVE SMOOTH",
"372 836 OFFCURVE",
"364 840 OFFCURVE",
"354 847 CURVE",
"246 932 LINE",
"227 911 LINE",
"351 782 LINE"
);
}
);
};
components = (
{
name = O;
},
{
name = caron;
transform = "{1, 0, 0, 1, 132, 230}";
}
);
layerId = "0B1DFD06-3317-40CA-B510-4969A0718C16";
width = 755;
}
);
leftKerningGroup = O;
note = Ocaron;
rightKerningGroup = O;
unicode = 01D1;
},
{
glyphname = Ocircumflex;
lastChange = "2017-12-19 05:21:12 +0000";
layers = (
{
background = {
paths = (
{
closed = 1;
nodes = (
"601 -10 OFFCURVE",
"719 124 OFFCURVE",
"719 350 CURVE SMOOTH",
"719 574 OFFCURVE",
"601 710 OFFCURVE",
"378 710 CURVE SMOOTH",
"154 710 OFFCURVE",
"36 574 OFFCURVE",
"36 350 CURVE SMOOTH",
"36 124 OFFCURVE",
"154 -10 OFFCURVE",
"378 -10 CURVE SMOOTH"
);
},
{
closed = 1;
nodes = (
"215 32 OFFCURVE",
"135 158 OFFCURVE",
"135 350 CURVE SMOOTH",
"135 541 OFFCURVE",
"215 668 OFFCURVE",
"377 668 CURVE SMOOTH",
"541 668 OFFCURVE",
"620 541 OFFCURVE",
"620 350 CURVE SMOOTH",
"620 158 OFFCURVE",
"541 32 OFFCURVE",
"377 32 CURVE SMOOTH"
);
},
{
closed = 1;
nodes = (
"354 868 LINE SMOOTH",
"362 874 OFFCURVE",
"372 879 OFFCURVE",
"378 879 CURVE SMOOTH",
"384 879 OFFCURVE",
"392 874 OFFCURVE",
"401 868 CURVE",
"509 782 LINE",
"528 803 LINE",
"404 932 LINE",
"351 932 LINE",
"227 803 LINE",
"246 782 LINE"
);
}
);
};
components = (
{
name = O;
},
{
name = circumflex;
transform = "{1, 0, 0, 1, 132, 230}";
}
);
layerId = "0B1DFD06-3317-40CA-B510-4969A0718C16";
width = 755;
}
);
leftKerningGroup = O;
note = Ocircumflex;
rightKerningGroup = O;
unicode = 00D4;
},
{
glyphname = Ocircumflexacute;
lastChange = "2018-01-03 16:24:53 +0000";
layers = (
{
background = {
paths = (
{
closed = 1;
nodes = (
"601 -10 OFFCURVE",
"719 124 OFFCURVE",
"719 350 CURVE SMOOTH",
"719 574 OFFCURVE",
"601 710 OFFCURVE",
"378 710 CURVE SMOOTH",
"154 710 OFFCURVE",
"36 574 OFFCURVE",
"36 350 CURVE SMOOTH",
"36 124 OFFCURVE",
"154 -10 OFFCURVE",
"378 -10 CURVE SMOOTH"
);
},
{
closed = 1;
nodes = (
"215 32 OFFCURVE",
"135 158 OFFCURVE",
"135 350 CURVE SMOOTH",
"135 541 OFFCURVE",
"215 668 OFFCURVE",
"377 668 CURVE SMOOTH",
"541 668 OFFCURVE",
"620 541 OFFCURVE",
"620 350 CURVE SMOOTH",
"620 158 OFFCURVE",
"541 32 OFFCURVE",
"377 32 CURVE SMOOTH"
);
},
{
closed = 1;
nodes = (
"348 861 LINE SMOOTH",
"358 869 OFFCURVE",
"368 877 OFFCURVE",
"376 877 CURVE SMOOTH",
"382 877 OFFCURVE",
"390 872 OFFCURVE",
"399 866 CURVE",
"505 780 LINE",
"524 802 LINE",
"402 931 LINE",
"351 931 LINE",
"229 802 LINE",
"247 780 LINE"
);
},
{
closed = 1;
nodes = (
"613 959 LINE SMOOTH",
"636 971 OFFCURVE",
"649 987 OFFCURVE",
"649 1002 CURVE SMOOTH",
"649 1016 OFFCURVE",
"638 1033 OFFCURVE",
"615 1033 CURVE SMOOTH",
"596 1033 OFFCURVE",
"579 1017 OFFCURVE",
"569 1007 CURVE SMOOTH",
"473 914 LINE",
"491 892 LINE"
);
}
);
};
components = (
{
name = O;
},
{
name = circumflexacute;
transform = "{1, 0, 0, 1, 640, 230}";
}
);
layerId = "0B1DFD06-3317-40CA-B510-4969A0718C16";
width = 779;
}
);
leftKerningGroup = O;
note = Ocircumflexacute;
rightKerningGroup = O;
unicode = 1ED0;
},
{
glyphname = Ocircumflexdotbelow;
lastChange = "2018-01-03 16:25:07 +0000";
layers = (
{
background = {
paths = (
{
closed = 1;
nodes = (
"36 124 OFFCURVE",
"154 -10 OFFCURVE",
"378 -10 CURVE SMOOTH",
"601 -10 OFFCURVE",
"719 124 OFFCURVE",
"719 350 CURVE SMOOTH",
"719 574 OFFCURVE",
"601 710 OFFCURVE",
"378 710 CURVE SMOOTH",
"154 710 OFFCURVE",
"36 574 OFFCURVE",
"36 350 CURVE SMOOTH"
);
},
{
closed = 1;
nodes = (
"135 541 OFFCURVE",
"215 668 OFFCURVE",
"377 668 CURVE SMOOTH",
"541 668 OFFCURVE",
"620 541 OFFCURVE",
"620 350 CURVE SMOOTH",
"620 158 OFFCURVE",
"541 32 OFFCURVE",
"377 32 CURVE SMOOTH",
"215 32 OFFCURVE",
"135 158 OFFCURVE",
"135 350 CURVE SMOOTH"
);
},
{
closed = 1;
nodes = (
"245 782 LINE",
"353 868 LINE SMOOTH",
"361 874 OFFCURVE",
"371 879 OFFCURVE",
"377 879 CURVE SMOOTH",
"383 879 OFFCURVE",
"391 874 OFFCURVE",
"400 868 CURVE",
"508 782 LINE",
"527 803 LINE",
"403 932 LINE",
"350 932 LINE",
"226 803 LINE"
);
},
{
closed = 1;
nodes = (
"330 -140 OFFCURVE",
"349 -159 OFFCURVE",
"377 -159 CURVE SMOOTH",
"405 -159 OFFCURVE",
"423 -140 OFFCURVE",
"423 -112 CURVE SMOOTH",
"423 -84 OFFCURVE",
"405 -64 OFFCURVE",
"377 -64 CURVE SMOOTH",
"349 -64 OFFCURVE",
"330 -84 OFFCURVE",
"330 -112 CURVE SMOOTH"
);
}
);
};
components = (
{
name = O;
},
{
name = dotbelowcomb;
transform = "{1, 0, 0, 1, 247, 0}";
},
{
name = circumflex;
transform = "{1, 0, 0, 1, 132, 230}";
}
);
layerId = "0B1DFD06-3317-40CA-B510-4969A0718C16";
width = 755;
}
);
leftKerningGroup = O;
note = Ocircumflexdotbelow;
rightKerningGroup = O;
unicode = 1ED8;
},
{
glyphname = Ocircumflexgrave;
lastChange = "2018-01-03 16:24:53 +0000";
layers = (
{
background = {
paths = (
{
closed = 1;
nodes = (
"601 -10 OFFCURVE",
"719 124 OFFCURVE",
"719 350 CURVE SMOOTH",
"719 574 OFFCURVE",
"601 710 OFFCURVE",
"378 710 CURVE SMOOTH",
"154 710 OFFCURVE",
"36 574 OFFCURVE",
"36 350 CURVE SMOOTH",
"36 124 OFFCURVE",
"154 -10 OFFCURVE",
"378 -10 CURVE SMOOTH"
);
},
{
closed = 1;
nodes = (
"215 32 OFFCURVE",
"135 158 OFFCURVE",
"135 350 CURVE SMOOTH",
"135 541 OFFCURVE",
"215 668 OFFCURVE",
"377 668 CURVE SMOOTH",
"541 668 OFFCURVE",
"620 541 OFFCURVE",
"620 350 CURVE SMOOTH",
"620 158 OFFCURVE",
"541 32 OFFCURVE",
"377 32 CURVE SMOOTH"
);
},
{
closed = 1;
nodes = (
"285 914 LINE",
"190 1007 LINE SMOOTH",
"180 1017 OFFCURVE",
"163 1033 OFFCURVE",
"143 1033 CURVE SMOOTH",
"121 1033 OFFCURVE",
"110 1016 OFFCURVE",
"110 1002 CURVE SMOOTH",
"110 987 OFFCURVE",
"123 971 OFFCURVE",
"146 959 CURVE SMOOTH",
"268 892 LINE"
);
},
{
closed = 1;
nodes = (
"348 861 LINE SMOOTH",
"358 869 OFFCURVE",
"368 877 OFFCURVE",
"376 877 CURVE SMOOTH",
"382 877 OFFCURVE",
"390 872 OFFCURVE",
"399 866 CURVE",
"505 780 LINE",
"524 802 LINE",
"402 931 LINE",
"351 931 LINE",
"229 802 LINE",
"247 780 LINE"
);
}
);
};
components = (
{
name = O;
},
{
name = circumflexgrave;
transform = "{1, 0, 0, 1, 640, 230}";
}
);
layerId = "0B1DFD06-3317-40CA-B510-4969A0718C16";
width = 779;
}
);
leftKerningGroup = O;
note = Ocircumflexgrave;
rightKerningGroup = O;
unicode = 1ED2;
},
{
glyphname = Ocircumflexhookabove;
lastChange = "2018-01-03 16:24:53 +0000";
layers = (
{
background = {
paths = (
{
closed = 1;
nodes = (
"601 -10 OFFCURVE",
"719 124 OFFCURVE",
"719 350 CURVE SMOOTH",
"719 574 OFFCURVE",
"601 710 OFFCURVE",
"378 710 CURVE SMOOTH",
"154 710 OFFCURVE",
"36 574 OFFCURVE",
"36 350 CURVE SMOOTH",
"36 124 OFFCURVE",
"154 -10 OFFCURVE",
"378 -10 CURVE SMOOTH"
);
},
{
closed = 1;
nodes = (
"215 32 OFFCURVE",
"135 158 OFFCURVE",
"135 350 CURVE SMOOTH",
"135 541 OFFCURVE",
"215 668 OFFCURVE",
"377 668 CURVE SMOOTH",
"541 668 OFFCURVE",
"620 541 OFFCURVE",
"620 350 CURVE SMOOTH",
"620 158 OFFCURVE",
"541 32 OFFCURVE",
"377 32 CURVE SMOOTH"
);
},
{
closed = 1;
nodes = (
"344 858 LINE",
"355 868 OFFCURVE",
"367 878 OFFCURVE",
"376 878 CURVE SMOOTH",
"382 878 OFFCURVE",
"390 873 OFFCURVE",
"399 867 CURVE",
"505 781 LINE",
"524 803 LINE",
"402 932 LINE",
"351 932 LINE",
"229 803 LINE",
"247 781 LINE"
);
},
{
closed = 1;
nodes = (
"551 898 LINE",
"532 905 OFFCURVE",
"522 912 OFFCURVE",
"522 926 CURVE SMOOTH",
"522 954 OFFCURVE",
"602 965 OFFCURVE",
"602 1010 CURVE SMOOTH",
"602 1047 OFFCURVE",
"560 1063 OFFCURVE",
"518 1063 CURVE SMOOTH",
"487 1063 OFFCURVE",
"442 1053 OFFCURVE",
"442 1022 CURVE SMOOTH",
"442 1010 OFFCURVE",
"453 1001 OFFCURVE",
"463 1001 CURVE SMOOTH",
"492 1001 OFFCURVE",
"479 1040 OFFCURVE",
"522 1040 CURVE SMOOTH",
"541 1040 OFFCURVE",
"552 1028 OFFCURVE",
"552 1013 CURVE SMOOTH",
"552 973 OFFCURVE",
"479 965 OFFCURVE",
"479 925 CURVE SMOOTH",
"479 901 OFFCURVE",
"495 880 OFFCURVE",
"542 880 CURVE"
);
}
);
};
components = (
{
name = O;
},
{
name = circumflexhookabove;
transform = "{1, 0, 0, 1, 640, 230}";
}
);
layerId = "0B1DFD06-3317-40CA-B510-4969A0718C16";
width = 779;
}
);
leftKerningGroup = O;
note = Ocircumflexhookabove;
rightKerningGroup = O;
unicode = 1ED4;
},
{
glyphname = Ocircumflextilde;
lastChange = "2018-01-03 16:24:53 +0000";
layers = (
{
background = {
paths = (
{
closed = 1;
nodes = (
"601 -10 OFFCURVE",
"719 124 OFFCURVE",
"719 350 CURVE SMOOTH",
"719 574 OFFCURVE",
"601 710 OFFCURVE",
"378 710 CURVE SMOOTH",
"154 710 OFFCURVE",
"36 574 OFFCURVE",
"36 350 CURVE SMOOTH",
"36 124 OFFCURVE",
"154 -10 OFFCURVE",
"378 -10 CURVE SMOOTH"
);
},
{
closed = 1;
nodes = (
"215 32 OFFCURVE",
"135 158 OFFCURVE",
"135 350 CURVE SMOOTH",
"135 541 OFFCURVE",
"215 668 OFFCURVE",
"377 668 CURVE SMOOTH",
"541 668 OFFCURVE",
"620 541 OFFCURVE",
"620 350 CURVE SMOOTH",
"620 158 OFFCURVE",
"541 32 OFFCURVE",
"377 32 CURVE SMOOTH"
);
},
{
closed = 1;
nodes = (
"348 862 LINE SMOOTH",
"358 870 OFFCURVE",
"368 878 OFFCURVE",
"376 878 CURVE SMOOTH",
"382 878 OFFCURVE",
"390 873 OFFCURVE",
"399 867 CURVE",
"505 781 LINE",
"524 803 LINE",
"402 932 LINE",
"351 932 LINE",
"229 803 LINE",
"247 781 LINE"
);
},
{
closed = 1;
nodes = (
"251 997 OFFCURVE",
"269 1018 OFFCURVE",
"300 1018 CURVE SMOOTH",
"349 1018 OFFCURVE",
"396 964 OFFCURVE",
"445 964 CURVE SMOOTH",
"498 964 OFFCURVE",
"527 1012 OFFCURVE",
"539 1063 CURVE",
"518 1075 LINE",
"505 1035 OFFCURVE",
"489 1012 OFFCURVE",
"456 1012 CURVE SMOOTH",
"409 1012 OFFCURVE",
"360 1065 OFFCURVE",
"311 1065 CURVE SMOOTH",
"260 1065 OFFCURVE",
"228 1021 OFFCURVE",
"218 970 CURVE",
"238 958 LINE"
);
}
);
};
components = (
{
name = O;
},
{
name = circumflextilde;
transform = "{1, 0, 0, 1, 640, 230}";
}
);
layerId = "0B1DFD06-3317-40CA-B510-4969A0718C16";
width = 779;
}
);
leftKerningGroup = O;
note = Ocircumflextilde;
rightKerningGroup = O;
unicode = 1ED6;
},
{
glyphname = Odieresis;
lastChange = "2017-12-19 05:21:12 +0000";
layers = (
{
background = {
paths = (
{
closed = 1;
nodes = (
"601 -10 OFFCURVE",
"719 124 OFFCURVE",
"719 350 CURVE SMOOTH",
"719 574 OFFCURVE",
"601 710 OFFCURVE",
"378 710 CURVE SMOOTH",
"154 710 OFFCURVE",
"36 574 OFFCURVE",
"36 350 CURVE SMOOTH",
"36 124 OFFCURVE",
"154 -10 OFFCURVE",
"378 -10 CURVE SMOOTH"
);
},
{
closed = 1;
nodes = (
"215 32 OFFCURVE",
"135 158 OFFCURVE",
"135 350 CURVE SMOOTH",
"135 541 OFFCURVE",
"215 668 OFFCURVE",
"377 668 CURVE SMOOTH",
"541 668 OFFCURVE",
"620 541 OFFCURVE",
"620 350 CURVE SMOOTH",
"620 158 OFFCURVE",
"541 32 OFFCURVE",
"377 32 CURVE SMOOTH"
);
},
{
closed = 1;
nodes = (
"298 781 OFFCURVE",
"316 800 OFFCURVE",
"316 827 CURVE SMOOTH",
"316 855 OFFCURVE",
"298 875 OFFCURVE",
"269 875 CURVE SMOOTH",
"241 875 OFFCURVE",
"223 855 OFFCURVE",
"223 827 CURVE SMOOTH",
"223 800 OFFCURVE",
"241 781 OFFCURVE",
"269 781 CURVE SMOOTH"
);
},
{
closed = 1;
nodes = (
"514 781 OFFCURVE",
"532 800 OFFCURVE",
"532 827 CURVE SMOOTH",
"532 855 OFFCURVE",
"514 875 OFFCURVE",
"485 875 CURVE SMOOTH",
"456 875 OFFCURVE",
"438 855 OFFCURVE",
"438 827 CURVE SMOOTH",
"438 800 OFFCURVE",
"456 781 OFFCURVE",
"485 781 CURVE SMOOTH"
);
}
);
};
components = (
{
name = O;
},
{
name = dieresis;
transform = "{1, 0, 0, 1, 132, 230}";
}
);
layerId = "0B1DFD06-3317-40CA-B510-4969A0718C16";
width = 755;
}
);
leftKerningGroup = O;
note = Odieresis;
rightKerningGroup = O;
unicode = 00D6;
},
{
glyphname = Odotbelow;
lastChange = "2018-01-03 16:25:06 +0000";
layers = (
{
background = {
paths = (
{
closed = 1;
nodes = (
"36 124 OFFCURVE",
"154 -10 OFFCURVE",
"378 -10 CURVE SMOOTH",
"601 -10 OFFCURVE",
"719 124 OFFCURVE",
"719 350 CURVE SMOOTH",
"719 574 OFFCURVE",
"601 710 OFFCURVE",
"378 710 CURVE SMOOTH",
"154 710 OFFCURVE",
"36 574 OFFCURVE",
"36 350 CURVE SMOOTH"
);
},
{
closed = 1;
nodes = (
"135 541 OFFCURVE",
"215 668 OFFCURVE",
"377 668 CURVE SMOOTH",
"541 668 OFFCURVE",
"620 541 OFFCURVE",
"620 350 CURVE SMOOTH",
"620 158 OFFCURVE",
"541 32 OFFCURVE",
"377 32 CURVE SMOOTH",
"215 32 OFFCURVE",
"135 158 OFFCURVE",
"135 350 CURVE SMOOTH"
);
},
{
closed = 1;
nodes = (
"330 -140 OFFCURVE",
"349 -159 OFFCURVE",
"377 -159 CURVE SMOOTH",
"405 -159 OFFCURVE",
"423 -140 OFFCURVE",
"423 -112 CURVE SMOOTH",
"423 -84 OFFCURVE",
"405 -64 OFFCURVE",
"377 -64 CURVE SMOOTH",
"349 -64 OFFCURVE",
"330 -84 OFFCURVE",
"330 -112 CURVE SMOOTH"
);
}
);
};
components = (
{
name = O;
},
{
name = dotbelowcomb;
transform = "{1, 0, 0, 1, 247, 0}";
}
);
layerId = "0B1DFD06-3317-40CA-B510-4969A0718C16";
width = 779;
}
);
leftKerningGroup = O;
note = Odotbelow;
rightKerningGroup = O;
unicode = 1ECC;
},
{
glyphname = Ograve;
lastChange = "2017-12-19 05:21:12 +0000";
layers = (
{
background = {
paths = (
{
closed = 1;
nodes = (
"601 -10 OFFCURVE",
"719 124 OFFCURVE",
"719 350 CURVE SMOOTH",
"719 574 OFFCURVE",
"601 710 OFFCURVE",
"378 710 CURVE SMOOTH",
"154 710 OFFCURVE",
"36 574 OFFCURVE",
"36 350 CURVE SMOOTH",
"36 124 OFFCURVE",
"154 -10 OFFCURVE",
"378 -10 CURVE SMOOTH"
);
},
{
closed = 1;
nodes = (
"215 32 OFFCURVE",
"135 158 OFFCURVE",
"135 350 CURVE SMOOTH",
"135 541 OFFCURVE",
"215 668 OFFCURVE",
"377 668 CURVE SMOOTH",
"541 668 OFFCURVE",
"620 541 OFFCURVE",
"620 350 CURVE SMOOTH",
"620 158 OFFCURVE",
"541 32 OFFCURVE",
"377 32 CURVE SMOOTH"
);
},
{
closed = 1;
nodes = (
"459 807 LINE",
"344 913 LINE",
"335 922 OFFCURVE",
"319 937 OFFCURVE",
"299 937 CURVE SMOOTH",
"279 937 OFFCURVE",
"267 924 OFFCURVE",
"267 908 CURVE SMOOTH",
"267 890 OFFCURVE",
"279 876 OFFCURVE",
"298 865 CURVE SMOOTH",
"441 782 LINE"
);
}
);
};
components = (
{
name = O;
},
{
name = grave;
transform = "{1, 0, 0, 1, 132, 230}";
}
);
layerId = "0B1DFD06-3317-40CA-B510-4969A0718C16";
width = 755;
}
);
leftKerningGroup = O;
note = Ograve;
rightKerningGroup = O;
unicode = 00D2;
},
{
glyphname = Ohookabove;
lastChange = "2018-01-17 09:37:14 +0000";
layers = (
{
background = {
paths = (
{
closed = 1;
nodes = (
"601 -10 OFFCURVE",
"719 124 OFFCURVE",
"719 350 CURVE SMOOTH",
"719 574 OFFCURVE",
"601 710 OFFCURVE",
"378 710 CURVE SMOOTH",
"154 710 OFFCURVE",
"36 574 OFFCURVE",
"36 350 CURVE SMOOTH",
"36 124 OFFCURVE",
"154 -10 OFFCURVE",
"378 -10 CURVE SMOOTH"
);
},
{
closed = 1;
nodes = (
"215 32 OFFCURVE",
"135 158 OFFCURVE",
"135 350 CURVE SMOOTH",
"135 541 OFFCURVE",
"215 668 OFFCURVE",
"377 668 CURVE SMOOTH",
"541 668 OFFCURVE",
"620 541 OFFCURVE",
"620 350 CURVE SMOOTH",
"620 158 OFFCURVE",
"541 32 OFFCURVE",
"377 32 CURVE SMOOTH"
);
},
{
closed = 1;
nodes = (
"407 798 LINE",
"388 805 OFFCURVE",
"376 811 OFFCURVE",
"376 828 CURVE SMOOTH",
"376 861 OFFCURVE",
"465 876 OFFCURVE",
"465 927 CURVE SMOOTH",
"465 969 OFFCURVE",
"429 991 OFFCURVE",
"376 991 CURVE SMOOTH",
"329 991 OFFCURVE",
"288 974 OFFCURVE",
"288 940 CURVE SMOOTH",
"288 923 OFFCURVE",
"296 915 OFFCURVE",
"311 915 CURVE SMOOTH",
"334 915 OFFCURVE",
"336 934 OFFCURVE",
"339 942 CURVE SMOOTH",
"344 956 OFFCURVE",
"361 962 OFFCURVE",
"377 962 CURVE SMOOTH",
"398 962 OFFCURVE",
"411 947 OFFCURVE",
"411 930 CURVE SMOOTH",
"411 885 OFFCURVE",
"329 874 OFFCURVE",
"329 828 CURVE SMOOTH",
"329 801 OFFCURVE",
"347 778 OFFCURVE",
"398 778 CURVE"
);
}
);
};
components = (
{
name = O;
},
{
name = hookabovecomb;
transform = "{1, 0, 0, 1, 89, 230}";
}
);
layerId = "0B1DFD06-3317-40CA-B510-4969A0718C16";
width = 779;
}
);
leftKerningGroup = O;
note = Ohookabove;
rightKerningGroup = O;
unicode = 1ECE;
},
{
glyphname = Ohornacute;
lastChange = "2018-01-17 10:04:34 +0000";
layers = (
{
background = {
paths = (
{
closed = 1;
nodes = (
"602 -10 OFFCURVE",
"720 124 OFFCURVE",
"720 350 CURVE SMOOTH",
"720 574 OFFCURVE",
"602 710 OFFCURVE",
"379 710 CURVE SMOOTH",
"155 710 OFFCURVE",
"37 574 OFFCURVE",
"37 350 CURVE SMOOTH",
"37 124 OFFCURVE",
"155 -10 OFFCURVE",
"379 -10 CURVE SMOOTH"
);
},
{
closed = 1;
nodes = (
"216 32 OFFCURVE",
"136 158 OFFCURVE",
"136 350 CURVE SMOOTH",
"136 541 OFFCURVE",
"216 668 OFFCURVE",
"378 668 CURVE SMOOTH",
"542 668 OFFCURVE",
"621 541 OFFCURVE",
"621 350 CURVE SMOOTH",
"621 158 OFFCURVE",
"542 32 OFFCURVE",
"378 32 CURVE SMOOTH"
);
},
{
closed = 1;
nodes = (
"424 864 LINE SMOOTH",
"446 876 OFFCURVE",
"458 889 OFFCURVE",
"458 906 CURVE SMOOTH",
"458 921 OFFCURVE",
"446 936 OFFCURVE",
"424 936 CURVE SMOOTH",
"403 936 OFFCURVE",
"388 920 OFFCURVE",
"380 913 CURVE SMOOTH",
"265 806 LINE",
"282 781 LINE"
);
},
{
closed = 1;
nodes = (
"691 567 OFFCURVE",
"756 632 OFFCURVE",
"756 705 CURVE SMOOTH",
"756 752 OFFCURVE",
"729 772 OFFCURVE",
"701 772 CURVE SMOOTH",
"672 772 OFFCURVE",
"656 752 OFFCURVE",
"656 729 CURVE SMOOTH",
"656 695 OFFCURVE",
"689 688 OFFCURVE",
"689 653 CURVE SMOOTH",
"689 617 OFFCURVE",
"658 588 OFFCURVE",
"623 568 CURVE",
"623 543 LINE"
);
}
);
};
components = (
{
name = acute;
transform = "{1, 0, 0, 1, 120, 230}";
},
{
name = Ohorn;
}
);
layerId = "0B1DFD06-3317-40CA-B510-4969A0718C16";
width = 755;
}
);
leftKerningGroup = O;
note = Ohornacute;
rightKerningGroup = O;
unicode = 1EDA;
},
{
glyphname = Ohorndotbelow;
lastChange = "2017-12-19 05:21:12 +0000";
layers = (
{
background = {
paths = (
{
closed = 1;
nodes = (
"602 -10 OFFCURVE",
"720 124 OFFCURVE",
"720 350 CURVE SMOOTH",
"720 574 OFFCURVE",
"602 710 OFFCURVE",
"379 710 CURVE SMOOTH",
"155 710 OFFCURVE",
"37 574 OFFCURVE",
"37 350 CURVE SMOOTH",
"37 124 OFFCURVE",
"155 -10 OFFCURVE",
"379 -10 CURVE SMOOTH"
);
},
{
closed = 1;
nodes = (
"216 32 OFFCURVE",
"136 158 OFFCURVE",
"136 350 CURVE SMOOTH",
"136 541 OFFCURVE",
"216 668 OFFCURVE",
"378 668 CURVE SMOOTH",
"542 668 OFFCURVE",
"621 541 OFFCURVE",
"621 350 CURVE SMOOTH",
"621 158 OFFCURVE",
"542 32 OFFCURVE",
"378 32 CURVE SMOOTH"
);
},
{
closed = 1;
nodes = (
"691 567 OFFCURVE",
"756 632 OFFCURVE",
"756 705 CURVE SMOOTH",
"756 752 OFFCURVE",
"729 772 OFFCURVE",
"701 772 CURVE SMOOTH",
"672 772 OFFCURVE",
"656 752 OFFCURVE",
"656 729 CURVE SMOOTH",
"656 695 OFFCURVE",
"689 688 OFFCURVE",
"689 653 CURVE SMOOTH",
"689 617 OFFCURVE",
"658 588 OFFCURVE",
"623 568 CURVE",
"623 543 LINE"
);
},
{
closed = 1;
nodes = (
"395 -159 OFFCURVE",
"413 -140 OFFCURVE",
"413 -112 CURVE SMOOTH",
"413 -84 OFFCURVE",
"395 -64 OFFCURVE",
"367 -64 CURVE SMOOTH",
"339 -64 OFFCURVE",
"320 -84 OFFCURVE",
"320 -112 CURVE SMOOTH",
"320 -140 OFFCURVE",
"339 -159 OFFCURVE",
"367 -159 CURVE SMOOTH"
);
}
);
};
components = (
{
name = dotbelowcomb;
transform = "{1, 0, 0, 1, 629, 0}";
},
{
name = Ohorn;
}
);
layerId = "0B1DFD06-3317-40CA-B510-4969A0718C16";
width = 755;
}
);
leftKerningGroup = O;
note = Ohorndotbelow;
rightKerningGroup = O;
unicode = 1EE2;
},
{
glyphname = Ohorngrave;
lastChange = "2017-12-19 05:21:12 +0000";
layers = (
{
background = {
paths = (
{
closed = 1;
nodes = (
"602 -10 OFFCURVE",
"720 124 OFFCURVE",
"720 350 CURVE SMOOTH",
"720 574 OFFCURVE",
"602 710 OFFCURVE",
"379 710 CURVE SMOOTH",
"155 710 OFFCURVE",
"37 574 OFFCURVE",
"37 350 CURVE SMOOTH",
"37 124 OFFCURVE",
"155 -10 OFFCURVE",
"379 -10 CURVE SMOOTH"
);
},
{
closed = 1;
nodes = (
"216 32 OFFCURVE",
"136 158 OFFCURVE",
"136 350 CURVE SMOOTH",
"136 541 OFFCURVE",
"216 668 OFFCURVE",
"378 668 CURVE SMOOTH",
"542 668 OFFCURVE",
"621 541 OFFCURVE",
"621 350 CURVE SMOOTH",
"621 158 OFFCURVE",
"542 32 OFFCURVE",
"378 32 CURVE SMOOTH"
);
},
{
closed = 1;
nodes = (
"464 816 LINE",
"349 922 LINE",
"340 931 OFFCURVE",
"324 946 OFFCURVE",
"304 946 CURVE SMOOTH",
"284 946 OFFCURVE",
"272 933 OFFCURVE",
"272 917 CURVE SMOOTH",
"272 899 OFFCURVE",
"284 885 OFFCURVE",
"303 874 CURVE SMOOTH",
"446 791 LINE"
);
},
{
closed = 1;
nodes = (
"691 567 OFFCURVE",
"756 632 OFFCURVE",
"756 705 CURVE SMOOTH",
"756 752 OFFCURVE",
"729 772 OFFCURVE",
"701 772 CURVE SMOOTH",
"672 772 OFFCURVE",
"656 752 OFFCURVE",
"656 729 CURVE SMOOTH",
"656 695 OFFCURVE",
"689 688 OFFCURVE",
"689 653 CURVE SMOOTH",
"689 617 OFFCURVE",
"658 588 OFFCURVE",
"623 568 CURVE",
"623 543 LINE"
);
}
);
};
components = (
{
name = grave;
transform = "{1, 0, 0, 1, 132, 230}";
},
{
name = Ohorn;
}
);
layerId = "0B1DFD06-3317-40CA-B510-4969A0718C16";
width = 755;
}
);
leftKerningGroup = O;
note = Ohorngrave;
rightKerningGroup = O;
unicode = 1EDC;
},
{
glyphname = Ohornhookabove;
lastChange = "2017-12-19 05:21:12 +0000";
layers = (
{
background = {
paths = (
{
closed = 1;
nodes = (
"602 -10 OFFCURVE",
"720 124 OFFCURVE",
"720 350 CURVE SMOOTH",
"720 574 OFFCURVE",
"602 710 OFFCURVE",
"379 710 CURVE SMOOTH",
"155 710 OFFCURVE",
"37 574 OFFCURVE",
"37 350 CURVE SMOOTH",
"37 124 OFFCURVE",
"155 -10 OFFCURVE",
"379 -10 CURVE SMOOTH"
);
},
{
closed = 1;
nodes = (
"216 32 OFFCURVE",
"136 158 OFFCURVE",
"136 350 CURVE SMOOTH",
"136 541 OFFCURVE",
"216 668 OFFCURVE",
"378 668 CURVE SMOOTH",
"542 668 OFFCURVE",
"621 541 OFFCURVE",
"621 350 CURVE SMOOTH",
"621 158 OFFCURVE",
"542 32 OFFCURVE",
"378 32 CURVE SMOOTH"
);
},
{
closed = 1;
nodes = (
"412 809 LINE",
"393 816 OFFCURVE",
"381 822 OFFCURVE",
"381 839 CURVE SMOOTH",
"381 872 OFFCURVE",
"470 887 OFFCURVE",
"470 938 CURVE SMOOTH",
"470 980 OFFCURVE",
"434 1002 OFFCURVE",
"381 1002 CURVE SMOOTH",
"334 1002 OFFCURVE",
"293 985 OFFCURVE",
"293 951 CURVE SMOOTH",
"293 934 OFFCURVE",
"301 926 OFFCURVE",
"316 926 CURVE SMOOTH",
"339 926 OFFCURVE",
"341 945 OFFCURVE",
"344 953 CURVE SMOOTH",
"349 967 OFFCURVE",
"366 973 OFFCURVE",
"382 973 CURVE SMOOTH",
"403 973 OFFCURVE",
"416 958 OFFCURVE",
"416 941 CURVE SMOOTH",
"416 896 OFFCURVE",
"334 885 OFFCURVE",
"334 839 CURVE SMOOTH",
"334 812 OFFCURVE",
"352 789 OFFCURVE",
"403 789 CURVE"
);
},
{
closed = 1;
nodes = (
"691 567 OFFCURVE",
"756 632 OFFCURVE",
"756 705 CURVE SMOOTH",
"756 752 OFFCURVE",
"729 772 OFFCURVE",
"701 772 CURVE SMOOTH",
"672 772 OFFCURVE",
"656 752 OFFCURVE",
"656 729 CURVE SMOOTH",
"656 695 OFFCURVE",
"689 688 OFFCURVE",
"689 653 CURVE SMOOTH",
"689 617 OFFCURVE",
"658 588 OFFCURVE",
"623 568 CURVE",
"623 543 LINE"
);
}
);
};
components = (
{
name = hookabovecomb;
transform = "{1, 0, 0, 1, 629, 230}";
},
{
name = Ohorn;
}
);
layerId = "0B1DFD06-3317-40CA-B510-4969A0718C16";
width = 755;
}
);
leftKerningGroup = O;
note = Ohornhookabove;
rightKerningGroup = O;
unicode = 1EDE;
},
{
glyphname = Ohorntilde;
lastChange = "2017-12-19 05:21:12 +0000";
layers = (
{
background = {
paths = (
{
closed = 1;
nodes = (
"602 -10 OFFCURVE",
"720 124 OFFCURVE",
"720 350 CURVE SMOOTH",
"720 574 OFFCURVE",
"602 710 OFFCURVE",
"379 710 CURVE SMOOTH",
"155 710 OFFCURVE",
"37 574 OFFCURVE",
"37 350 CURVE SMOOTH",
"37 124 OFFCURVE",
"155 -10 OFFCURVE",
"379 -10 CURVE SMOOTH"
);
},
{
closed = 1;
nodes = (
"216 32 OFFCURVE",
"136 158 OFFCURVE",
"136 350 CURVE SMOOTH",
"136 541 OFFCURVE",
"216 668 OFFCURVE",
"378 668 CURVE SMOOTH",
"542 668 OFFCURVE",
"621 541 OFFCURVE",
"621 350 CURVE SMOOTH",
"621 158 OFFCURVE",
"542 32 OFFCURVE",
"378 32 CURVE SMOOTH"
);
},
{
closed = 1;
nodes = (
"234 828 OFFCURVE",
"252 849 OFFCURVE",
"285 849 CURVE SMOOTH",
"336 849 OFFCURVE",
"385 795 OFFCURVE",
"436 795 CURVE SMOOTH",
"494 795 OFFCURVE",
"524 843 OFFCURVE",
"536 895 CURVE",
"515 906 LINE",
"499 866 OFFCURVE",
"483 844 OFFCURVE",
"449 844 CURVE SMOOTH",
"400 844 OFFCURVE",
"348 897 OFFCURVE",
"297 897 CURVE SMOOTH",
"243 897 OFFCURVE",
"210 853 OFFCURVE",
"198 801 CURVE",
"220 790 LINE"
);
},
{
closed = 1;
nodes = (
"691 567 OFFCURVE",
"756 632 OFFCURVE",
"756 705 CURVE SMOOTH",
"756 752 OFFCURVE",
"729 772 OFFCURVE",
"701 772 CURVE SMOOTH",
"672 772 OFFCURVE",
"656 752 OFFCURVE",
"656 729 CURVE SMOOTH",
"656 695 OFFCURVE",
"689 688 OFFCURVE",
"689 653 CURVE SMOOTH",
"689 617 OFFCURVE",
"658 588 OFFCURVE",
"623 568 CURVE",
"623 543 LINE"
);
}
);
};
components = (
{
name = tilde;
transform = "{1, 0, 0, 1, 132, 230}";
},
{
name = Ohorn;
}
);
layerId = "0B1DFD06-3317-40CA-B510-4969A0718C16";
width = 755;
}
);
leftKerningGroup = O;
note = Ohorntilde;
rightKerningGroup = O;
unicode = 1EE0;
},
{
glyphname = Ohungarumlaut;
lastChange = "2017-12-19 05:21:12 +0000";
layers = (
{
background = {
paths = (
{
closed = 1;
nodes = (
"601 -10 OFFCURVE",
"719 124 OFFCURVE",
"719 350 CURVE SMOOTH",
"719 574 OFFCURVE",
"601 710 OFFCURVE",
"378 710 CURVE SMOOTH",
"154 710 OFFCURVE",
"36 574 OFFCURVE",
"36 350 CURVE SMOOTH",
"36 124 OFFCURVE",
"154 -10 OFFCURVE",
"378 -10 CURVE SMOOTH"
);
},
{
closed = 1;
nodes = (
"215 32 OFFCURVE",
"135 158 OFFCURVE",
"135 350 CURVE SMOOTH",
"135 541 OFFCURVE",
"215 668 OFFCURVE",
"377 668 CURVE SMOOTH",
"541 668 OFFCURVE",
"620 541 OFFCURVE",
"620 350 CURVE SMOOTH",
"620 158 OFFCURVE",
"541 32 OFFCURVE",
"377 32 CURVE SMOOTH"
);
},
{
closed = 1;
nodes = (
"395 864 LINE SMOOTH",
"417 877 OFFCURVE",
"429 891 OFFCURVE",
"429 908 CURVE SMOOTH",
"429 922 OFFCURVE",
"421 937 OFFCURVE",
"399 937 CURVE SMOOTH",
"378 937 OFFCURVE",
"357 919 OFFCURVE",
"350 913 CURVE",
"236 807 LINE",
"253 782 LINE"
);
},
{
closed = 1;
nodes = (
"556 864 LINE SMOOTH",
"577 877 OFFCURVE",
"589 891 OFFCURVE",
"589 908 CURVE SMOOTH",
"589 922 OFFCURVE",
"578 937 OFFCURVE",
"556 937 CURVE SMOOTH",
"534 937 OFFCURVE",
"517 919 OFFCURVE",
"510 913 CURVE",
"396 807 LINE",
"414 782 LINE"
);
}
);
};
components = (
{
name = O;
},
{
name = hungarumlaut;
transform = "{1, 0, 0, 1, 131, 230}";
}
);
layerId = "0B1DFD06-3317-40CA-B510-4969A0718C16";
width = 755;
}
);
leftKerningGroup = O;
note = Ohungarumlaut;
rightKerningGroup = O;
unicode = 0150;
},
{
glyphname = Omacron;
lastChange = "2017-12-19 05:21:12 +0000";
layers = (
{
background = {
paths = (
{
closed = 1;
nodes = (
"601 -10 OFFCURVE",
"719 124 OFFCURVE",
"719 350 CURVE SMOOTH",
"719 574 OFFCURVE",
"601 710 OFFCURVE",
"378 710 CURVE SMOOTH",
"154 710 OFFCURVE",
"36 574 OFFCURVE",
"36 350 CURVE SMOOTH",
"36 124 OFFCURVE",
"154 -10 OFFCURVE",
"378 -10 CURVE SMOOTH"
);
},
{
closed = 1;
nodes = (
"215 32 OFFCURVE",
"135 158 OFFCURVE",
"135 350 CURVE SMOOTH",
"135 541 OFFCURVE",
"215 668 OFFCURVE",
"377 668 CURVE SMOOTH",
"541 668 OFFCURVE",
"620 541 OFFCURVE",
"620 350 CURVE SMOOTH",
"620 158 OFFCURVE",
"541 32 OFFCURVE",
"377 32 CURVE SMOOTH"
);
},
{
closed = 1;
nodes = (
"543 793 LINE",
"543 835 LINE",
"210 835 LINE",
"210 793 LINE"
);
}
);
};
components = (
{
name = O;
},
{
name = macron;
transform = "{1, 0, 0, 1, 132, 230}";
}
);
layerId = "0B1DFD06-3317-40CA-B510-4969A0718C16";
width = 755;
}
);
leftKerningGroup = O;
note = Omacron;
rightKerningGroup = O;
unicode = 014C;
},
{
glyphname = Oslash;
lastChange = "2018-01-17 10:03:22 +0000";
layers = (
{
components = (
{
name = O;
transform = "{1, 0, 0, 1, 80, 0}";
}
);
layerId = "0B1DFD06-3317-40CA-B510-4969A0718C16";
paths = (
{
closed = 1;
nodes = (
"742 698 LINE SMOOTH",
"748 705 OFFCURVE",
"750 709 OFFCURVE",
"750 712 CURVE SMOOTH",
"750 720 OFFCURVE",
"743 726 OFFCURVE",
"736 726 CURVE SMOOTH",
"729 726 OFFCURVE",
"725 721 OFFCURVE",
"717 712 CURVE SMOOTH",
"132 20 LINE SMOOTH",
"127 14 OFFCURVE",
"124 10 OFFCURVE",
"124 5 CURVE SMOOTH",
"124 -3 OFFCURVE",
"135 -7 OFFCURVE",
"140 -7 CURVE SMOOTH",
"147 -7 OFFCURVE",
"152 -4 OFFCURVE",
"159 6 CURVE"
);
}
);
width = 944;
}
);
note = Oslash;
unicode = 00D8;
},
{
glyphname = OE;
lastChange = "2018-01-22 17:13:26 +0000";
layers = (
{
anchors = (
{
name = bottom;
position = "{292.441, 0}";
},
{
name = center;
position = "{292.441, 355.425}";
},
{
name = ogonek;
position = "{525.644, 10.155}";
},
{
name = top;
position = "{292.441, 710.849}";
},
{
name = topleft;
position = "{14.997, 710.849}";
},
{
name = topright;
position = "{502.878, 526.319}";
}
);
layerId = "0B1DFD06-3317-40CA-B510-4969A0718C16";
paths = (
{
closed = 1;
nodes = (
"370.566 10 OFFCURVE",
"479 48 OFFCURVE",
"510 175 CURVE",
"507 135 OFFCURVE",
"501.669 84.876 OFFCURVE",
"498 55 CURVE",
"470 55 OFFCURVE",
"463 54 OFFCURVE",
"463 36 CURVE SMOOTH",
"463 22 OFFCURVE",
"468 23 OFFCURVE",
"524 23 CURVE SMOOTH",
"622 23 OFFCURVE",
"644 14 OFFCURVE",
"726 14 CURVE SMOOTH",
"764 14 OFFCURVE",
"812 16 OFFCURVE",
"832 22 CURVE SMOOTH",
"845 26 OFFCURVE",
"851 32 OFFCURVE",
"851 38 CURVE SMOOTH",
"851 47 OFFCURVE",
"840 54 OFFCURVE",
"826 52 CURVE SMOOTH",
"773 44 OFFCURVE",
"742 41 OFFCURVE",
"694 41 CURVE SMOOTH",
"627 41 OFFCURVE",
"616 49 OFFCURVE",
"532 55 CURVE",
"541.435 201.839 OFFCURVE",
"548 283 OFFCURVE",
"551 355 CURVE",
"619 355 LINE SMOOTH",
"638 355 OFFCURVE",
"718 349 OFFCURVE",
"744 349 CURVE SMOOTH",
"758 349 OFFCURVE",
"771 350 OFFCURVE",
"771 363 CURVE SMOOTH",
"771 372 OFFCURVE",
"764 379 OFFCURVE",
"758 379 CURVE",
"703 382 OFFCURVE",
"613 384 OFFCURVE",
"553 385 CURVE",
"554 424 OFFCURVE",
"555 462.404 OFFCURVE",
"555 510 CURVE SMOOTH",
"555 559 OFFCURVE",
"554 610 OFFCURVE",
"551 661 CURVE",
"591 664 OFFCURVE",
"640 665 OFFCURVE",
"686 664 CURVE SMOOTH",
"756 663 OFFCURVE",
"832 657 OFFCURVE",
"840 657 CURVE SMOOTH",
"848 657 OFFCURVE",
"857 661 OFFCURVE",
"857 675 CURVE SMOOTH",
"857 682 OFFCURVE",
"853 687 OFFCURVE",
"847 687 CURVE SMOOTH",
"840 687 OFFCURVE",
"720 696 OFFCURVE",
"689 696 CURVE SMOOTH",
"625 696 OFFCURVE",
"566 691 OFFCURVE",
"517 691 CURVE SMOOTH",
"501 691 OFFCURVE",
"495 686 OFFCURVE",
"495 676 CURVE SMOOTH",
"495 664 OFFCURVE",
"503 661 OFFCURVE",
"517 661 CURVE",
"520 624 OFFCURVE",
"520 570 OFFCURVE",
"522 510 CURVE SMOOTH",
"524 461 LINE",
"497 627 OFFCURVE",
"391.287 716 OFFCURVE",
"283 716 CURVE SMOOTH",
"136 716 OFFCURVE",
"42 561 OFFCURVE",
"42 346 CURVE SMOOTH",
"42 97 OFFCURVE",
"168 10 OFFCURVE",
"285 10 CURVE SMOOTH"
);
},
{
closed = 1;
nodes = (
"199 42 OFFCURVE",
"80 106 OFFCURVE",
"80 348 CURVE SMOOTH",
"80 553 OFFCURVE",
"162 684 OFFCURVE",
"286 684 CURVE SMOOTH",
"407.565 684 OFFCURVE",
"499 559 OFFCURVE",
"512 386 CURVE",
"509 386 OFFCURVE",
"506 386 OFFCURVE",
"504 386 CURVE",
"500 386 LINE SMOOTH",
"482 386 OFFCURVE",
"482 374 OFFCURVE",
"482 366 CURVE SMOOTH",
"482 359 OFFCURVE",
"487 354 OFFCURVE",
"508 354 CURVE SMOOTH",
"510 354 OFFCURVE",
"511 354 OFFCURVE",
"514 354 CURVE",
"514 340 LINE SMOOTH",
"514 114 OFFCURVE",
"387 42 OFFCURVE",
"290 42 CURVE SMOOTH"
);
},
{
closed = 1;
nodes = (
"504 386 LINE",
"496 386 OFFCURVE",
"495 386 OFFCURVE",
"500 386 CURVE"
);
}
);
width = 893;
}
);
note = OE;
rightMetricsKey = E;
unicode = 0152;
},
{
glyphname = Thorn;
lastChange = "2018-01-03 15:14:19 +0000";
layers = (
{
layerId = "0B1DFD06-3317-40CA-B510-4969A0718C16";
paths = (
{
closed = 1;
nodes = (
"160 256 LINE",
"376 172 OFFCURVE",
"610 236 OFFCURVE",
"615 452 CURVE SMOOTH",
"615 507 OFFCURVE",
"600 553 OFFCURVE",
"569 589 CURVE SMOOTH",
"537 626 OFFCURVE",
"498 653 OFFCURVE",
"451 670 CURVE SMOOTH",
"405 688 OFFCURVE",
"354 694 OFFCURVE",
"299 692 CURVE SMOOTH",
"245 689 OFFCURVE",
"195 676 OFFCURVE",
"150 653 CURVE",
"150 652 OFFCURVE",
"151 748 OFFCURVE",
"146 832 CURVE",
"146 853 OFFCURVE",
"108 858 OFFCURVE",
"108 822 CURVE SMOOTH",
"111 633 LINE",
"109 633 OFFCURVE",
"106 632 OFFCURVE",
"103 630 CURVE",
"99 626 OFFCURVE",
"89 622 OFFCURVE",
"78 613 CURVE",
"72 609 OFFCURVE",
"71 602 OFFCURVE",
"76 592 CURVE",
"80 584 OFFCURVE",
"86 582 OFFCURVE",
"94 587 CURVE",
"113 593 LINE",
"113 446 OFFCURVE",
"125 302 OFFCURVE",
"111 33 CURVE",
"111 1 OFFCURVE",
"158 12 OFFCURVE",
"158 31 CURVE SMOOTH"
);
},
{
closed = 1;
nodes = (
"152 401 OFFCURVE",
"154 535 OFFCURVE",
"150 613 CURVE",
"350 712 OFFCURVE",
"583 612 OFFCURVE",
"578 455 CURVE SMOOTH",
"574 277 OFFCURVE",
"359 223 OFFCURVE",
"162 294 CURVE"
);
}
);
width = 688;
}
);
note = Thorn;
unicode = 00DE;
},
{
glyphname = Germandbls;
lastChange = "2018-01-03 16:33:05 +0000";
layers = (
{
layerId = "0B1DFD06-3317-40CA-B510-4969A0718C16";
paths = (
{
closed = 1;
nodes = (
"352 501 OFFCURVE",
"437 519 OFFCURVE",
"437 601 CURVE SMOOTH",
"437 687 OFFCURVE",
"345 740 OFFCURVE",
"256 740 CURVE SMOOTH",
"104 740 OFFCURVE",
"93 588 OFFCURVE",
"95 509 CURVE SMOOTH",
"104 17 LINE",
"104 6 OFFCURVE",
"113 0 OFFCURVE",
"125 0 CURVE SMOOTH",
"138 0 OFFCURVE",
"146 7 OFFCURVE",
"149 21 CURVE",
"146 214 OFFCURVE",
"141 401 OFFCURVE",
"141 509 CURVE SMOOTH",
"141 654 OFFCURVE",
"189 698 OFFCURVE",
"271 698 CURVE SMOOTH",
"337 698 OFFCURVE",
"387 641 OFFCURVE",
"387 598 CURVE SMOOTH",
"387 542 OFFCURVE",
"302 491 OFFCURVE",
"302 405 CURVE SMOOTH",
"302 268 OFFCURVE",
"514 242 OFFCURVE",
"514 130 CURVE SMOOTH",
"514 85 OFFCURVE",
"479 40 OFFCURVE",
"393 40 CURVE SMOOTH",
"325 40 OFFCURVE",
"298 68 OFFCURVE",
"279 96 CURVE SMOOTH",
"262 121 OFFCURVE",
"246 154 OFFCURVE",
"230 154 CURVE SMOOTH",
"223 154 OFFCURVE",
"216 148 OFFCURVE",
"209 134 CURVE",
"223 70 OFFCURVE",
"291 -2 OFFCURVE",
"397 -2 CURVE SMOOTH",
"488 -2 OFFCURVE",
"555 52 OFFCURVE",
"555 130 CURVE SMOOTH",
"555 265 OFFCURVE",
"352 304 OFFCURVE",
"352 424 CURVE SMOOTH"
);
}
);
width = 613;
}
);
note = uni1E9E;
unicode = 1E9E;
},
{
glyphname = Schwa;
lastChange = "2018-01-22 16:53:24 +0000";
layers = (
{
anchors = (
{
name = bottom;
position = "{367, 0}";
},
{
name = top;
position = "{367, 700}";
}
);
layerId = "0B1DFD06-3317-40CA-B510-4969A0718C16";
paths = (
{
closed = 1;
nodes = (
"580 -6 OFFCURVE",
"703 166 OFFCURVE",
"703 348 CURVE SMOOTH",
"703 518 OFFCURVE",
"594 691 OFFCURVE",
"369 691 CURVE SMOOTH",
"243 691 OFFCURVE",
"142 637 OFFCURVE",
"80 535 CURVE SMOOTH",
"72 521 OFFCURVE",
"70 512 OFFCURVE",
"79 507 CURVE SMOOTH",
"89 501 OFFCURVE",
"95 501 OFFCURVE",
"98 506 CURVE SMOOTH",
"126 552 OFFCURVE",
"192 659 OFFCURVE",
"362 659 CURVE SMOOTH",
"546 659 OFFCURVE",
"672 536 OFFCURVE",
"672 344 CURVE SMOOTH",
"672 342 OFFCURVE",
"670 339 OFFCURVE",
"665 339 CURVE SMOOTH",
"403 333 OFFCURVE",
"327 333 OFFCURVE",
"85 325 CURVE SMOOTH",
"50 324 OFFCURVE",
"53 299 OFFCURVE",
"53 263 CURVE SMOOTH",
"53 132 OFFCURVE",
"177 -6 OFFCURVE",
"365 -6 CURVE SMOOTH"
);
},
{
closed = 1;
nodes = (
"189 27 OFFCURVE",
"78 130 OFFCURVE",
"78 288 CURVE SMOOTH",
"78 295 OFFCURVE",
"83 299 OFFCURVE",
"88 299 CURVE SMOOTH",
"100 299 OFFCURVE",
"558 302 OFFCURVE",
"662 312 CURVE",
"667 312 OFFCURVE",
"669 310 OFFCURVE",
"670 307 CURVE",
"664 157 OFFCURVE",
"523 27 OFFCURVE",
"362 27 CURVE SMOOTH"
);
}
);
width = 734;
}
);
note = uni018F;
unicode = 018F;
},
{
glyphname = Tbar;
lastChange = "2017-12-19 05:21:12 +0000";
layers = (
{
components = (
{
name = T;
}
);
layerId = "0B1DFD06-3317-40CA-B510-4969A0718C16";
paths = (
{
closed = 1;
nodes = (
"520 317 LINE",
"520 363 LINE",
"134 363 LINE",
"134 317 LINE"
);
}
);
width = 652;
}
);
leftKerningGroup = T;
note = Tbar;
rightKerningGroup = T;
unicode = 0166;
},
{
glyphname = Uacute;
lastChange = "2018-01-22 17:23:06 +0000";
layers = (
{
background = {
paths = (
{
closed = 1;
nodes = (
"539 -10 OFFCURVE",
"636 51 OFFCURVE",
"636 204 CURVE SMOOTH",
"636 637 LINE SMOOTH",
"636 662 OFFCURVE",
"660 673 OFFCURVE",
"690 673 CURVE SMOOTH",
"713 673 LINE",
"713 700 LINE",
"510 700 LINE",
"510 673 LINE",
"532 673 LINE SMOOTH",
"564 673 OFFCURVE",
"586 662 OFFCURVE",
"586 637 CURVE SMOOTH",
"586 197 LINE SMOOTH",
"586 65 OFFCURVE",
"489 31 OFFCURVE",
"397 31 CURVE SMOOTH",
"290 31 OFFCURVE",
"203 63 OFFCURVE",
"203 197 CURVE SMOOTH",
"203 637 LINE SMOOTH",
"203 662 OFFCURVE",
"226 673 OFFCURVE",
"257 673 CURVE SMOOTH",
"280 673 LINE",
"280 700 LINE",
"28 700 LINE",
"28 673 LINE",
"51 673 LINE SMOOTH",
"82 673 OFFCURVE",
"105 662 OFFCURVE",
"105 637 CURVE SMOOTH",
"105 204 LINE SMOOTH",
"105 46 OFFCURVE",
"208 -10 OFFCURVE",
"375 -10 CURVE SMOOTH"
);
},
{
closed = 1;
nodes = (
"447 865 LINE SMOOTH",
"469 877 OFFCURVE",
"481 890 OFFCURVE",
"481 907 CURVE SMOOTH",
"481 922 OFFCURVE",
"469 937 OFFCURVE",
"447 937 CURVE SMOOTH",
"426 937 OFFCURVE",
"411 921 OFFCURVE",
"403 914 CURVE SMOOTH",
"288 807 LINE",
"305 782 LINE"
);
}
);
};
components = (
{
name = U;
},
{
name = acute;
transform = "{1, 0, 0, 1, 143, 230}";
}
);
layerId = "0B1DFD06-3317-40CA-B510-4969A0718C16";
width = 656;
}
);
leftKerningGroup = U;
note = Uacute;
rightKerningGroup = U;
unicode = 00DA;
},
{
glyphname = Ubreve;
lastChange = "2017-12-19 05:21:12 +0000";
layers = (
{
background = {
paths = (
{
closed = 1;
nodes = (
"539 -10 OFFCURVE",
"636 51 OFFCURVE",
"636 204 CURVE SMOOTH",
"636 637 LINE SMOOTH",
"636 662 OFFCURVE",
"660 673 OFFCURVE",
"690 673 CURVE SMOOTH",
"713 673 LINE",
"713 700 LINE",
"510 700 LINE",
"510 673 LINE",
"532 673 LINE SMOOTH",
"564 673 OFFCURVE",
"586 662 OFFCURVE",
"586 637 CURVE SMOOTH",
"586 197 LINE SMOOTH",
"586 65 OFFCURVE",
"489 31 OFFCURVE",
"397 31 CURVE SMOOTH",
"290 31 OFFCURVE",
"203 63 OFFCURVE",
"203 197 CURVE SMOOTH",
"203 637 LINE SMOOTH",
"203 662 OFFCURVE",
"226 673 OFFCURVE",
"257 673 CURVE SMOOTH",
"280 673 LINE",
"280 700 LINE",
"28 700 LINE",
"28 673 LINE",
"51 673 LINE SMOOTH",
"82 673 OFFCURVE",
"105 662 OFFCURVE",
"105 637 CURVE SMOOTH",
"105 204 LINE SMOOTH",
"105 46 OFFCURVE",
"208 -10 OFFCURVE",
"375 -10 CURVE SMOOTH"
);
},
{
closed = 1;
nodes = (
"483 774 OFFCURVE",
"525 830 OFFCURVE",
"529 905 CURVE",
"496 905 LINE",
"490 846 OFFCURVE",
"448 820 OFFCURVE",
"384 820 CURVE SMOOTH",
"320 820 OFFCURVE",
"277 846 OFFCURVE",
"270 905 CURVE",
"237 905 LINE",
"241 827 OFFCURVE",
"283 774 OFFCURVE",
"384 774 CURVE SMOOTH"
);
}
);
};
components = (
{
name = U;
},
{
name = breve;
transform = "{1, 0, 0, 1, 148, 230}";
}
);
layerId = "0B1DFD06-3317-40CA-B510-4969A0718C16";
width = 742;
}
);
leftKerningGroup = U;
note = Ubreve;
rightKerningGroup = U;
unicode = 016C;
},
{
glyphname = Ucaron;
lastChange = "2017-12-19 05:21:12 +0000";
layers = (
{
background = {
paths = (
{
closed = 1;
nodes = (
"539 -10 OFFCURVE",
"636 51 OFFCURVE",
"636 204 CURVE SMOOTH",
"636 637 LINE SMOOTH",
"636 662 OFFCURVE",
"660 673 OFFCURVE",
"690 673 CURVE SMOOTH",
"713 673 LINE",
"713 700 LINE",
"510 700 LINE",
"510 673 LINE",
"532 673 LINE SMOOTH",
"564 673 OFFCURVE",
"586 662 OFFCURVE",
"586 637 CURVE SMOOTH",
"586 197 LINE SMOOTH",
"586 65 OFFCURVE",
"489 31 OFFCURVE",
"397 31 CURVE SMOOTH",
"290 31 OFFCURVE",
"203 63 OFFCURVE",
"203 197 CURVE SMOOTH",
"203 637 LINE SMOOTH",
"203 662 OFFCURVE",
"226 673 OFFCURVE",
"257 673 CURVE SMOOTH",
"280 673 LINE",
"280 700 LINE",
"28 700 LINE",
"28 673 LINE",
"51 673 LINE SMOOTH",
"82 673 OFFCURVE",
"105 662 OFFCURVE",
"105 637 CURVE SMOOTH",
"105 204 LINE SMOOTH",
"105 46 OFFCURVE",
"208 -10 OFFCURVE",
"375 -10 CURVE SMOOTH"
);
},
{
closed = 1;
nodes = (
"397 782 LINE",
"521 911 LINE",
"502 932 LINE",
"394 847 LINE",
"386 840 OFFCURVE",
"377 836 OFFCURVE",
"371 836 CURVE SMOOTH",
"365 836 OFFCURVE",
"357 840 OFFCURVE",
"347 847 CURVE",
"239 932 LINE",
"220 911 LINE",
"344 782 LINE"
);
}
);
};
components = (
{
name = U;
},
{
name = caron;
transform = "{1, 0, 0, 1, 148, 230}";
}
);
layerId = "0B1DFD06-3317-40CA-B510-4969A0718C16";
width = 742;
}
);
leftKerningGroup = U;
note = Ucaron;
rightKerningGroup = U;
unicode = 01D3;
},
{
glyphname = Ucircumflex;
lastChange = "2017-12-19 05:21:12 +0000";
layers = (
{
background = {
paths = (
{
closed = 1;
nodes = (
"539 -10 OFFCURVE",
"636 51 OFFCURVE",
"636 204 CURVE SMOOTH",
"636 637 LINE SMOOTH",
"636 662 OFFCURVE",
"660 673 OFFCURVE",
"690 673 CURVE SMOOTH",
"713 673 LINE",
"713 700 LINE",
"510 700 LINE",
"510 673 LINE",
"532 673 LINE SMOOTH",
"564 673 OFFCURVE",
"586 662 OFFCURVE",
"586 637 CURVE SMOOTH",
"586 197 LINE SMOOTH",
"586 65 OFFCURVE",
"489 31 OFFCURVE",
"397 31 CURVE SMOOTH",
"290 31 OFFCURVE",
"203 63 OFFCURVE",
"203 197 CURVE SMOOTH",
"203 637 LINE SMOOTH",
"203 662 OFFCURVE",
"226 673 OFFCURVE",
"257 673 CURVE SMOOTH",
"280 673 LINE",
"280 700 LINE",
"28 700 LINE",
"28 673 LINE",
"51 673 LINE SMOOTH",
"82 673 OFFCURVE",
"105 662 OFFCURVE",
"105 637 CURVE SMOOTH",
"105 204 LINE SMOOTH",
"105 46 OFFCURVE",
"208 -10 OFFCURVE",
"375 -10 CURVE SMOOTH"
);
},
{
closed = 1;
nodes = (
"360 868 LINE SMOOTH",
"368 874 OFFCURVE",
"378 879 OFFCURVE",
"384 879 CURVE SMOOTH",
"390 879 OFFCURVE",
"398 874 OFFCURVE",
"407 868 CURVE",
"515 782 LINE",
"534 803 LINE",
"410 932 LINE",
"357 932 LINE",
"233 803 LINE",
"252 782 LINE"
);
}
);
};
components = (
{
name = U;
},
{
name = circumflex;
transform = "{1, 0, 0, 1, 148, 230}";
}
);
layerId = "0B1DFD06-3317-40CA-B510-4969A0718C16";
width = 742;
}
);
leftKerningGroup = U;
note = Ucircumflex;
rightKerningGroup = U;
unicode = 00DB;
},
{
glyphname = Udieresis;
lastChange = "2017-12-19 05:21:12 +0000";
layers = (
{
background = {
paths = (
{
closed = 1;
nodes = (
"539 -10 OFFCURVE",
"636 51 OFFCURVE",
"636 204 CURVE SMOOTH",
"636 637 LINE SMOOTH",
"636 662 OFFCURVE",
"660 673 OFFCURVE",
"690 673 CURVE SMOOTH",
"713 673 LINE",
"713 700 LINE",
"510 700 LINE",
"510 673 LINE",
"532 673 LINE SMOOTH",
"564 673 OFFCURVE",
"586 662 OFFCURVE",
"586 637 CURVE SMOOTH",
"586 197 LINE SMOOTH",
"586 65 OFFCURVE",
"489 31 OFFCURVE",
"397 31 CURVE SMOOTH",
"290 31 OFFCURVE",
"203 63 OFFCURVE",
"203 197 CURVE SMOOTH",
"203 637 LINE SMOOTH",
"203 662 OFFCURVE",
"226 673 OFFCURVE",
"257 673 CURVE SMOOTH",
"280 673 LINE",
"280 700 LINE",
"28 700 LINE",
"28 673 LINE",
"51 673 LINE SMOOTH",
"82 673 OFFCURVE",
"105 662 OFFCURVE",
"105 637 CURVE SMOOTH",
"105 204 LINE SMOOTH",
"105 46 OFFCURVE",
"208 -10 OFFCURVE",
"375 -10 CURVE SMOOTH"
);
},
{
closed = 1;
nodes = (
"304 781 OFFCURVE",
"322 800 OFFCURVE",
"322 827 CURVE SMOOTH",
"322 855 OFFCURVE",
"304 875 OFFCURVE",
"275 875 CURVE SMOOTH",
"247 875 OFFCURVE",
"229 855 OFFCURVE",
"229 827 CURVE SMOOTH",
"229 800 OFFCURVE",
"247 781 OFFCURVE",
"275 781 CURVE SMOOTH"
);
},
{
closed = 1;
nodes = (
"520 781 OFFCURVE",
"538 800 OFFCURVE",
"538 827 CURVE SMOOTH",
"538 855 OFFCURVE",
"520 875 OFFCURVE",
"491 875 CURVE SMOOTH",
"462 875 OFFCURVE",
"444 855 OFFCURVE",
"444 827 CURVE SMOOTH",
"444 800 OFFCURVE",
"462 781 OFFCURVE",
"491 781 CURVE SMOOTH"
);
}
);
};
components = (
{
name = U;
},
{
name = dieresis;
transform = "{1, 0, 0, 1, 148, 230}";
}
);
layerId = "0B1DFD06-3317-40CA-B510-4969A0718C16";
width = 742;
}
);
leftKerningGroup = U;
note = Udieresis;
rightKerningGroup = U;
unicode = 00DC;
},
{
glyphname = Udieresisacute;
lastChange = "2018-01-03 16:24:53 +0000";
layers = (
{
background = {
paths = (
{
closed = 1;
nodes = (
"539 -10 OFFCURVE",
"636 51 OFFCURVE",
"636 204 CURVE SMOOTH",
"636 637 LINE SMOOTH",
"636 662 OFFCURVE",
"660 673 OFFCURVE",
"690 673 CURVE SMOOTH",
"713 673 LINE",
"713 700 LINE",
"510 700 LINE",
"510 673 LINE",
"532 673 LINE SMOOTH",
"564 673 OFFCURVE",
"586 662 OFFCURVE",
"586 637 CURVE SMOOTH",
"586 197 LINE SMOOTH",
"586 65 OFFCURVE",
"489 31 OFFCURVE",
"397 31 CURVE SMOOTH",
"290 31 OFFCURVE",
"203 63 OFFCURVE",
"203 197 CURVE SMOOTH",
"203 637 LINE SMOOTH",
"203 662 OFFCURVE",
"226 673 OFFCURVE",
"257 673 CURVE SMOOTH",
"280 673 LINE",
"280 700 LINE",
"28 700 LINE",
"28 673 LINE",
"51 673 LINE SMOOTH",
"82 673 OFFCURVE",
"105 662 OFFCURVE",
"105 637 CURVE SMOOTH",
"105 204 LINE SMOOTH",
"105 46 OFFCURVE",
"208 -10 OFFCURVE",
"375 -10 CURVE SMOOTH"
);
},
{
closed = 1;
nodes = (
"291 780 OFFCURVE",
"310 799 OFFCURVE",
"310 827 CURVE SMOOTH",
"310 855 OFFCURVE",
"291 875 OFFCURVE",
"262 875 CURVE SMOOTH",
"235 875 OFFCURVE",
"216 855 OFFCURVE",
"216 827 CURVE SMOOTH",
"216 799 OFFCURVE",
"235 780 OFFCURVE",
"262 780 CURVE SMOOTH"
);
},
{
closed = 1;
nodes = (
"507 780 OFFCURVE",
"526 799 OFFCURVE",
"526 827 CURVE SMOOTH",
"526 855 OFFCURVE",
"507 875 OFFCURVE",
"479 875 CURVE SMOOTH",
"451 875 OFFCURVE",
"432 855 OFFCURVE",
"432 827 CURVE SMOOTH",
"432 799 OFFCURVE",
"451 780 OFFCURVE",
"479 780 CURVE SMOOTH"
);
},
{
closed = 1;
nodes = (
"481 969 LINE SMOOTH",
"502 981 OFFCURVE",
"512 993 OFFCURVE",
"512 1009 CURVE SMOOTH",
"512 1024 OFFCURVE",
"503 1037 OFFCURVE",
"481 1037 CURVE SMOOTH",
"460 1037 OFFCURVE",
"442 1020 OFFCURVE",
"435 1013 CURVE SMOOTH",
"344 924 LINE",
"362 899 LINE"
);
}
);
};
components = (
{
name = U;
},
{
name = dieresisacute;
transform = "{1, 0, 0, 1, 83, 230}";
}
);
layerId = "0B1DFD06-3317-40CA-B510-4969A0718C16";
width = 656;
}
);
leftKerningGroup = U;
note = Udieresisacute;
rightKerningGroup = U;
unicode = 01D7;
},
{
glyphname = Udieresiscaron;
lastChange = "2018-01-17 09:53:18 +0000";
layers = (
{
background = {
paths = (
{
closed = 1;
nodes = (
"539 -10 OFFCURVE",
"636 51 OFFCURVE",
"636 204 CURVE SMOOTH",
"636 637 LINE SMOOTH",
"636 662 OFFCURVE",
"660 673 OFFCURVE",
"690 673 CURVE SMOOTH",
"713 673 LINE",
"713 700 LINE",
"510 700 LINE",
"510 673 LINE",
"532 673 LINE SMOOTH",
"564 673 OFFCURVE",
"586 662 OFFCURVE",
"586 637 CURVE SMOOTH",
"586 197 LINE SMOOTH",
"586 65 OFFCURVE",
"489 31 OFFCURVE",
"397 31 CURVE SMOOTH",
"290 31 OFFCURVE",
"203 63 OFFCURVE",
"203 197 CURVE SMOOTH",
"203 637 LINE SMOOTH",
"203 662 OFFCURVE",
"226 673 OFFCURVE",
"257 673 CURVE SMOOTH",
"280 673 LINE",
"280 700 LINE",
"28 700 LINE",
"28 673 LINE",
"51 673 LINE SMOOTH",
"82 673 OFFCURVE",
"105 662 OFFCURVE",
"105 637 CURVE SMOOTH",
"105 204 LINE SMOOTH",
"105 46 OFFCURVE",
"208 -10 OFFCURVE",
"375 -10 CURVE SMOOTH"
);
},
{
closed = 1;
nodes = (
"296 780 OFFCURVE",
"315 799 OFFCURVE",
"315 827 CURVE SMOOTH",
"315 855 OFFCURVE",
"296 875 OFFCURVE",
"267 875 CURVE SMOOTH",
"240 875 OFFCURVE",
"221 855 OFFCURVE",
"221 827 CURVE SMOOTH",
"221 799 OFFCURVE",
"240 780 OFFCURVE",
"267 780 CURVE SMOOTH"
);
},
{
closed = 1;
nodes = (
"512 780 OFFCURVE",
"531 799 OFFCURVE",
"531 827 CURVE SMOOTH",
"531 855 OFFCURVE",
"512 875 OFFCURVE",
"484 875 CURVE SMOOTH",
"456 875 OFFCURVE",
"437 855 OFFCURVE",
"437 827 CURVE SMOOTH",
"437 799 OFFCURVE",
"456 780 OFFCURVE",
"484 780 CURVE SMOOTH"
);
},
{
closed = 1;
nodes = (
"401 911 LINE",
"523 1035 LINE",
"505 1056 LINE",
"404 978 LINE",
"394 971 OFFCURVE",
"385 963 OFFCURVE",
"376 963 CURVE SMOOTH",
"369 963 OFFCURVE",
"357 971 OFFCURVE",
"347 978 CURVE",
"246 1056 LINE",
"228 1035 LINE",
"350 911 LINE"
);
}
);
};
components = (
{
name = U;
},
{
name = dieresiscaron;
transform = "{1, 0, 0, 1, 83, 230}";
}
);
layerId = "0B1DFD06-3317-40CA-B510-4969A0718C16";
width = 656;
}
);
leftKerningGroup = U;
note = Udieresiscaron;
rightKerningGroup = U;
unicode = 01D9;
},
{
glyphname = Udieresisgrave;
lastChange = "2018-01-03 16:24:53 +0000";
layers = (
{
background = {
paths = (
{
closed = 1;
nodes = (
"539 -10 OFFCURVE",
"636 51 OFFCURVE",
"636 204 CURVE SMOOTH",
"636 637 LINE SMOOTH",
"636 662 OFFCURVE",
"660 673 OFFCURVE",
"690 673 CURVE SMOOTH",
"713 673 LINE",
"713 700 LINE",
"510 700 LINE",
"510 673 LINE",
"532 673 LINE SMOOTH",
"564 673 OFFCURVE",
"586 662 OFFCURVE",
"586 637 CURVE SMOOTH",
"586 197 LINE SMOOTH",
"586 65 OFFCURVE",
"489 31 OFFCURVE",
"397 31 CURVE SMOOTH",
"290 31 OFFCURVE",
"203 63 OFFCURVE",
"203 197 CURVE SMOOTH",
"203 637 LINE SMOOTH",
"203 662 OFFCURVE",
"226 673 OFFCURVE",
"257 673 CURVE SMOOTH",
"280 673 LINE",
"280 700 LINE",
"28 700 LINE",
"28 673 LINE",
"51 673 LINE SMOOTH",
"82 673 OFFCURVE",
"105 662 OFFCURVE",
"105 637 CURVE SMOOTH",
"105 204 LINE SMOOTH",
"105 46 OFFCURVE",
"208 -10 OFFCURVE",
"375 -10 CURVE SMOOTH"
);
},
{
closed = 1;
nodes = (
"296 780 OFFCURVE",
"315 799 OFFCURVE",
"315 827 CURVE SMOOTH",
"315 855 OFFCURVE",
"296 875 OFFCURVE",
"267 875 CURVE SMOOTH",
"240 875 OFFCURVE",
"221 855 OFFCURVE",
"221 827 CURVE SMOOTH",
"221 799 OFFCURVE",
"240 780 OFFCURVE",
"267 780 CURVE SMOOTH"
);
},
{
closed = 1;
nodes = (
"403 924 LINE",
"312 1013 LINE SMOOTH",
"305 1020 OFFCURVE",
"288 1036 OFFCURVE",
"267 1036 CURVE SMOOTH",
"245 1036 OFFCURVE",
"235 1024 OFFCURVE",
"235 1009 CURVE SMOOTH",
"235 993 OFFCURVE",
"245 981 OFFCURVE",
"266 969 CURVE SMOOTH",
"385 899 LINE"
);
},
{
closed = 1;
nodes = (
"512 780 OFFCURVE",
"531 799 OFFCURVE",
"531 827 CURVE SMOOTH",
"531 855 OFFCURVE",
"512 875 OFFCURVE",
"484 875 CURVE SMOOTH",
"456 875 OFFCURVE",
"437 855 OFFCURVE",
"437 827 CURVE SMOOTH",
"437 799 OFFCURVE",
"456 780 OFFCURVE",
"484 780 CURVE SMOOTH"
);
}
);
};
components = (
{
name = U;
},
{
name = dieresisgrave;
transform = "{1, 0, 0, 1, 83, 230}";
}
);
layerId = "0B1DFD06-3317-40CA-B510-4969A0718C16";
width = 656;
}
);
leftKerningGroup = U;
note = Udieresisgrave;
rightKerningGroup = U;
unicode = 01DB;
},
{
glyphname = Udieresismacron;
lastChange = "2017-12-19 05:21:12 +0000";
layers = (
{
background = {
paths = (
{
closed = 1;
nodes = (
"539 -10 OFFCURVE",
"636 51 OFFCURVE",
"636 204 CURVE SMOOTH",
"636 637 LINE SMOOTH",
"636 662 OFFCURVE",
"660 673 OFFCURVE",
"690 673 CURVE SMOOTH",
"713 673 LINE",
"713 700 LINE",
"510 700 LINE",
"510 673 LINE",
"532 673 LINE SMOOTH",
"564 673 OFFCURVE",
"586 662 OFFCURVE",
"586 637 CURVE SMOOTH",
"586 197 LINE SMOOTH",
"586 65 OFFCURVE",
"489 31 OFFCURVE",
"397 31 CURVE SMOOTH",
"290 31 OFFCURVE",
"203 63 OFFCURVE",
"203 197 CURVE SMOOTH",
"203 637 LINE SMOOTH",
"203 662 OFFCURVE",
"226 673 OFFCURVE",
"257 673 CURVE SMOOTH",
"280 673 LINE",
"280 700 LINE",
"28 700 LINE",
"28 673 LINE",
"51 673 LINE SMOOTH",
"82 673 OFFCURVE",
"105 662 OFFCURVE",
"105 637 CURVE SMOOTH",
"105 204 LINE SMOOTH",
"105 46 OFFCURVE",
"208 -10 OFFCURVE",
"375 -10 CURVE SMOOTH"
);
},
{
closed = 1;
nodes = (
"291 781 OFFCURVE",
"309 800 OFFCURVE",
"309 827 CURVE SMOOTH",
"309 855 OFFCURVE",
"291 875 OFFCURVE",
"262 875 CURVE SMOOTH",
"234 875 OFFCURVE",
"216 855 OFFCURVE",
"216 827 CURVE SMOOTH",
"216 800 OFFCURVE",
"234 781 OFFCURVE",
"262 781 CURVE SMOOTH"
);
},
{
closed = 1;
nodes = (
"507 781 OFFCURVE",
"525 800 OFFCURVE",
"525 827 CURVE SMOOTH",
"525 855 OFFCURVE",
"507 875 OFFCURVE",
"478 875 CURVE SMOOTH",
"449 875 OFFCURVE",
"431 855 OFFCURVE",
"431 827 CURVE SMOOTH",
"431 800 OFFCURVE",
"449 781 OFFCURVE",
"478 781 CURVE SMOOTH"
);
},
{
closed = 1;
nodes = (
"537 928 LINE",
"537 970 LINE",
"204 970 LINE",
"204 928 LINE"
);
}
);
};
components = (
{
name = U;
},
{
name = dieresis;
transform = "{1, 0, 0, 1, 148, 230}";
},
{
alignment = -1;
name = macron;
transform = "{1, 0, 0, 1, 145, 356}";
}
);
layerId = "0B1DFD06-3317-40CA-B510-4969A0718C16";
width = 742;
}
);
leftKerningGroup = U;
note = Udieresismacron;
rightKerningGroup = U;
unicode = 01D5;
},
{
glyphname = Uhorn;
lastChange = "2018-01-03 15:14:19 +0000";
layers = (
{
layerId = "0B1DFD06-3317-40CA-B510-4969A0718C16";
paths = (
{
closed = 1;
nodes = (
"519 6 OFFCURVE",
"578 20 OFFCURVE",
"617 45 CURVE SMOOTH",
"656 71 OFFCURVE",
"683 104 OFFCURVE",
"700 145 CURVE",
"712 147 OFFCURVE",
"713 117 OFFCURVE",
"711 87 CURVE SMOOTH",
"710 70 OFFCURVE",
"707 49 OFFCURVE",
"705 26 CURVE",
"709 -15 OFFCURVE",
"754 -4 OFFCURVE",
"754 25 CURVE",
"747 709 LINE",
"770 716 OFFCURVE",
"791 727 OFFCURVE",
"811 741 CURVE",
"844 768 OFFCURVE",
"877 812 OFFCURVE",
"877 893 CURVE SMOOTH",
"877 939 OFFCURVE",
"827 940 OFFCURVE",
"832 907 CURVE",
"836 842 OFFCURVE",
"813 807 OFFCURVE",
"791 784 CURVE SMOOTH",
"778 771 OFFCURVE",
"762 762 OFFCURVE",
"743 756 CURVE",
"743 830 LINE SMOOTH",
"743 853 OFFCURVE",
"701 855 OFFCURVE",
"701 829 CURVE SMOOTH",
"703 374 LINE SMOOTH",
"703 224 OFFCURVE",
"675 49 OFFCURVE",
"445 45 CURVE SMOOTH",
"213 41 OFFCURVE",
"145 222 OFFCURVE",
"155 364 CURVE",
"164 817 LINE SMOOTH",
"164 839 OFFCURVE",
"122 846 OFFCURVE",
"122 819 CURVE",
"117 761 OFFCURVE",
"117 620 OFFCURVE",
"113 299 CURVE SMOOTH",
"113 181 OFFCURVE",
"189 3 OFFCURVE",
"439 5 CURVE SMOOTH"
);
}
);
width = 893;
}
);
note = Uhorn;
unicode = 01AF;
},
{
glyphname = ae;
lastChange = "2018-01-03 15:14:19 +0000";
layers = (
{
layerId = "0B1DFD06-3317-40CA-B510-4969A0718C16";
paths = (
{
closed = 1;
nodes = (
"355 -3 OFFCURVE",
"475 58 OFFCURVE",
"491 183 CURVE",
"536 69 OFFCURVE",
"622 -9 OFFCURVE",
"829 0 CURVE",
"860 -3 OFFCURVE",
"853 34 OFFCURVE",
"836 35 CURVE",
"634 17 OFFCURVE",
"507 109 OFFCURVE",
"503 319 CURVE",
"1012 315 LINE",
"1011 418 OFFCURVE",
"973 607 OFFCURVE",
"759 606 CURVE SMOOTH",
"655 606 OFFCURVE",
"556 541 OFFCURVE",
"498 437 CURVE",
"485 485 OFFCURVE",
"462 526 OFFCURVE",
"430 558 CURVE SMOOTH",
"398 590 OFFCURVE",
"351 606 OFFCURVE",
"289 606 CURVE SMOOTH",
"247 606 OFFCURVE",
"178 600 OFFCURVE",
"106 553 CURVE SMOOTH",
"97 547 OFFCURVE",
"95 541 OFFCURVE",
"100 533 CURVE SMOOTH",
"105 525 OFFCURVE",
"112 524 OFFCURVE",
"120 528 CURVE",
"164 558 OFFCURVE",
"229 575 OFFCURVE",
"289 575 CURVE SMOOTH",
"456 575 OFFCURVE",
"473 406 OFFCURVE",
"473 352 CURVE",
"195 361 OFFCURVE",
"73 269 OFFCURVE",
"73 146 CURVE SMOOTH",
"73 82 OFFCURVE",
"111 -3 OFFCURVE",
"244 -3 CURVE SMOOTH"
);
},
{
closed = 1;
nodes = (
"209 25 OFFCURVE",
"175 37 OFFCURVE",
"146 60 CURVE SMOOTH",
"117 84 OFFCURVE",
"103 115 OFFCURVE",
"103 151 CURVE SMOOTH",
"103 305 OFFCURVE",
"315 325 OFFCURVE",
"473 320 CURVE",
"473 219 LINE SMOOTH",
"473 107 OFFCURVE",
"369 25 OFFCURVE",
"249 25 CURVE SMOOTH"
);
},
{
closed = 1;
nodes = (
"505 350 LINE",
"519 450 OFFCURVE",
"601 580 OFFCURVE",
"759 580 CURVE SMOOTH",
"942 578 OFFCURVE",
"983 412 OFFCURVE",
"985 341 CURVE"
);
}
);
width = 1046;
}
);
note = ae;
unicode = 00E6;
},
{
glyphname = eth;
lastChange = "2018-01-03 15:14:19 +0000";
layers = (
{
layerId = "0B1DFD06-3317-40CA-B510-4969A0718C16";
paths = (
{
closed = 1;
nodes = (
"502 -15 OFFCURVE",
"665 82 OFFCURVE",
"665 317 CURVE SMOOTH",
"665 410 OFFCURVE",
"644 486 OFFCURVE",
"611 560 CURVE",
"564 644 OFFCURVE",
"507 717 OFFCURVE",
"428 778 CURVE",
"568 841 LINE",
"543 895 LINE",
"377 814 LINE",
"322 854 OFFCURVE",
"260 885 OFFCURVE",
"195 912 CURVE",
"167 855 LINE",
"221 836 OFFCURVE",
"275 810 OFFCURVE",
"315 785 CURVE",
"150 706 LINE",
"171 656 LINE",
"238 687 OFFCURVE",
"302 718 OFFCURVE",
"369 749 CURVE",
"451 685 OFFCURVE",
"508 621 OFFCURVE",
"555 547 CURVE",
"488 604 OFFCURVE",
"426 618 OFFCURVE",
"359 618 CURVE SMOOTH",
"207 618 OFFCURVE",
"54 491 OFFCURVE",
"54 292 CURVE SMOOTH",
"54 117 OFFCURVE",
"176 -15 OFFCURVE",
"354 -15 CURVE SMOOTH"
);
},
{
closed = 1;
nodes = (
"235 42 OFFCURVE",
"118 132 OFFCURVE",
"118 294 CURVE SMOOTH",
"118 418 OFFCURVE",
"192 560 OFFCURVE",
"359 560 CURVE SMOOTH",
"440 560 OFFCURVE",
"496 523 OFFCURVE",
"536 491 CURVE",
"574 451 OFFCURVE",
"595 396 OFFCURVE",
"595 308 CURVE SMOOTH",
"595 133 OFFCURVE",
"486 42 OFFCURVE",
"352 42 CURVE SMOOTH"
);
}
);
width = 724;
}
);
note = eth;
unicode = 00F0;
},
{
color = 5;
glyphname = dcaron;
lastChange = "2018-01-03 16:29:50 +0000";
layers = (
{
layerId = "0B1DFD06-3317-40CA-B510-4969A0718C16";
paths = (
{
closed = 1;
nodes = (
"321 -10 OFFCURVE",
"381 14 OFFCURVE",
"417 74 CURVE",
"422 -4 LINE",
"564 11 LINE",
"564 34 LINE",
"541 34 LINE SMOOTH",
"513 34 OFFCURVE",
"499 44 OFFCURVE",
"499 69 CURVE SMOOTH",
"499 717 LINE",
"474 717 LINE",
"349 672 LINE",
"355 649 LINE",
"365 653 OFFCURVE",
"377 657 OFFCURVE",
"385 657 CURVE SMOOTH",
"394 657 OFFCURVE",
"405 654 OFFCURVE",
"405 636 CURVE SMOOTH",
"405 410 LINE",
"363 467 OFFCURVE",
"298 480 OFFCURVE",
"242 480 CURVE SMOOTH",
"123 480 OFFCURVE",
"31 401 OFFCURVE",
"31 245 CURVE SMOOTH",
"31 60 OFFCURVE",
"118 -10 OFFCURVE",
"243 -10 CURVE SMOOTH"
);
},
{
closed = 1;
nodes = (
"160 28 OFFCURVE",
"124 120 OFFCURVE",
"124 242 CURVE SMOOTH",
"124 372 OFFCURVE",
"176 440 OFFCURVE",
"275 440 CURVE SMOOTH",
"337 440 OFFCURVE",
"406 392 OFFCURVE",
"406 320 CURVE SMOOTH",
"406 168 LINE SMOOTH",
"406 97 OFFCURVE",
"357 28 OFFCURVE",
"269 28 CURVE SMOOTH"
);
},
{
closed = 1;
nodes = (
"630 523 OFFCURVE",
"674 583 OFFCURVE",
"674 646 CURVE SMOOTH",
"674 694 OFFCURVE",
"650 714 OFFCURVE",
"621 714 CURVE SMOOTH",
"592 714 OFFCURVE",
"575 694 OFFCURVE",
"575 670 CURVE SMOOTH",
"575 636 OFFCURVE",
"610 629 OFFCURVE",
"610 594 CURVE SMOOTH",
"610 558 OFFCURVE",
"584 525 OFFCURVE",
"557 499 CURVE",
"574 482 LINE"
);
}
);
width = 686;
}
);
leftKerningGroup = d;
note = dcaron;
unicode = 010F;
},
{
glyphname = dcroat;
lastChange = "2018-01-03 15:14:19 +0000";
layers = (
{
layerId = "0B1DFD06-3317-40CA-B510-4969A0718C16";
paths = (
{
closed = 1;
nodes = (
"422 5 OFFCURVE",
"501 31 OFFCURVE",
"575 98 CURVE",
"586 30 LINE",
"594 20 OFFCURVE",
"604 14 OFFCURVE",
"613 14 CURVE SMOOTH",
"623 14 OFFCURVE",
"631 21 OFFCURVE",
"631 30 CURVE SMOOTH",
"631 39 OFFCURVE",
"624 48 OFFCURVE",
"622 60 CURVE",
"608 122 OFFCURVE",
"605 216 OFFCURVE",
"605 372 CURVE SMOOTH",
"605 444 OFFCURVE",
"608 531 OFFCURVE",
"613 636 CURVE",
"687 636 LINE SMOOTH",
"700 636 OFFCURVE",
"708 645 OFFCURVE",
"708 655 CURVE SMOOTH",
"708 666 OFFCURVE",
"700 675 OFFCURVE",
"687 675 CURVE SMOOTH",
"614 675 LINE",
"618 728 OFFCURVE",
"618 691 OFFCURVE",
"621 751 CURVE",
"619 762 OFFCURVE",
"610 767 OFFCURVE",
"602 767 CURVE SMOOTH",
"591 767 OFFCURVE",
"580 760 OFFCURVE",
"580 748 CURVE",
"572 677 OFFCURVE",
"576 719 OFFCURVE",
"572 673 CURVE",
"461 669 LINE",
"447 669 OFFCURVE",
"439 660 OFFCURVE",
"439 651 CURVE SMOOTH",
"439 641 OFFCURVE",
"447 631 OFFCURVE",
"461 632 CURVE SMOOTH",
"570 635 LINE",
"564 520 OFFCURVE",
"564 473 OFFCURVE",
"564 455 CURVE SMOOTH",
"564 444 OFFCURVE",
"564 442 OFFCURVE",
"564 442 CURVE",
"500 516 OFFCURVE",
"424 520 OFFCURVE",
"362 520 CURVE SMOOTH",
"236 520 OFFCURVE",
"115 437 OFFCURVE",
"115 255 CURVE SMOOTH",
"115 57 OFFCURVE",
"274 5 OFFCURVE",
"359 5 CURVE SMOOTH"
);
},
{
closed = 1;
nodes = (
"301 41 OFFCURVE",
"150 88 OFFCURVE",
"150 255 CURVE SMOOTH",
"150 410 OFFCURVE",
"258 482 OFFCURVE",
"371 482 CURVE SMOOTH",
"439 482 OFFCURVE",
"527 445 OFFCURVE",
"565 377 CURVE",
"568 325 OFFCURVE",
"568 280 OFFCURVE",
"570 249 CURVE SMOOTH",
"574 201 LINE",
"572 100 OFFCURVE",
"457 41 OFFCURVE",
"366 41 CURVE SMOOTH"
);
}
);
width = 768;
}
);
note = dslash;
unicode = 0111;
},
{
color = 5;
glyphname = schwa;
lastChange = "2018-01-22 17:25:24 +0000";
layers = (
{
layerId = "0B1DFD06-3317-40CA-B510-4969A0718C16";
paths = (
{
closed = 1;
nodes = (
"460 0 OFFCURVE",
"551 127 OFFCURVE",
"551 259 CURVE SMOOTH",
"551 383 OFFCURVE",
"470 512 OFFCURVE",
"304 512 CURVE SMOOTH",
"213 512 OFFCURVE",
"137 473 OFFCURVE",
"90 396 CURVE SMOOTH",
"83 385 OFFCURVE",
"82 377 OFFCURVE",
"91 371 CURVE SMOOTH",
"100 365 OFFCURVE",
"109 366 OFFCURVE",
"112 371 CURVE SMOOTH",
"133 406 OFFCURVE",
"179 481 OFFCURVE",
"299 481 CURVE SMOOTH",
"421 481 OFFCURVE",
"515 402 OFFCURVE",
"519 256 CURVE",
"329 252 OFFCURVE",
"273 246 OFFCURVE",
"98 246 CURVE SMOOTH",
"67 246 OFFCURVE",
"70 224 OFFCURVE",
"70 198 CURVE SMOOTH",
"70 101 OFFCURVE",
"162 0 OFFCURVE",
"301 0 CURVE SMOOTH"
);
},
{
closed = 1;
nodes = (
"178 31 OFFCURVE",
"96 106 OFFCURVE",
"98 220 CURVE",
"106 222 OFFCURVE",
"441 222 OFFCURVE",
"517 229 CURVE",
"513 129 OFFCURVE",
"419 31 OFFCURVE",
"299 31 CURVE SMOOTH"
);
}
);
width = 634;
}
);
note = schwa;
rightMetricsKey = e;
unicode = 0259;
},
{
color = 5;
glyphname = hbar;
lastChange = "2018-01-03 16:29:50 +0000";
layers = (
{
layerId = "0B1DFD06-3317-40CA-B510-4969A0718C16";
paths = (
{
closed = 1;
nodes = (
"600 0 LINE",
"600 25 LINE",
"582 25 LINE SMOOTH",
"552 25 OFFCURVE",
"528 34 OFFCURVE",
"528 57 CURVE SMOOTH",
"528 344 LINE SMOOTH",
"528 424 OFFCURVE",
"471 480 OFFCURVE",
"357 480 CURVE SMOOTH",
"265 480 OFFCURVE",
"194 424 OFFCURVE",
"178 373 CURVE",
"178 285 LINE",
"188 285 LINE",
"188 389 OFFCURVE",
"264 439 OFFCURVE",
"330 439 CURVE SMOOTH",
"396 439 OFFCURVE",
"434 404 OFFCURVE",
"434 332 CURVE SMOOTH",
"434 57 LINE SMOOTH",
"434 34 OFFCURVE",
"411 25 OFFCURVE",
"383 25 CURVE SMOOTH",
"367 25 LINE",
"367 0 LINE"
);
},
{
closed = 1;
nodes = (
"255 0 LINE",
"255 25 LINE",
"240 25 LINE SMOOTH",
"212 25 OFFCURVE",
"188 34 OFFCURVE",
"188 57 CURVE SMOOTH",
"188 717 LINE",
"163 717 LINE",
"37 672 LINE",
"44 649 LINE",
"54 653 OFFCURVE",
"66 657 OFFCURVE",
"73 657 CURVE SMOOTH",
"83 657 OFFCURVE",
"94 654 OFFCURVE",
"94 636 CURVE SMOOTH",
"94 57 LINE SMOOTH",
"94 34 OFFCURVE",
"71 25 OFFCURVE",
"41 25 CURVE SMOOTH",
"22 25 LINE",
"22 0 LINE"
);
},
{
closed = 1;
nodes = (
"339 559 LINE",
"339 594 LINE",
"40 594 LINE",
"40 559 LINE"
);
}
);
width = 622;
}
);
note = hbar;
rightKerningGroup = h;
unicode = 0127;
},
{
glyphname = idotless;
lastChange = "2018-01-22 16:26:07 +0000";
layers = (
{
anchors = (
{
name = bottom;
position = "{142, 0}";
},
{
name = ogonek;
position = "{256, 10}";
},
{
name = top;
position = "{164, 470}";
}
);
layerId = "0B1DFD06-3317-40CA-B510-4969A0718C16";
paths = (
{
closed = 1;
nodes = (
"161 6 OFFCURVE",
"165 13 OFFCURVE",
"165 28 CURVE SMOOTH",
"179 482 LINE SMOOTH",
"179 497 OFFCURVE",
"173 504 OFFCURVE",
"162 504 CURVE SMOOTH",
"152 504 OFFCURVE",
"146 497 OFFCURVE",
"146 482 CURVE SMOOTH",
"136 28 LINE SMOOTH",
"136 14 OFFCURVE",
"142 6 OFFCURVE",
"152 6 CURVE SMOOTH"
);
}
);
width = 284;
}
);
note = dotlessi;
unicode = 0131;
},
{
color = 5;
glyphname = ij;
lastChange = "2018-01-03 16:29:50 +0000";
layers = (
{
layerId = "0B1DFD06-3317-40CA-B510-4969A0718C16";
paths = (
{
closed = 1;
nodes = (
"472 -107 OFFCURVE",
"516 -25 OFFCURVE",
"516 102 CURVE SMOOTH",
"516 473 LINE",
"491 473 LINE",
"365 428 LINE",
"372 406 LINE",
"383 410 OFFCURVE",
"394 414 OFFCURVE",
"402 414 CURVE SMOOTH",
"411 414 OFFCURVE",
"423 410 OFFCURVE",
"423 393 CURVE SMOOTH",
"423 97 LINE SMOOTH",
"423 -4 OFFCURVE",
"418 -72 OFFCURVE",
"326 -110 CURVE",
"331 -132 LINE"
);
},
{
closed = 1;
nodes = (
"265 0 LINE",
"265 25 LINE",
"246 25 LINE SMOOTH",
"217 25 OFFCURVE",
"193 34 OFFCURVE",
"193 57 CURVE SMOOTH",
"193 475 LINE",
"168 475 LINE",
"42 431 LINE",
"49 408 LINE",
"59 411 OFFCURVE",
"71 416 OFFCURVE",
"78 416 CURVE SMOOTH",
"88 416 OFFCURVE",
"99 412 OFFCURVE",
"99 394 CURVE SMOOTH",
"99 57 LINE SMOOTH",
"99 34 OFFCURVE",
"76 25 OFFCURVE",
"46 25 CURVE SMOOTH",
"27 25 LINE",
"27 0 LINE"
);
},
{
closed = 1;
nodes = (
"171 561 OFFCURVE",
"194 584 OFFCURVE",
"194 616 CURVE SMOOTH",
"194 649 OFFCURVE",
"171 671 OFFCURVE",
"138 671 CURVE SMOOTH",
"103 671 OFFCURVE",
"81 649 OFFCURVE",
"81 616 CURVE SMOOTH",
"81 584 OFFCURVE",
"103 561 OFFCURVE",
"138 561 CURVE SMOOTH"
);
},
{
closed = 1;
nodes = (
"499 561 OFFCURVE",
"522 584 OFFCURVE",
"522 616 CURVE SMOOTH",
"522 649 OFFCURVE",
"499 671 OFFCURVE",
"465 671 CURVE SMOOTH",
"431 671 OFFCURVE",
"409 649 OFFCURVE",
"409 616 CURVE SMOOTH",
"409 584 OFFCURVE",
"431 561 OFFCURVE",
"465 561 CURVE SMOOTH"
);
}
);
width = 598;
}
);
note = ij;
unicode = 0133;
},
{
color = 5;
glyphname = jdotless;
lastChange = "2018-01-03 16:29:50 +0000";
layers = (
{
anchors = (
{
name = bottom;
position = "{151, 0}";
},
{
name = top;
position = "{151, 470}";
}
);
layerId = "0B1DFD06-3317-40CA-B510-4969A0718C16";
paths = (
{
closed = 1;
nodes = (
"176 -107 OFFCURVE",
"220 -25 OFFCURVE",
"220 102 CURVE SMOOTH",
"220 473 LINE",
"195 473 LINE",
"69 428 LINE",
"76 406 LINE",
"86 410 OFFCURVE",
"98 414 OFFCURVE",
"106 414 CURVE SMOOTH",
"115 414 OFFCURVE",
"126 410 OFFCURVE",
"126 393 CURVE SMOOTH",
"126 97 LINE SMOOTH",
"126 -3 OFFCURVE",
"123 -71 OFFCURVE",
"31 -110 CURVE",
"35 -132 LINE"
);
}
);
width = 302;
}
);
leftKerningGroup = j;
note = dotlessj;
unicode = 0237;
},
{
color = 5;
glyphname = kgreenlandic;
lastChange = "2018-01-03 16:29:50 +0000";
layers = (
{
layerId = "0B1DFD06-3317-40CA-B510-4969A0718C16";
paths = (
{
closed = 1;
nodes = (
"257 0 LINE",
"257 25 LINE",
"240 25 LINE SMOOTH",
"211 25 OFFCURVE",
"187 35 OFFCURVE",
"187 57 CURVE SMOOTH",
"187 487 LINE",
"162 487 LINE",
"36 442 LINE",
"43 419 LINE",
"54 423 OFFCURVE",
"65 427 OFFCURVE",
"73 427 CURVE SMOOTH",
"82 427 OFFCURVE",
"94 424 OFFCURVE",
"94 406 CURVE SMOOTH",
"94 57 LINE SMOOTH",
"94 34 OFFCURVE",
"70 25 OFFCURVE",
"40 25 CURVE SMOOTH",
"21 25 LINE",
"21 0 LINE"
);
},
{
closed = 1;
nodes = (
"577 0 LINE",
"577 25 LINE",
"550 25 LINE SMOOTH",
"530 25 OFFCURVE",
"496 35 OFFCURVE",
"475 55 CURVE SMOOTH",
"247 266 LINE",
"185 217 LINE",
"421 0 LINE"
);
},
{
closed = 1;
nodes = (
"446 417 LINE SMOOTH",
"463 432 OFFCURVE",
"488 444 OFFCURVE",
"506 444 CURVE SMOOTH",
"528 444 LINE",
"528 470 LINE",
"332 470 LINE",
"332 444 LINE",
"354 444 LINE SMOOTH",
"380 444 OFFCURVE",
"401 428 OFFCURVE",
"380 411 CURVE SMOOTH",
"155 225 LINE",
"155 173 LINE"
);
}
);
width = 591;
}
);
note = kgreenlandic;
rightKerningGroup = k;
unicode = 0138;
},
{
glyphname = lslash;
lastChange = "2018-01-03 15:14:19 +0000";
layers = (
{
layerId = "0B1DFD06-3317-40CA-B510-4969A0718C16";
paths = (
{
closed = 1;
nodes = (
"150 4 OFFCURVE",
"158 11 OFFCURVE",
"162 26 CURVE",
"164 439 LINE",
"256 528 LINE",
"287 569 OFFCURVE",
"249 586 OFFCURVE",
"230 568 CURVE",
"162 500 LINE",
"162 872 LINE SMOOTH",
"162 906 OFFCURVE",
"110 903 OFFCURVE",
"115 874 CURVE",
"113 465 LINE",
"35 407 LINE",
"9 394 OFFCURVE",
"29 337 OFFCURVE",
"56 359 CURVE SMOOTH",
"122 407 LINE",
"116 23 LINE SMOOTH",
"116 14 OFFCURVE",
"123 8 OFFCURVE",
"136 6 CURVE SMOOTH"
);
}
);
width = 282;
}
);
note = lslash;
unicode = 0142;
},
{
color = 5;
glyphname = eng;
lastChange = "2018-01-03 16:29:50 +0000";
layers = (
{
layerId = "0B1DFD06-3317-40CA-B510-4969A0718C16";
paths = (
{
closed = 1;
nodes = (
"478 -215 OFFCURVE",
"529 -140 OFFCURVE",
"529 -17 CURVE SMOOTH",
"529 344 LINE SMOOTH",
"529 424 OFFCURVE",
"472 480 OFFCURVE",
"358 480 CURVE SMOOTH",
"266 480 OFFCURVE",
"195 424 OFFCURVE",
"178 373 CURVE",
"178 285 LINE",
"188 285 LINE",
"188 389 OFFCURVE",
"264 439 OFFCURVE",
"331 439 CURVE SMOOTH",
"395 439 OFFCURVE",
"435 404 OFFCURVE",
"435 332 CURVE SMOOTH",
"435 -58 LINE SMOOTH",
"435 -128 OFFCURVE",
"413 -186 OFFCURVE",
"339 -215 CURVE",
"344 -238 LINE"
);
},
{
closed = 1;
nodes = (
"255 0 LINE",
"255 25 LINE",
"240 25 LINE SMOOTH",
"205 25 OFFCURVE",
"188 37 OFFCURVE",
"188 66 CURVE SMOOTH",
"188 473 LINE",
"166 473 LINE",
"38 428 LINE",
"44 406 LINE",
"54 410 OFFCURVE",
"66 414 OFFCURVE",
"74 414 CURVE SMOOTH",
"83 414 OFFCURVE",
"94 410 OFFCURVE",
"94 393 CURVE SMOOTH",
"94 66 LINE SMOOTH",
"94 37 OFFCURVE",
"77 25 OFFCURVE",
"41 25 CURVE SMOOTH",
"22 25 LINE",
"22 0 LINE"
);
}
);
width = 609;
}
);
leftKerningGroup = m;
note = eng;
rightKerningGroup = m;
unicode = 014B;
},
{
glyphname = oslash;
lastChange = "2018-01-03 15:14:19 +0000";
layers = (
{
layerId = "0B1DFD06-3317-40CA-B510-4969A0718C16";
paths = (
{
closed = 1;
nodes = (
"183 45 LINE",
"234 11 OFFCURVE",
"293 -3 OFFCURVE",
"352 -3 CURVE SMOOTH",
"505 -3 OFFCURVE",
"666 77 OFFCURVE",
"670 281 CURVE",
"676 383 OFFCURVE",
"636 464 OFFCURVE",
"578 522 CURVE",
"623 576 LINE SMOOTH",
"642 600 OFFCURVE",
"606 627 OFFCURVE",
"588 604 CURVE SMOOTH",
"545 552 LINE",
"491 592 OFFCURVE",
"425 613 OFFCURVE",
"354 613 CURVE SMOOTH",
"181 613 OFFCURVE",
"65 483 OFFCURVE",
"65 279 CURVE SMOOTH",
"65 186 OFFCURVE",
"101 120 OFFCURVE",
"150 73 CURVE",
"106 21 LINE",
"88 -4 OFFCURVE",
"122 -31 OFFCURVE",
"141 -7 CURVE SMOOTH"
);
},
{
closed = 1;
nodes = (
"133 141 OFFCURVE",
"106 197 OFFCURVE",
"106 279 CURVE SMOOTH",
"106 378 OFFCURVE",
"130 453 OFFCURVE",
"177 502 CURVE SMOOTH",
"224 550 OFFCURVE",
"283 575 OFFCURVE",
"354 576 CURVE SMOOTH",
"421 579 OFFCURVE",
"477 561 OFFCURVE",
"522 524 CURVE",
"173 101 LINE"
);
},
{
closed = 1;
nodes = (
"309 35 OFFCURVE",
"254 43 OFFCURVE",
"207 73 CURVE",
"555 495 LINE",
"602 444 OFFCURVE",
"630 373 OFFCURVE",
"630 281 CURVE",
"621 88 OFFCURVE",
"475 35 OFFCURVE",
"355 35 CURVE SMOOTH"
);
}
);
width = 741;
}
);
note = oslash;
unicode = 00F8;
},
{
glyphname = oe;
lastChange = "2018-01-03 15:14:19 +0000";
layers = (
{
layerId = "0B1DFD06-3317-40CA-B510-4969A0718C16";
paths = (
{
closed = 1;
nodes = (
"469 -2 OFFCURVE",
"577 46 OFFCURVE",
"625 156 CURVE SMOOTH",
"628 165 OFFCURVE",
"631 173 OFFCURVE",
"633 181 CURVE",
"644 158 LINE SMOOTH",
"666 113 OFFCURVE",
"700 75 OFFCURVE",
"744 45 CURVE SMOOTH",
"789 15 OFFCURVE",
"846 0 OFFCURVE",
"915 0 CURVE SMOOTH",
"1014 0 OFFCURVE",
"1120 55 OFFCURVE",
"1166 139 CURVE",
"1189 176 OFFCURVE",
"1148 207 OFFCURVE",
"1130 184 CURVE",
"1108 139 OFFCURVE",
"1077 105 OFFCURVE",
"1035 84 CURVE SMOOTH",
"994 63 OFFCURVE",
"954 52 OFFCURVE",
"915 52 CURVE SMOOTH",
"731 52 OFFCURVE",
"664 168 OFFCURVE",
"668 299 CURVE",
"829 313 OFFCURVE",
"1016 315 OFFCURVE",
"1149 315 CURVE",
"1181 311 OFFCURVE",
"1191 335 OFFCURVE",
"1191 388 CURVE SMOOTH",
"1191 486 OFFCURVE",
"1084 615 OFFCURVE",
"912 615 CURVE SMOOTH",
"782 615 OFFCURVE",
"694 547 OFFCURVE",
"648 455 CURVE",
"630 414 LINE",
"629 422 OFFCURVE",
"626 428 OFFCURVE",
"623 434 CURVE",
"575 556 OFFCURVE",
"466 616 OFFCURVE",
"349 616 CURVE SMOOTH",
"148 616 OFFCURVE",
"43 490 OFFCURVE",
"43 282 CURVE SMOOTH",
"43 64 OFFCURVE",
"214 -2 OFFCURVE",
"339 -2 CURVE SMOOTH"
);
},
{
closed = 1;
nodes = (
"228 50 OFFCURVE",
"94 102 OFFCURVE",
"94 282 CURVE SMOOTH",
"94 479 OFFCURVE",
"185 571 OFFCURVE",
"349 571 CURVE SMOOTH",
"473 571 OFFCURVE",
"599 481 OFFCURVE",
"599 279 CURVE SMOOTH",
"599 108 OFFCURVE",
"485 50 OFFCURVE",
"339 50 CURVE SMOOTH"
);
},
{
closed = 1;
nodes = (
"679 414 OFFCURVE",
"706 465 OFFCURVE",
"749 505 CURVE SMOOTH",
"792 545 OFFCURVE",
"847 564 OFFCURVE",
"910 564 CURVE SMOOTH",
"1087 562 OFFCURVE",
"1148 423 OFFCURVE",
"1146 367 CURVE SMOOTH",
"1146 354 OFFCURVE",
"761 359 OFFCURVE",
"668 352 CURVE"
);
}
);
width = 1198;
}
);
note = oe;
unicode = 0153;
},
{
glyphname = thorn;
lastChange = "2018-01-03 15:14:19 +0000";
layers = (
{
layerId = "0B1DFD06-3317-40CA-B510-4969A0718C16";
paths = (
{
closed = 1;
nodes = (
"178 -241 OFFCURVE",
"193 -231 OFFCURVE",
"193 -218 CURVE SMOOTH",
"196 56 LINE",
"262 27 OFFCURVE",
"329 13 OFFCURVE",
"393 13 CURVE SMOOTH",
"555 13 OFFCURVE",
"691 107 OFFCURVE",
"693 296 CURVE SMOOTH",
"693 490 OFFCURVE",
"533 587 OFFCURVE",
"369 587 CURVE SMOOTH",
"301 587 OFFCURVE",
"241 573 OFFCURVE",
"184 541 CURVE",
"184 629 OFFCURVE",
"183 717 OFFCURVE",
"179 811 CURVE",
"179 824 OFFCURVE",
"171 831 OFFCURVE",
"162 831 CURVE SMOOTH",
"151 831 OFFCURVE",
"139 821 OFFCURVE",
"139 797 CURVE SMOOTH",
"145 517 LINE",
"118 508 OFFCURVE",
"102 487 OFFCURVE",
"102 479 CURVE SMOOTH",
"102 468 OFFCURVE",
"111 448 OFFCURVE",
"146 470 CURVE",
"146 353 OFFCURVE",
"151 239 OFFCURVE",
"151 88 CURVE SMOOTH",
"151 0 OFFCURVE",
"145 -100 OFFCURVE",
"145 -220 CURVE SMOOTH",
"145 -235 OFFCURVE",
"153 -241 OFFCURVE",
"163 -241 CURVE SMOOTH"
);
},
{
closed = 1;
nodes = (
"325 54 OFFCURVE",
"261 70 OFFCURVE",
"198 103 CURVE",
"189 230 OFFCURVE",
"189 398 OFFCURVE",
"184 493 CURVE",
"242 528 OFFCURVE",
"302 543 OFFCURVE",
"364 543 CURVE SMOOTH",
"519 543 OFFCURVE",
"653 441 OFFCURVE",
"653 303 CURVE SMOOTH",
"653 147 OFFCURVE",
"530 54 OFFCURVE",
"385 54 CURVE SMOOTH"
);
}
);
width = 768;
}
);
note = thorn;
unicode = 00FE;
},
{
glyphname = germandbls;
lastChange = "2018-01-03 15:14:19 +0000";
layers = (
{
layerId = "0B1DFD06-3317-40CA-B510-4969A0718C16";
paths = (
{
closed = 1;
nodes = (
"113 -257 OFFCURVE",
"122 -255 OFFCURVE",
"128 -246 CURVE",
"139 -222 OFFCURVE",
"155 -165 OFFCURVE",
"155 -96 CURVE SMOOTH",
"156 583 LINE SMOOTH",
"161 780 OFFCURVE",
"236 865 OFFCURVE",
"362 865 CURVE SMOOTH",
"478 865 OFFCURVE",
"564 750 OFFCURVE",
"517 636 CURVE",
"445 603 OFFCURVE",
"399 552 OFFCURVE",
"399 496 CURVE SMOOTH",
"399 443 OFFCURVE",
"436 392 OFFCURVE",
"500 334 CURVE",
"558 286 OFFCURVE",
"585 238 OFFCURVE",
"585 171 CURVE SMOOTH",
"585 92 OFFCURVE",
"531 30 OFFCURVE",
"420 30 CURVE SMOOTH",
"380 30 OFFCURVE",
"339 40 OFFCURVE",
"296 60 CURVE",
"289 62 OFFCURVE",
"284 58 OFFCURVE",
"281 48 CURVE SMOOTH",
"277 39 OFFCURVE",
"280 32 OFFCURVE",
"287 26 CURVE",
"327 7 OFFCURVE",
"374 0 OFFCURVE",
"418 0 CURVE SMOOTH",
"483 0 OFFCURVE",
"532 18 OFFCURVE",
"565 53 CURVE SMOOTH",
"599 88 OFFCURVE",
"616 131 OFFCURVE",
"616 181 CURVE",
"615 218 OFFCURVE",
"604 250 OFFCURVE",
"585 276 CURVE SMOOTH",
"565 303 OFFCURVE",
"544 326 OFFCURVE",
"521 349 CURVE SMOOTH",
"498 372 OFFCURVE",
"478 394 OFFCURVE",
"458 417 CURVE",
"439 439 OFFCURVE",
"430 466 OFFCURVE",
"430 496 CURVE SMOOTH",
"430 548 OFFCURVE",
"464 587 OFFCURVE",
"533 613 CURVE",
"609 735 OFFCURVE",
"521 897 OFFCURVE",
"366 895 CURVE SMOOTH",
"184 893 OFFCURVE",
"125 755 OFFCURVE",
"122 583 CURVE SMOOTH",
"123 -96 LINE SMOOTH",
"123 -156 OFFCURVE",
"107 -210 OFFCURVE",
"96 -235 CURVE",
"92 -242 OFFCURVE",
"94 -248 OFFCURVE",
"104 -252 CURVE SMOOTH"
);
}
);
width = 700;
}
);
note = uni00DF;
unicode = 00DF;
},
{
glyphname = tbar;
lastChange = "2017-12-19 05:21:12 +0000";
layers = (
{
components = (
{
name = t;
}
);
layerId = "0B1DFD06-3317-40CA-B510-4969A0718C16";
paths = (
{
closed = 1;
nodes = (
"321 260 LINE",
"321 297 LINE",
"33 297 LINE",
"33 260 LINE"
);
}
);
width = 397;
}
);
leftKerningGroup = t;
note = tbar;
rightKerningGroup = t;
unicode = 0167;
},
{
glyphname = uhorn;
lastChange = "2018-01-03 15:14:19 +0000";
layers = (
{
layerId = "0B1DFD06-3317-40CA-B510-4969A0718C16";
paths = (
{
closed = 1;
nodes = (
"487 -2 OFFCURVE",
"534 41 OFFCURVE",
"557 98 CURVE",
"561 98 OFFCURVE",
"564 77 OFFCURVE",
"566 56 CURVE",
"566 14 LINE",
"570 -13 OFFCURVE",
"608 -9 OFFCURVE",
"608 12 CURVE",
"603 502 LINE",
"594 489 OFFCURVE",
"736 541 OFFCURVE",
"741 703 CURVE SMOOTH",
"741 731 OFFCURVE",
"694 745 OFFCURVE",
"698 705 CURVE",
"694 644 OFFCURVE",
"671 606 OFFCURVE",
"646 580 CURVE SMOOTH",
"632 564 OFFCURVE",
"616 553 OFFCURVE",
"599 543 CURVE",
"599 587 LINE",
"598 596 OFFCURVE",
"591 601 OFFCURVE",
"580 601 CURVE SMOOTH",
"569 601 OFFCURVE",
"563 596 OFFCURVE",
"563 587 CURVE SMOOTH",
"563 259 LINE SMOOTH",
"563 152 OFFCURVE",
"545 37 OFFCURVE",
"369 35 CURVE SMOOTH",
"190 31 OFFCURVE",
"147 162 OFFCURVE",
"151 252 CURVE SMOOTH",
"158 581 LINE SMOOTH",
"158 599 OFFCURVE",
"120 600 OFFCURVE",
"120 583 CURVE",
"117 562 OFFCURVE",
"116 522 OFFCURVE",
"116 463 CURVE SMOOTH",
"115 405 OFFCURVE",
"114 320 OFFCURVE",
"111 207 CURVE SMOOTH",
"111 123 OFFCURVE",
"171 -2 OFFCURVE",
"364 -2 CURVE SMOOTH"
);
}
);
width = 769;
}
);
note = uhorn;
unicode = 01B0;
},
{
glyphname = fi;
lastChange = "2018-01-03 15:14:19 +0000";
layers = (
{
layerId = "0B1DFD06-3317-40CA-B510-4969A0718C16";
paths = (
{
closed = 1;
nodes = (
"145 -1 OFFCURVE",
"153 6 OFFCURVE",
"156 21 CURVE",
"146 366 LINE",
"197 366 OFFCURVE",
"184 366 OFFCURVE",
"230 362 CURVE SMOOTH",
"241 361 OFFCURVE",
"248 365 OFFCURVE",
"251 372 CURVE",
"252 376 OFFCURVE",
"252 380 OFFCURVE",
"251 385 CURVE SMOOTH",
"248 403 OFFCURVE",
"201 405 OFFCURVE",
"148 405 CURVE",
"148 590 OFFCURVE",
"159 698 OFFCURVE",
"239 698 CURVE SMOOTH",
"289 698 OFFCURVE",
"306 700 OFFCURVE",
"315 590 CURVE",
"320 568 OFFCURVE",
"366 558 OFFCURVE",
"362 601 CURVE SMOOTH",
"353 719 OFFCURVE",
"313 740 OFFCURVE",
"239 740 CURVE SMOOTH",
"160 740 OFFCURVE",
"125 687 OFFCURVE",
"111 619 CURVE SMOOTH",
"105 585 OFFCURVE",
"101 548 OFFCURVE",
"102 509 CURVE SMOOTH",
"103 470 OFFCURVE",
"102 435 OFFCURVE",
"101 404 CURVE",
"82 404 OFFCURVE",
"64 403 OFFCURVE",
"47 399 CURVE SMOOTH",
"20 392 LINE SMOOTH",
"10 389 OFFCURVE",
"5 383 OFFCURVE",
"5 371 CURVE SMOOTH",
"5 360 OFFCURVE",
"11 354 OFFCURVE",
"23 354 CURVE",
"60 360 OFFCURVE",
"43 360 OFFCURVE",
"99 362 CURVE",
"111 17 LINE SMOOTH",
"111 8 OFFCURVE",
"118 3 OFFCURVE",
"131 1 CURVE SMOOTH"
);
},
{
closed = 1;
nodes = (
"318 1 OFFCURVE",
"353 -4 OFFCURVE",
"357 28 CURVE",
"366 482 LINE SMOOTH",
"366 511 OFFCURVE",
"324 511 OFFCURVE",
"324 482 CURVE SMOOTH",
"314 28 LINE"
);
}
);
width = 456;
}
);
note = fi;
unicode = FB01;
},
{
glyphname = fl;
lastChange = "2018-01-03 15:14:19 +0000";
layers = (
{
layerId = "0B1DFD06-3317-40CA-B510-4969A0718C16";
paths = (
{
closed = 1;
nodes = (
"145 -1 OFFCURVE",
"153 6 OFFCURVE",
"156 21 CURVE",
"146 366 LINE",
"215 361 OFFCURVE",
"250 364 OFFCURVE",
"251 372 CURVE",
"252 376 OFFCURVE",
"252 380 OFFCURVE",
"251 385 CURVE",
"253 399 OFFCURVE",
"218 405 OFFCURVE",
"148 405 CURVE",
"148 498 OFFCURVE",
"152 570 OFFCURVE",
"163 621 CURVE SMOOTH",
"169 645 OFFCURVE",
"179 665 OFFCURVE",
"190 677 CURVE SMOOTH",
"203 691 OFFCURVE",
"221 699 OFFCURVE",
"244 700 CURVE SMOOTH",
"267 702 OFFCURVE",
"286 694 OFFCURVE",
"301 676 CURVE SMOOTH",
"341 628 OFFCURVE",
"312 548 OFFCURVE",
"329 500 CURVE SMOOTH",
"339 470 OFFCURVE",
"366 462 OFFCURVE",
"392 465 CURVE",
"395 30 LINE SMOOTH",
"395 1 OFFCURVE",
"433 3 OFFCURVE",
"437 30 CURVE",
"432 837 LINE",
"432 866 OFFCURVE",
"394 864 OFFCURVE",
"390 837 CURVE",
"392 555 LINE",
"394 530 OFFCURVE",
"366 519 OFFCURVE",
"366 541 CURVE SMOOTH",
"366 595 OFFCURVE",
"361 638 OFFCURVE",
"349 672 CURVE",
"343 690 OFFCURVE",
"334 705 OFFCURVE",
"325 714 CURVE SMOOTH",
"305 734 OFFCURVE",
"285 749 OFFCURVE",
"224 743 CURVE SMOOTH",
"164 739 OFFCURVE",
"125 687 OFFCURVE",
"111 619 CURVE SMOOTH",
"105 585 OFFCURVE",
"101 548 OFFCURVE",
"102 509 CURVE SMOOTH",
"103 470 OFFCURVE",
"102 435 OFFCURVE",
"101 404 CURVE",
"92 404 OFFCURVE",
"65 400 OFFCURVE",
"20 392 CURVE",
"10 389 OFFCURVE",
"5 383 OFFCURVE",
"5 371 CURVE SMOOTH",
"5 360 OFFCURVE",
"11 354 OFFCURVE",
"23 354 CURVE",
"41 356 OFFCURVE",
"71 360 OFFCURVE",
"99 362 CURVE",
"111 17 LINE SMOOTH",
"111 8 OFFCURVE",
"118 3 OFFCURVE",
"131 1 CURVE SMOOTH"
);
}
);
width = 485;
}
);
note = fl;
unicode = FB02;
},
{
glyphname = ordfeminine;
lastChange = "2018-01-03 15:14:19 +0000";
layers = (
{
layerId = "0B1DFD06-3317-40CA-B510-4969A0718C16";
paths = (
{
closed = 1;
nodes = (
"280 326 OFFCURVE",
"327 342 OFFCURVE",
"354 383 CURVE",
"360 345 OFFCURVE",
"375 333 OFFCURVE",
"413 333 CURVE SMOOTH",
"419 333 OFFCURVE",
"426 333 OFFCURVE",
"434 334 CURVE",
"438 338 OFFCURVE",
"441 344 OFFCURVE",
"441 350 CURVE SMOOTH",
"441 356 OFFCURVE",
"437 360 OFFCURVE",
"428 364 CURVE",
"388 364 OFFCURVE",
"385 395 OFFCURVE",
"385 424 CURVE SMOOTH",
"385 529 OFFCURVE",
"385 663 OFFCURVE",
"399 712 CURVE",
"399 719 OFFCURVE",
"390 725 OFFCURVE",
"375 725 CURVE SMOOTH",
"365 725 OFFCURVE",
"359 720 OFFCURVE",
"357 711 CURVE",
"354 663 LINE",
"314 711 OFFCURVE",
"275 729 OFFCURVE",
"221 729 CURVE SMOOTH",
"82 729 OFFCURVE",
"42 596 OFFCURVE",
"42 536 CURVE SMOOTH",
"42 453 OFFCURVE",
"66 326 OFFCURVE",
"219 326 CURVE SMOOTH"
);
},
{
closed = 1;
nodes = (
"97 359 OFFCURVE",
"73 462 OFFCURVE",
"73 535 CURVE",
"75 575 OFFCURVE",
"106 701 OFFCURVE",
"223 701 CURVE SMOOTH",
"274 701 OFFCURVE",
"337 665 OFFCURVE",
"350 590 CURVE",
"352 535 LINE SMOOTH",
"352 389 OFFCURVE",
"309 359 OFFCURVE",
"218 359 CURVE SMOOTH"
);
}
);
width = 439;
}
);
note = ordfeminine;
unicode = 00AA;
},
{
glyphname = ordmasculine;
lastChange = "2018-01-03 15:14:19 +0000";
layers = (
{
layerId = "0B1DFD06-3317-40CA-B510-4969A0718C16";
paths = (
{
closed = 1;
nodes = (
"306 336 OFFCURVE",
"420 398 OFFCURVE",
"420 536 CURVE SMOOTH",
"420 643 OFFCURVE",
"343 731 OFFCURVE",
"218 731 CURVE SMOOTH",
"119 731 OFFCURVE",
"20 655 OFFCURVE",
"20 530 CURVE SMOOTH",
"20 417 OFFCURVE",
"101 336 OFFCURVE",
"218 336 CURVE SMOOTH"
);
},
{
closed = 1;
nodes = (
"150 377 OFFCURVE",
"68 429 OFFCURVE",
"68 531 CURVE SMOOTH",
"68 609 OFFCURVE",
"118 689 OFFCURVE",
"219 689 CURVE SMOOTH",
"326 689 OFFCURVE",
"372 602 OFFCURVE",
"372 533 CURVE SMOOTH",
"372 481 OFFCURVE",
"356 442 OFFCURVE",
"325 416 CURVE SMOOTH",
"293 390 OFFCURVE",
"258 377 OFFCURVE",
"219 377 CURVE SMOOTH"
);
}
);
width = 439;
}
);
note = ordmasculine;
unicode = 00BA;
},
{
color = 5;
glyphname = nmod;
lastChange = "2018-01-03 16:29:50 +0000";
layers = (
{
layerId = "0B1DFD06-3317-40CA-B510-4969A0718C16";
paths = (
{
closed = 1;
nodes = (
"410 378 LINE",
"410 397 LINE",
"392 397 LINE SMOOTH",
"368 397 OFFCURVE",
"350 405 OFFCURVE",
"350 424 CURVE SMOOTH",
"350 599 LINE SMOOTH",
"350 660 OFFCURVE",
"323 708 OFFCURVE",
"240 708 CURVE SMOOTH",
"168 708 OFFCURVE",
"128 658 OFFCURVE",
"116 601 CURVE",
"116 548 LINE",
"135 548 LINE",
"135 628 OFFCURVE",
"173 677 OFFCURVE",
"221 677 CURVE SMOOTH",
"266 677 OFFCURVE",
"281 652 OFFCURVE",
"281 595 CURVE SMOOTH",
"281 424 LINE SMOOTH",
"281 405 OFFCURVE",
"264 397 OFFCURVE",
"239 397 CURVE SMOOTH",
"229 397 LINE",
"229 378 LINE"
);
},
{
closed = 1;
nodes = (
"187 378 LINE",
"187 397 LINE",
"177 397 LINE SMOOTH",
"152 397 OFFCURVE",
"135 405 OFFCURVE",
"135 424 CURVE SMOOTH",
"135 706 LINE",
"114 706 LINE",
"17 670 LINE",
"22 652 LINE",
"30 655 OFFCURVE",
"42 659 OFFCURVE",
"50 659 CURVE SMOOTH",
"58 659 OFFCURVE",
"66 656 OFFCURVE",
"66 643 CURVE SMOOTH",
"66 424 LINE SMOOTH",
"66 405 OFFCURVE",
"48 397 OFFCURVE",
"23 397 CURVE SMOOTH",
"6 397 LINE",
"6 378 LINE"
);
}
);
width = 416;
}
);
note = uni207F;
unicode = 207F;
},
{
glyphname = Delta;
lastChange = "2018-01-03 15:14:19 +0000";
layers = (
{
layerId = "0B1DFD06-3317-40CA-B510-4969A0718C16";
paths = (
{
closed = 1;
nodes = (
"524 11 LINE SMOOTH",
"626 9 OFFCURVE",
"646 34 OFFCURVE",
"619 92 CURVE SMOOTH",
"535 260 OFFCURVE",
"512 324 OFFCURVE",
"438 480 CURVE SMOOTH",
"408 543 OFFCURVE",
"360 669 OFFCURVE",
"313 572 CURVE SMOOTH",
"283 514 OFFCURVE",
"241 436 OFFCURVE",
"190 338 CURVE SMOOTH",
"138 241 OFFCURVE",
"94 157 OFFCURVE",
"37 48 CURVE",
"37 45 OFFCURVE",
"19 5 OFFCURVE",
"67 9 CURVE"
);
},
{
closed = 1;
nodes = (
"65 34 OFFCURVE",
"44 29 OFFCURVE",
"65 56 CURVE",
"322 553 LINE",
"323 557 OFFCURVE",
"339 581 OFFCURVE",
"368 525 CURVE SMOOTH",
"395 473 OFFCURVE",
"457 333 OFFCURVE",
"458 331 CURVE",
"581 63 LINE",
"595 45 OFFCURVE",
"570 36 OFFCURVE",
"564 35 CURVE",
"66 35 LINE"
);
}
);
width = 664;
}
);
note = Delta;
unicode = 0394;
},
{
glyphname = Omega;
lastChange = "2018-01-03 15:14:19 +0000";
layers = (
{
layerId = "0B1DFD06-3317-40CA-B510-4969A0718C16";
paths = (
{
closed = 1;
nodes = (
"299 25 LINE SMOOTH",
"309 25 OFFCURVE",
"315 27 OFFCURVE",
"317 33 CURVE",
"318 36 OFFCURVE",
"319 38 OFFCURVE",
"319 42 CURVE SMOOTH",
"319 181 LINE",
"320 184 OFFCURVE",
"320 188 OFFCURVE",
"319 191 CURVE",
"318 194 OFFCURVE",
"316 196 OFFCURVE",
"315 196 CURVE",
"201 271 OFFCURVE",
"137 360 OFFCURVE",
"139 472 CURVE",
"137 646 OFFCURVE",
"231 738 OFFCURVE",
"402 738 CURVE SMOOTH",
"572 740 OFFCURVE",
"663 646 OFFCURVE",
"663 472 CURVE SMOOTH",
"666 360 OFFCURVE",
"606 274 OFFCURVE",
"500 202 CURVE",
"496 201 OFFCURVE",
"491 198 OFFCURVE",
"489 193 CURVE",
"488 190 OFFCURVE",
"487 188 OFFCURVE",
"487 184 CURVE SMOOTH",
"487 37 LINE SMOOTH",
"487 34 OFFCURVE",
"489 32 OFFCURVE",
"491 30 CURVE",
"494 26 OFFCURVE",
"499 24 OFFCURVE",
"507 25 CURVE",
"706 25 LINE SMOOTH",
"718 25 OFFCURVE",
"725 31 OFFCURVE",
"728 43 CURVE SMOOTH",
"730 55 OFFCURVE",
"723 61 OFFCURVE",
"706 61 CURVE SMOOTH",
"530 61 LINE",
"520 73 LINE",
"520 167 LINE",
"646 248 OFFCURVE",
"704 346 OFFCURVE",
"706 472 CURVE",
"706 677 OFFCURVE",
"604 781 OFFCURVE",
"402 782 CURVE SMOOTH",
"202 781 OFFCURVE",
"100 677 OFFCURVE",
"96 472 CURVE",
"99 349 OFFCURVE",
"157 248 OFFCURVE",
"286 167 CURVE",
"286 71 LINE",
"275 61 LINE",
"87 61 LINE SMOOTH",
"74 61 OFFCURVE",
"68 55 OFFCURVE",
"68 43 CURVE SMOOTH",
"68 31 OFFCURVE",
"74 25 OFFCURVE",
"87 25 CURVE SMOOTH"
);
}
);
width = 796;
}
);
note = Omega;
unicode = 03A9;
},
{
glyphname = mu;
lastChange = "2018-01-03 15:14:19 +0000";
layers = (
{
layerId = "0B1DFD06-3317-40CA-B510-4969A0718C16";
paths = (
{
closed = 1;
nodes = (
"111 -262 OFFCURVE",
"153 -262 OFFCURVE",
"153 -231 CURVE SMOOTH",
"153 96 LINE",
"188 43 OFFCURVE",
"249 -1 OFFCURVE",
"347 2 CURVE SMOOTH",
"462 4 OFFCURVE",
"525 51 OFFCURVE",
"550 118 CURVE",
"554 121 OFFCURVE",
"555 94 OFFCURVE",
"555 70 CURVE SMOOTH",
"555 54 OFFCURVE",
"554 37 OFFCURVE",
"553 20 CURVE",
"558 -16 OFFCURVE",
"603 -3 OFFCURVE",
"603 17 CURVE",
"595 595 LINE",
"595 615 OFFCURVE",
"550 618 OFFCURVE",
"550 593 CURVE SMOOTH",
"550 312 LINE SMOOTH",
"550 185 OFFCURVE",
"518 49 OFFCURVE",
"352 45 CURVE SMOOTH",
"268 43 OFFCURVE",
"218 82 OFFCURVE",
"190 133 CURVE SMOOTH",
"162 184 OFFCURVE",
"154 247 OFFCURVE",
"156 303 CURVE SMOOTH",
"164 588 LINE SMOOTH",
"164 609 OFFCURVE",
"116 612 OFFCURVE",
"116 590 CURVE",
"105 312 OFFCURVE",
"109 42 OFFCURVE",
"111 -231 CURVE SMOOTH"
);
}
);
width = 712;
}
);
note = mu;
unicode = 03BC;
},
{
color = 5;
glyphname = pi;
lastChange = "2018-01-03 16:29:50 +0000";
layers = (
{
layerId = "0B1DFD06-3317-40CA-B510-4969A0718C16";
paths = (
{
closed = 1;
nodes = (
"577 -10 OFFCURVE",
"603 -4 OFFCURVE",
"633 13 CURVE",
"633 54 LINE",
"618 44 OFFCURVE",
"598 36 OFFCURVE",
"581 36 CURVE SMOOTH",
"555 36 OFFCURVE",
"528 49 OFFCURVE",
"528 100 CURVE SMOOTH",
"528 431 LINE",
"647 431 LINE",
"647 470 LINE",
"19 470 LINE",
"19 431 LINE",
"136 431 LINE",
"136 0 LINE",
"231 0 LINE",
"231 431 LINE",
"433 431 LINE",
"433 96 LINE SMOOTH",
"433 32 OFFCURVE",
"466 -10 OFFCURVE",
"540 -10 CURVE SMOOTH"
);
}
);
width = 664;
}
);
note = pi;
unicode = 03C0;
},
